<?xml version="1.0" standalone="no"?>
<!DOCTYPE svg PUBLIC "-//W3C//DTD SVG 1.1//EN" "http://www.w3.org/Graphics/SVG/1.1/DTD/svg11.dtd" >
<svg xmlns="http://www.w3.org/2000/svg">
<metadata></metadata>
<defs>
<font id="havlova-australitalic" horiz-adv-x="628" >
<font-face units-per-em="2048" ascent="1638" descent="-410" />
<missing-glyph horiz-adv-x="716" />
<glyph horiz-adv-x="2048" />
<glyph horiz-adv-x="2048" />
<glyph unicode="&#xd;" horiz-adv-x="2048" />
<glyph unicode=" "  horiz-adv-x="716" />
<glyph unicode="&#x09;" horiz-adv-x="716" />
<glyph unicode="&#xa0;" horiz-adv-x="716" />
<glyph unicode="!" horiz-adv-x="436" d="M210 95q5 34 30 57q20 20 38.5 10t27.5 -35t7 -55.5t-20 -48.5q-29 -29 -49.5 -21t-29.5 33.5t-4 59.5zM276 311q4 18 18.5 69.5t34 119t43 146.5t46 153.5t42 138t32.5 102.5q18 61 41.5 74.5t40 -2.5t22.5 -53t-12 -76q-8 -16 -28.5 -70.5t-48.5 -127t-58.5 -155.5 t-58.5 -156t-48 -126t-27 -67q-23 -51 -37 -41t-2 71z" />
<glyph unicode="&#x22;" horiz-adv-x="489" d="M205 1088.5q-2 37.5 1 64.5t11 33q16 10 39 -8.5t31 -30.5q10 -16 9 -66.5t-8 -103.5t-16.5 -97t-15.5 -49q-12 -8 -20 9q-2 2 -6.5 26.5t-9.5 61.5t-9 80t-6 80.5zM381 1088.5q-2 37.5 1 64.5t11 33q16 10 39 -8.5t31 -30.5q10 -16 9 -66.5t-8 -103.5t-16.5 -97 t-15.5 -49q-12 -8 -20 9q-2 2 -6.5 26.5t-9.5 61.5t-9 80t-6 80.5z" />
<glyph unicode="#" horiz-adv-x="907" d="M-27 409.5q-4 6.5 6.5 11.5t40.5 7q39 4 115 9t168 14q16 49 30.5 99t31.5 97q-88 -2 -154 -3t-88 -1q-18 0 -34.5 4t-22 10.5t4 11.5t42.5 7q35 2 107.5 8t158.5 14q35 109 61.5 194t38.5 122q14 45 42 70.5t49.5 25.5t29 -25.5t-17.5 -78.5q-29 -63 -62 -140.5 t-65 -160.5l159 12q31 102 55.5 182t37.5 115q14 45 40.5 70.5t48 25.5t30 -25.5t-16.5 -78.5q-29 -59 -58.5 -131t-60.5 -150q72 6 126 10t83 8q37 2 61.5 -14t30.5 -35.5t-10 -37t-61 -13.5q-55 4 -121 6t-135 2q-18 -43 -35 -87t-33 -87l126 10.5t83 8.5q37 2 62.5 -13.5 t31.5 -36t-10.5 -37t-61.5 -12.5q-57 4 -121.5 5t-136.5 4q-47 -129 -82.5 -226.5t-48.5 -130.5q-10 -23 -21 -39t-18.5 -20t-7.5 9t12 52q16 47 46 142.5t67 209.5h-89t-87 -2q-47 -127 -82 -223t-47 -129q-10 -23 -21.5 -39t-19.5 -20t-8 9t12 52q16 47 47 141.5t66 208.5 q-94 -4 -164 -5t-94 -1q-18 0 -35 4t-21 10.5zM360 457q45 4 89.5 7t87.5 7q14 47 28.5 92t28.5 88h-81t-79 -2q-18 -47 -37 -96t-37 -96z" />
<glyph unicode="$" horiz-adv-x="714" d="M96 371q-12 57 2.5 98t34 53.5t35.5 -14.5t10 -105q-10 -106 21.5 -191t83.5 -138q20 37 38.5 73.5t30.5 75.5l121 373q-23 117 -38 231.5t-11 206.5q4 113 28.5 174.5t61.5 83t81 7t91 -53.5l23 66q14 43 30.5 56t26.5 4t10 -34.5t-16 -58.5q-8 -16 -17.5 -33.5 t-19.5 -34.5q39 -41 72.5 -92t60.5 -108q18 -43 11 -75t-23.5 -42t-31.5 5t-13 69q4 47 -22.5 108.5t-65.5 112.5q-8 -16 -14.5 -30.5t-12.5 -31.5l-143 -428q23 -109 45 -216t30 -206q10 -111 -14 -179t-69.5 -99t-103.5 -26t-118 44l-8 -28q-14 -51 -30.5 -63.5t-25.5 1 t-8 44t21 65.5q2 4 4 7t4 7q-57 51 -103 131t-69 191zM319 41q45 -35 90.5 -41t79 19.5t48 87t-1.5 163.5q-10 59 -22.5 126t-27.5 139zM498 1034q-2 -59 6 -127.5t24 -144.5l152 461q-31 29 -62.5 40t-57 -6.5t-43 -70.5t-19.5 -152z" />
<glyph unicode="%" horiz-adv-x="884" d="M10 -56.5q6 17.5 35 52.5q100 119 215 256t231.5 280.5t233.5 290t221 285.5q35 45 69 56.5t54.5 0t18.5 -42t-39 -67.5q-123 -125 -258.5 -273.5t-264.5 -296t-243.5 -281.5t-196.5 -229q-25 -29 -44 -42t-28.5 -10t-3.5 20.5zM191.5 703.5q1.5 31.5 10.5 63.5t19 52 q-4 4 -6 21.5t8 36.5q16 25 51 59.5t79 65t96.5 49t101.5 12.5q57 -8 73.5 -54t2 -106.5t-53 -127t-93 -115t-119 -69t-130.5 8.5q-25 14 -33 43t-6.5 60.5zM233.5 648.5q4.5 -27.5 32.5 -38.5q35 -12 77 9.5t80 62.5t70.5 94t51 104.5t20 91.5t-23.5 56q-25 14 -56.5 3 t-62.5 -33.5t-56.5 -51t-35.5 -47.5q4 -23 -12.5 -45.5t-28.5 -40.5q-10 -14 -25.5 -44t-25 -61.5t-5 -59zM446.5 111.5q2.5 31.5 11.5 63.5t19 50q-4 4 -6 22.5t8 35.5q16 27 51 61.5t79 64t95.5 48t100.5 12.5q57 -8 73.5 -53t2 -105.5t-53.5 -127t-93 -115t-118.5 -68.5 t-130.5 8q-25 14 -33 43t-5.5 60.5zM487.5 56.5q4.5 -27.5 34.5 -38.5q35 -12 76 9.5t80 62.5t71.5 94.5t51 103.5t19 91t-24.5 57q-23 14 -55.5 3t-63.5 -34.5t-56.5 -52t-33.5 -47.5q2 -20 -14.5 -43.5t-28.5 -40.5q-10 -14 -25.5 -44t-25 -61.5t-5 -59z" />
<glyph unicode="&#x26;" horiz-adv-x="927" d="M27.5 186.5q15.5 57.5 53.5 113.5t93 111.5t111.5 103.5t107.5 87t84 64q-6 96 0 180t29 147q14 41 45 81t82 40q49 0 88 -30.5t59.5 -75.5t19.5 -95.5t-32 -89.5q-53 -68 -116.5 -129t-133.5 -119q6 -53 15.5 -105t23.5 -103q16 -63 37.5 -120t48.5 -104q47 35 87 71 t81 75q57 51 147 37q27 -4 7.5 -25.5t-66.5 -51.5t-111.5 -64.5t-128.5 -65.5q43 -61 95.5 -91t117.5 -10q29 8 59 21.5t48 20t21.5 0t-19.5 -32.5q-10 -12 -36.5 -26.5t-61.5 -23.5q-72 -14 -131.5 24t-108.5 110q-66 -33 -115 -55.5t-61 -26.5q-45 -16 -109.5 -27.5 t-129 -10.5t-118 19.5t-73.5 65.5q-25 53 -9.5 110.5zM142.5 199q-11.5 -43 9.5 -86q16 -37 56 -54.5t88 -21.5t98 3t91 21q80 31 144 72q-66 104 -103 246q-25 86 -37 174q-25 -20 -65.5 -49t-84.5 -63.5t-86 -74.5t-70.5 -82t-40 -85zM510 692q45 35 84 72t72 76 q18 23 34.5 61.5t18.5 76.5t-15.5 66.5t-66.5 28.5q-23 0 -39 -13t-28.5 -31.5t-20.5 -39.5t-12 -37q-16 -53 -22.5 -119.5t-4.5 -140.5z" />
<glyph unicode="'" horiz-adv-x="346" d="M280 1088.5q-1 37.5 2 64.5t11 33q16 10 37.5 -8.5t29.5 -30.5q10 -16 9.5 -66.5t-8 -103.5t-16.5 -97t-15 -49q-12 -8 -21 9q-2 2 -6 26.5t-8 61.5t-9 80t-6 80.5z" />
<glyph unicode="(" horiz-adv-x="409" d="M84 13.5q-8 95.5 1 216t40 241.5q29 117 83 228.5t115.5 209t121 174t98.5 121.5q41 47 70.5 62.5t58.5 15.5q23 0 31 -15.5t-21 -49.5q-49 -59 -127 -132t-158 -170.5t-150.5 -225.5t-109.5 -296q-20 -88 -24 -164.5t2 -140t19 -111t28 -77.5q14 -29 20 -56.5t-12 -31.5 q-33 -6 -55.5 50t-30.5 151.5z" />
<glyph unicode=")" horiz-adv-x="679" d="M104 -183.5q-8 13.5 21 48.5q49 61 126 134t156.5 171t151.5 225t111 295q20 88 24 166t-2 140.5t-19.5 110.5t-27.5 77t-21 55.5t13 30.5q33 8 55.5 -49.5t29.5 -152.5t-2 -215t-40 -239q-29 -117 -83 -228.5t-115.5 -209.5t-121 -175t-98.5 -122q-41 -47 -69.5 -61.5 t-57.5 -14.5q-23 0 -31 13.5z" />
<glyph unicode="*" horiz-adv-x="530" d="M114 664.5q-3 19.5 8 49t42 54.5q35 29 57.5 47.5t48.5 40.5q-23 10 -36 15.5t-44 21.5q-29 12 -37 37.5t-1.5 47t24 31t39.5 -9.5q6 -4 19.5 -19t27.5 -30.5t26.5 -27t14.5 -11.5t6 20.5t8.5 45t7.5 46t3 26.5q6 33 28.5 55t44 28.5t35 -4t0.5 -43.5q-4 -10 -17 -37.5 t-27.5 -58.5t-26 -54.5t-9.5 -25.5q2 0 24.5 13.5t52.5 31t56.5 34t36.5 22.5q31 18 41.5 7t3 -33.5t-30 -49.5t-57.5 -41q-41 -16 -66.5 -20.5t-58.5 -16.5q16 -23 29.5 -41t34.5 -47q18 -25 16 -54.5t-14 -49t-28.5 -23.5t-28.5 23q-4 10 -22 60t-36 105q-47 -55 -86 -105 t-49 -60q-25 -27 -41 -23t-19 23.5z" />
<glyph unicode="+" horiz-adv-x="659" d="M43 302q-2 13 13.5 28.5t45 26t62.5 3.5q59 -10 111.5 -15t103.5 -7l104 283q12 31 36 45t46.5 14t33.5 -14t-1 -41q-35 -72 -70.5 -142.5t-70.5 -142.5q59 2 118.5 7t129.5 13q31 2 43 -5t12 -17t-9.5 -19.5t-23.5 -9.5q-74 -4 -146.5 -7t-144.5 -7 q-35 -70 -69.5 -138.5t-67.5 -138.5q-10 -23 -26.5 -19.5t-8.5 26.5q25 66 49.5 133t48.5 135q-74 -4 -145.5 -5t-140.5 1q-31 0 -33 13z" />
<glyph unicode="," horiz-adv-x="350" d="M156 -143q6 12 23.5 28.5t34.5 34t29.5 36.5t8.5 42q-16 4 -26.5 12t-10.5 25q0 20 11.5 41.5t27.5 38t38 27t42 10.5q27 0 34 -18.5t7 -41.5q0 -29 -14.5 -67.5t-40 -75.5t-63.5 -65.5t-85 -35.5q-4 0 -10 1t-6 8z" />
<glyph unicode="-" d="M246 328.5q-2 13.5 13 29t45 26.5t63 5q49 -8 73.5 -13t34.5 -7t15.5 -2t17.5 3t36.5 7t76.5 10q31 2 43 -6t12 -20.5t-9.5 -23.5t-23.5 -11q-84 -4 -123 -6.5t-67.5 -3.5t-63 -1h-110.5q-31 0 -33 13.5z" />
<glyph unicode="." horiz-adv-x="284" d="M178 50.5q8 25.5 32.5 49t57.5 27.5q29 4 37 -15.5t1 -45t-26.5 -48t-46.5 -26.5q-41 -6 -52 13.5t-3 45z" />
<glyph unicode="/" horiz-adv-x="782" d="M100 -40q6 15 31 46q90 106 191.5 228t206 251t208 259t197.5 255q31 39 61.5 49.5t48 0t16.5 -38t-34 -60.5q-111 -111 -230.5 -244t-235.5 -264t-217 -249.5t-175 -204.5q-23 -25 -40 -37t-25.5 -9t-2.5 18z" />
<glyph unicode="0" horiz-adv-x="800" d="M255 402.5q5 27.5 16.5 55t21.5 48.5q33 68 83 159t109.5 178t125 156.5t128.5 94.5q66 27 103 -6t50 -106t3 -175t-37 -213t-70 -218.5t-97 -193.5t-116.5 -138t-128.5 -50q-45 0 -81.5 26.5t-59 70.5t-29 102.5t10.5 123.5q-25 10 -31 34t-1 51.5zM372 182 q3 -39 25.5 -65.5t75.5 -28.5q47 -2 96 49t93.5 134t82 186.5t63.5 205t35 190.5t-3.5 144.5t-50 65.5t-105.5 -47q-51 -41 -103.5 -116t-96.5 -154.5t-73.5 -152.5t-35.5 -110q23 -14 23.5 -48t-6.5 -77t-15 -90t-5 -86z" />
<glyph unicode="1" horiz-adv-x="774" d="M193 760q0 6 8 13t19 12.5t22.5 8.5t15.5 5q94 29 182 54.5t170 82.5q12 20 29.5 52t40 60.5t47.5 49t53 20.5q27 0 44.5 -21t17.5 -46q0 -29 -25.5 -62t-60.5 -64.5t-72 -57t-59 -40.5q-43 -68 -78 -160t-61.5 -190t-45 -195.5t-30.5 -177.5q-2 -16 -11.5 -36.5t-23 -38 t-30.5 -29.5t-36 -12q-10 0 -13 10t-3 18q0 20 15.5 79t39 135.5t53 164.5t57 166t50 138.5t35.5 84.5q-59 -23 -122 -38t-128 -15h-24.5t-34 3t-29.5 9.5t-12 16.5zM686 975q27 12 60.5 34.5t33.5 57.5q-2 6 -10 6q-10 0 -23.5 -12t-25.5 -28.5t-21.5 -33t-13.5 -24.5z" />
<glyph unicode="2" horiz-adv-x="647" d="M-51 106q0 37 30.5 65t72.5 44t87 21.5t76 -0.5q33 39 78 98t95 130t99.5 147.5t87 151.5t62.5 141.5t25 115.5q0 51 -46 51q-61 0 -114 -41t-96.5 -89t-74 -89t-44.5 -41q-20 0 -32.5 18.5t-12.5 34.5q0 45 43 91t101 85t119.5 63.5t100.5 24.5q53 0 76 -37.5t23 -84.5 q0 -51 -20.5 -119t-53.5 -142.5t-74 -151.5t-84 -149.5t-83 -135t-71 -105.5q25 -12 49.5 -41t49 -58.5t47 -52t41.5 -22.5q27 0 46 27.5t35.5 59t31 59.5t26.5 28q16 0 26.5 -26.5t10.5 -39.5q0 -31 -17.5 -59.5t-43 -50t-57.5 -34.5t-60 -13q-41 0 -66.5 22.5t-47 53 t-46.5 60t-61 44.5q-18 -27 -43 -55.5t-52.5 -51t-59.5 -38t-67 -15.5q-47 0 -79.5 28.5t-32.5 77.5zM18 115q0 -12 13.5 -21.5t23.5 -9.5q14 0 34 11t38 27.5t33.5 35t21.5 30.5q-14 0 -40.5 -4t-54.5 -13t-48.5 -23.5t-20.5 -32.5z" />
<glyph unicode="3" horiz-adv-x="770" d="M109 72q0 12 10 17t20 5q41 0 82 -6t82 -6q68 0 126 21.5t101 60.5t68 95t25 124q0 66 -25 125t-63 110q-35 -25 -71 -42t-83 -17q-43 0 -59.5 19.5t-16.5 62.5q0 51 40 68.5t83 17.5q35 0 64.5 -14.5t54.5 -36.5q31 25 68.5 60.5t71.5 78.5t56.5 88t22.5 86q0 59 -61 60 q-66 0 -128.5 -20.5t-123.5 -20.5q-4 0 -14.5 1t-20.5 3t-18.5 6t-8.5 10q0 20 34 38.5t77 31t85 19.5t58 7q29 0 59.5 -6t55 -20.5t41 -38t16.5 -55.5q0 -45 -25.5 -96.5t-62.5 -100.5t-79 -91t-75 -69q47 -57 79 -125.5t32 -146.5q0 -96 -37 -167t-98.5 -118t-141 -69.5 t-165.5 -22.5q-18 0 -41 3t-44.5 10t-35.5 21.5t-14 39.5zM360 643q0 -37 37 -37q27 0 57.5 13.5t51.5 27.5q-10 8 -35 22.5t-37 14.5q-16 0 -45 -9t-29 -32z" />
<glyph unicode="4" d="M129 647q6 49 23.5 107.5t42 116t53 110.5t53.5 92q18 27 38.5 39t35 8t16.5 -23.5t-18 -54.5q-23 -37 -48.5 -83t-51 -95t-47 -97t-33.5 -91q-27 -88 -6.5 -129t63.5 -45t94 22.5t86 73.5q37 49 67.5 115.5t61.5 134t64.5 127t74.5 94.5q23 18 44.5 27.5t33.5 5.5 t11 -22.5t-23 -53.5q-37 -53 -82 -131t-92 -166t-90 -183t-77 -186.5t-52.5 -172.5t-12.5 -140q2 -27 -8 -38t-23.5 -10t-26.5 12.5t-19 29.5q-12 43 2 110.5t36.5 137t46 129t29.5 86.5q-45 -35 -95 -43t-91 10t-64.5 62.5t-15.5 113.5z" />
<glyph unicode="5" horiz-adv-x="727" d="M97 38q9 13 55 21q59 12 126.5 29.5t131 50.5t117 81t83.5 122q47 111 34 184.5t-66.5 101t-135.5 4t-168 -105.5q-45 -43 -72.5 -56t-38.5 -3t-8 37.5t19 68.5q35 84 84 171t90 145q25 33 40 37t23.5 -10.5t6 -39t-14.5 -49.5q-10 -18 -25.5 -44.5t-31.5 -54.5 t-31.5 -52.5t-23.5 -42.5q80 51 150.5 66.5t122.5 -3t81 -67.5t27 -129q-4 -98 -44 -185.5t-105.5 -155t-150.5 -111.5t-182 -56q-29 -4 -54 3t-36.5 18.5t-2.5 24.5zM335 940q-5 6 11 16.5t47 22.5t66 18q35 8 77 21.5t82 30.5q41 14 87.5 36.5t85.5 28.5q27 4 35 -2 t5.5 -17.5t-13.5 -25.5t-25 -25q-33 -25 -76 -36t-84 -21q-72 -16 -140.5 -29.5t-115.5 -19.5q-37 -4 -42 2z" />
<glyph unicode="6" horiz-adv-x="581" d="M111.5 161q-13.5 56 1.5 128q14 74 47 155.5t78 164.5t96 162t102 144.5t98.5 114.5t83.5 74q33 23 44.5 15.5t6.5 -28t-21 -47t-36 -40.5q-39 -31 -87 -70t-99 -97.5t-104.5 -143.5t-104.5 -210q8 8 29.5 22.5t51.5 30t65.5 27.5t72.5 12q84 2 139 -32 q57 -41 68.5 -103.5t-7 -130t-56 -129t-78.5 -98.5q-37 -31 -82 -53.5t-91 -27.5t-91 9.5t-80 55.5q-33 39 -46.5 95zM160 264.5q-4 -47.5 4 -82.5q16 -72 59 -93t94.5 -10t101.5 45t81 71q23 27 38 65.5t22 79.5t3 79t-21.5 63.5t-49 33.5t-80.5 -10q-47 -18 -91 -52.5 t-67 -54.5q-20 -18 -33.5 -30.5t-38.5 2.5q-18 -59 -22 -106.5z" />
<glyph unicode="7" horiz-adv-x="724" d="M203 869.5q-2 13.5 5 34t23 38.5q12 12 35 25.5t48.5 21.5t49 8t37.5 -12q16 -14 24.5 -31.5t14.5 -34t13.5 -28.5t21.5 -14q23 -4 52.5 5t62.5 25q27 43 52.5 82t51.5 66q23 23 47.5 37t51.5 10q23 -4 30.5 -15.5t4.5 -28t-15.5 -35t-30.5 -34.5q-37 -33 -77.5 -57.5 t-83.5 -46.5q-23 -41 -40.5 -81t-33.5 -75q-29 -63 -50.5 -125.5t-39.5 -128.5q49 23 85 43.5t72 48.5q37 27 58.5 25t25.5 -18.5t-9 -41t-44 -40.5q-35 -18 -90 -40t-115 -38q-14 -47 -23 -107.5t-16.5 -119t-12.5 -105.5t-13 -68q-6 -18 -18.5 -18t-23.5 12t-20.5 32.5 t-11.5 43.5q-4 55 9.5 133t43.5 172q-27 -6 -50 -11t-42 -7q-35 -4 -38 4t7 18q12 8 31 10.5t33 6.5q20 6 38.5 12t37.5 14q29 78 60.5 157t66.5 148q12 23 27.5 53.5t35.5 63.5q-63 -25 -102 -29q-43 -2 -64 43q-25 53 -63.5 40t-87.5 -50q-18 -14 -28.5 -10t-12.5 17.5z M653 942q12 10 35 25.5t43 31.5q14 12 24.5 26.5t11.5 23t-8 7.5t-36 -20q-23 -18 -39.5 -43.5t-30.5 -50.5z" />
<glyph unicode="8" horiz-adv-x="653" d="M100.5 91q-2.5 34 20.5 83q12 29 44 76t74 104.5t90 122t95 125.5q-14 53 -38 116.5t-28 119.5q-4 57 19.5 65t46.5 -26q8 -12 17.5 -37t16.5 -52.5t13 -55t12 -50.5q33 45 67 95t61.5 96.5t46 84t18.5 58.5q0 61 -43 66t-96 -21q-37 -18 -79 -47t-83 -62.5t-78 -68.5 t-66 -64q-35 -35 -45 -34t-6 20.5t18.5 47.5t30.5 44q35 33 83 67.5t97.5 62.5t92.5 47.5t65 23.5q68 14 109 7t59.5 -31.5t15.5 -61.5t-24 -80q-20 -41 -47 -87t-56.5 -93t-61 -91t-58.5 -79q12 -78 17 -157t-10 -151.5t-56 -134t-121 -102.5q-55 -29 -114.5 -35t-98.5 35 q-18 20 -20.5 54zM184.5 133q-10.5 -39 1.5 -65q16 -35 63.5 -36t110.5 42q51 33 75 87t29 115.5t-2.5 124t-17.5 113.5q-14 -18 -42.5 -52t-61.5 -74t-65.5 -85t-56 -88t-34 -82z" />
<glyph unicode="9" d="M169 24.5q5 20.5 20.5 46.5t33.5 42q39 31 87 69.5t99.5 97t104.5 143.5t104 210q-43 -41 -111.5 -68.5t-137.5 -23.5q-100 4 -146.5 70.5t-32.5 160.5q10 72 46 137.5t83 110.5q31 31 72 55.5t84 34.5t87 5t83 -34q55 -41 71.5 -101t9.5 -124.5t-29.5 -129t-45.5 -116.5 q-43 -96 -100 -190t-117.5 -176t-118 -143.5t-98.5 -88.5q-33 -23 -43 -15.5t-5 28zM259 713q1 -51 30.5 -87t101.5 -32q31 2 60.5 15.5t56.5 34t47.5 42t30.5 39.5q14 23 32.5 31t34.5 -11q23 68 24 122.5t-12.5 94t-39 62.5t-58.5 27q-74 10 -137 -32t-108 -106 q-27 -37 -45.5 -93t-17.5 -107z" />
<glyph unicode=":" horiz-adv-x="442" d="M178 55.5q8 26.5 32.5 50t57.5 27.5q29 4 37 -15.5t1 -45t-26.5 -48t-46.5 -26.5q-41 -6 -52 12.5t-3 45zM336 407.5q8 26.5 32.5 50t57.5 27.5q29 4 37 -15t1 -45t-26.5 -48.5t-46.5 -26.5q-41 -6 -52 12.5t-3 45z" />
<glyph unicode=";" horiz-adv-x="479" d="M174 -79q2 9 23 28q37 33 41 55q-23 6 -26 26.5t7 44t32.5 42t51.5 22.5q39 4 44 -27.5t-7 -66.5q-10 -31 -35.5 -57.5t-48.5 -44.5q-25 -18 -44 -26.5t-29.5 -6.5t-8.5 11zM373 407.5q8 26.5 32.5 50t57.5 27.5q29 4 37 -15t1 -45t-26.5 -48.5t-46.5 -26.5 q-41 -6 -52 12.5t-3 45z" />
<glyph unicode="&#x3c;" horiz-adv-x="507" d="M257 186.5q-11 36.5 1 67.5q10 27 45 66.5t78 79.5t85 74t66 52q14 12 28.5 17.5t21 1.5t3.5 -19.5t-24 -46.5q-23 -33 -47.5 -59.5t-49 -54t-46 -58t-35.5 -69.5q-10 -25 -8 -46.5t8 -43t15.5 -43t15.5 -48.5q4 -14 1 -29.5t-9.5 -24.5t-16.5 -10t-20 11q-14 16 -38 45 t-43.5 65t-30.5 72.5z" />
<glyph unicode="=" horiz-adv-x="825" d="M112.5 165q-1.5 13 13.5 28.5t44 26.5t63 5q74 -12 139.5 -17t128 -5t128 6t143.5 14q31 2 44 -5t13 -17.5t-10 -19.5t-24 -9q-168 -8 -333 -15t-319 -5q-29 0 -30.5 13zM196.5 392.5q-1.5 13.5 13.5 28.5t45 26.5t62 5.5q74 -12 139.5 -17.5t129 -5.5t129 6t141.5 15 q31 2 44 -5.5t13 -17.5t-10 -19.5t-22 -9.5q-170 -8 -335 -15t-319 -5q-29 0 -30.5 13.5z" />
<glyph unicode="&#x3e;" horiz-adv-x="411" d="M159 14.5q3 14.5 23 44.5q20 33 46 60.5t50.5 54.5t46 57.5t35.5 69.5q8 25 7.5 46.5t-7 43t-15.5 43t-15 47.5q-4 14 -1 29.5t9 25t16.5 11.5t20.5 -10q14 -16 37.5 -46t43 -65t31 -72t-1.5 -67q-10 -29 -44.5 -69t-78 -80t-85 -73.5t-66.5 -52.5q-16 -10 -29.5 -15 t-19.5 -1t-3 18.5z" />
<glyph unicode="?" horiz-adv-x="747" d="M199.5 84.5q4.5 33.5 29.5 56.5q20 20 39 10t29 -34.5t8 -55t-20 -49.5q-29 -29 -50.5 -21.5t-30.5 34t-4.5 60zM213 313q10 86 69.5 167t140.5 158t169 149.5t156 142.5q68 72 81 122t-10 76q-31 37 -80 34t-102 -24.5t-101.5 -53t-76.5 -54.5q-23 -18 -36 -34.5 t-17 -34.5q-4 -20 -26 -33t-39 -11.5t-16 19.5t42 59q20 20 63 53t95.5 66t108.5 56.5t106.5 23.5t87 -29.5t49.5 -105.5q10 -51 -24 -114.5t-91 -131.5q-39 -47 -94.5 -89t-112.5 -82t-112.5 -80t-96.5 -83t-62.5 -92t-9.5 -106q6 -37 -4 -58.5t-25.5 -21.5t-26.5 26.5 t-5 85.5z" />
<glyph unicode="@" horiz-adv-x="1144" d="M171 145.5q-9 77.5 8.5 155.5t59.5 152.5t103 138.5q86 86 204 139t263 55q94 0 170 -24.5t132 -66.5t89 -98t41 -120q10 -76 -14.5 -142.5t-70.5 -120.5t-108.5 -96t-125.5 -67q-16 -53 -32 -94t-38 -45q-16 -4 -24.5 6t-9.5 27.5t3 40t10 45.5q-63 -18 -133.5 -22.5 t-136.5 7.5q-55 10 -103 33t-77 64q-33 43 -26 81.5t35 69.5t70 51.5t79 28.5q55 10 107 -1t96 -41t79 -72t56 -93q12 31 22 70t15.5 80t4.5 80t-10 71q-20 80 -89.5 99.5t-184.5 -35.5q-20 -10 -32.5 -8t-15.5 11t3 20.5t22 19.5q61 33 116.5 37t100.5 -16.5t78 -58.5 t51 -87q27 -70 19 -139.5t-25 -141.5q49 16 95.5 50t82 78t55 96.5t17.5 107.5t-27.5 105.5t-71.5 89.5t-112.5 63.5t-148.5 30.5q-150 10 -268.5 -39t-200.5 -135q-55 -59 -93 -128t-53.5 -141.5t-10.5 -144.5t36 -135q53 -109 177 -174.5t335 -52.5q37 2 45 -9.5t-8.5 -24 t-57.5 -21.5t-98 -1q-168 23 -272.5 88.5t-155.5 157.5q-37 68 -46 145.5zM421 192.5q1 -32.5 23.5 -59.5t70.5 -43t124 -14q47 2 97 11t91 19q-6 49 -29.5 92.5t-58 73t-80 45t-94.5 11.5q-45 -4 -77.5 -24.5t-50 -49.5t-16.5 -61.5z" />
<glyph unicode="A" horiz-adv-x="931" d="M111 -86q6 39 28.5 102.5t58 143.5t76.5 162q29 59 74 144t100.5 177t119 184.5t132 168t138 125.5t139.5 61q6 1 12 1q18 -1 28 -11q13 -14 18 -38t2 -60t-7 -77q-10 -96 -35.5 -215.5t-54.5 -244.5q29 -2 61.5 -2h63.5q41 2 73.5 2t51.5 -11q6 -3 6 -6q0 -6 -24 -14 q-36 -12 -101 -27q-31 -6 -69.5 -13t-83.5 -15q-23 -84 -44.5 -162t-39.5 -144q-10 -39 -20 -70.5t-23 -51t-27 -23.5t-33 14q-12 12 -13 51v7q0 36 9 82q10 72 28.5 140t37.5 138q-67 -6 -132 -6h-32q-80 2 -137 29q-10 4 -20.5 13t-16.5 21.5t-8.5 24.5t8.5 23 q10 12 28.5 15t40.5 3q76 0 151 -5t150 -9q35 113 68 223t55 225q12 70 14.5 114t-12.5 36q-80 -37 -145.5 -90.5t-120.5 -116t-102 -131t-90 -137.5q-76 -121 -140.5 -246t-111.5 -248q-25 -66 -40.5 -120t-26.5 -93t-21 -60.5t-27 -21.5q-15 0 -15 23q0 7 1 16z" />
<glyph unicode="B" horiz-adv-x="944" d="M16 58q-2 7 -2 13q0 16 15 27q12 10 34.5 -13.5t57.5 -57.5q53 -53 128 -86t157 -43q36 -5 72 -4q26 0 54 2q64 6 119.5 27.5t99.5 59t68 91.5q29 60 30 122v6q1 58 -19 112q-20 56 -60.5 103.5t-95.5 80.5q-29 16 -58.5 27.5t-62.5 15.5q-55 -111 -108.5 -221.5 t-108.5 -221.5q-2 -4 -7 -13t-11 -18.5t-13.5 -13.5t-13.5 0q-6 6 -3 20.5t9 31t13 33t12 24.5q43 92 83.5 185t81.5 188q-14 -4 -26 -11.5t-25 -11.5q-25 -10 -50 -10l-28 3q-39 9 -41 62q0 29 8.5 45.5t20.5 26.5q18 12 42 14t49.5 -1t50 -8t42.5 -7q41 92 84 190.5 t86 198.5q8 16 24.5 30.5t37.5 14.5q29 0 39 -21.5t-4 -45.5q-53 -94 -100.5 -184.5t-94.5 -182.5q59 4 113.5 26.5t99.5 63.5q61 53 89 105q29 53 29 101q-1 44 -23 82q-24 40 -62 72q-49 39 -114.5 67t-137.5 41t-143.5 13t-133.5 -14q-35 -8 -50 -18.5t-46 -10.5 q-31 -2 -39 4.5t21 20.5q51 23 119 32q55 7 113 7h26q72 -2 139.5 -13.5t118.5 -29.5q66 -23 121 -55.5t96 -73.5q58 -59 72 -138q3 -15 3 -31q0 -66 -46 -140q-47 -76 -130 -114t-167 -52q86 -14 147.5 -63.5t94 -118t32.5 -149.5t-39 -157q-31 -61 -85 -105t-122 -71 q-109 -41 -228 -45h-23q-107 0 -207 33q-59 18 -107.5 44.5t-78.5 55t-38 52.5zM358 567.5q0 -10.5 8 -18.5q6 -6 13 -6h4q20 4 37 20.5t33 20.5q-20 10 -47 10t-37.5 -8t-10.5 -18.5z" />
<glyph unicode="C" horiz-adv-x="907" d="M127 154q-2 20 -2 42q0 94 43 202q53 132 142 261t195.5 239t199.5 175q59 43 123.5 68.5t136.5 29.5h16q81 -1 111 -39q28 -36 28 -87v-19q-2 -31 -12 -64.5t-25.5 -67.5t-37 -61.5t-46.5 -46.5q-25 -18 -46 -21t-28 4t6 26.5t58 48.5q41 27 71 82t34 107v13 q0 44 -24 73q-19 23 -58 23q-18 0 -41 -5q-96 -23 -172 -82.5t-144 -128.5q-29 -29 -76 -86.5t-99 -131t-104 -157.5t-92 -166q-40 -81 -60 -157q-13 -48 -13 -88q0 -22 4 -44q11 -56 61 -90q44 -29 129 -30q10 0 21 1q70 2 140.5 32t133 70t115.5 81t90 67q39 29 50.5 28 t6 -16.5t-22.5 -38t-36 -36.5q-37 -29 -96 -65t-129 -69.5t-144.5 -58t-144.5 -28.5q-13 -1 -26 -1q-47 0 -83 12q-46 15 -78 44t-50.5 68.5t-24.5 87.5z" />
<glyph unicode="D" horiz-adv-x="907" d="M-186 -59q0 16 6 22t16 8t23.5 0t27.5 -2h45q107 -1 212 7q126 10 255 34q193 39 335.5 130t244.5 270q55 96 57 183v10q0 81 -32 151q-34 74 -99 131t-145 98q-88 43 -184 63q-69 15 -136 15q-26 0 -51 -2q-23 -2 -45 -1t-39.5 5t-26 15.5t0.5 31.5q10 25 39.5 37 t70.5 16q18 2 37 1q47 0 97 -10q71 -15 139.5 -43t131 -65.5t107.5 -76.5q55 -47 96 -105t61 -126q14 -50 14 -105q0 -20 -2 -40q-7 -77 -48 -161q-57 -117 -144 -205t-192 -149q-135 -82 -294.5 -125t-317.5 -51q-28 -1 -53 -1q-70 0 -121 8q-70 11 -86 32zM364 150 q-1 4 0 10q0 10 2 24q4 22 15 43q41 98 82 196.5t78 197.5q29 74 53 142t43 134q11 45 29 55q8 5 15 5q9 1 17 -7q14 -14 19 -44q3 -13 3 -25q0 -18 -5 -37q-23 -86 -71 -202.5t-103 -229.5q-35 -70 -69 -131.5t-64 -108.5q-20 -31 -30 -33h-3q-9 0 -11 11z" />
<glyph unicode="E" horiz-adv-x="694" d="M7 536q1 18 21 38q22 20 74 32q72 16 135.5 27.5t127.5 19.5q47 78 85.5 149.5t69.5 158.5q27 68 37 67q4 -10 4 -25q0 -20 -8 -48q-14 -48 -43 -111q-23 -47 -48.5 -94.5t-49.5 -94.5q70 8 137 8h27q80 -2 163 -6q64 -3 64 -15q-1 -2 -3 -5q-16 -16 -95 -21 q-86 -4 -173.5 -20t-173.5 -33q-45 -78 -90 -151.5t-78.5 -134t-52 -102.5t-12.5 -54q137 68 274.5 83t286.5 19q45 2 62.5 -5t14.5 -18.5t-22.5 -24.5t-48.5 -21q-59 -20 -113.5 -24.5t-107.5 -7.5t-108.5 -14.5t-114.5 -46.5q-98 -57 -160 -68q-20 -4 -34 -4q-29 0 -34 15 q-2 8 -2 18q0 26 16 67q22 56 62.5 129t95 159t109.5 174q-61 -12 -117.5 -25.5t-103.5 -23.5q-32 -6 -52 4q-22 10 -21 30zM125 1080q1 14 19 26q20 14 57 22q70 16 171 20q83 4 171 4h39q110 -1 212.5 -7t174.5 -12q6 0 23.5 -1.5t37 -3.5t35.5 -7t18 -13v-2 q0 -16 -61 -23q-53 -3 -136 -3h-43.5h-45.5q-92 0 -191 -3q-94 -4 -184 -24.5t-182 -36.5q-14 -2 -26 -2q-27 0 -51 9q-38 15 -38 57z" />
<glyph unicode="F" horiz-adv-x="618" d="M126 546q0 16 22 36t75 32q70 16 133.5 28.5t126.5 19.5q47 80 89 161.5t77 169.5q14 35 24.5 38t4.5 -38q-2 -18 -20.5 -65t-41 -101.5t-47.5 -100.5t-39 -60q82 0 163 2q27 1 54 1q54 0 109 -3q66 -3 66 -15q0 -3 -2 -5q-16 -16 -95 -19q-33 -2 -78 -8.5t-93 -13.5 t-95 -16t-82 -16q-80 -135 -138 -270t-128 -266q-17 -35 -39 -44q-4 -2 -9 -2q-16 0 -24 29q-2 8 -2 17q1 27 17 67q22 54 62 126.5t94.5 157.5t109.5 173q-121 -29 -223 -47q-31 -6 -51 4q-20 11 -20 28zM242 1083.5q0 18.5 28 32.5q33 14 92.5 23.5t127 12.5t133 3h108.5 q68 0 134.5 -2t125 -5t107.5 -6t84 -6q72 -6 80 -20v-6q-4 -8 -33 -15.5t-80 -9.5q-56 -2 -112 -2q-42 0 -85 1t-86 1q-57 0 -114 -2q-102 -6 -199 -27.5t-197 -35.5q-8 -1 -17 -1q-19 0 -37 6q-28 9 -44 24.5t-16 34z" />
<glyph unicode="G" horiz-adv-x="915" d="M92 262q10 80 40 159t63 138q51 90 111.5 177t133 162t158.5 132t188 88q39 12 96 18q18 1 36 1q37 0 73 -7q53 -12 94.5 -41.5t49.5 -84.5q16 57 36.5 68t22.5 -25q0 -18 -4 -42t-10 -48.5t-13.5 -46t-11.5 -33.5q-12 -43 -35.5 -68t-43 -30t-31 10.5t1.5 52.5 q8 27 23 59.5t20 64.5q2 9 2 17q0 24 -12 46q-15 30 -64 48q-34 13 -71 13q-47 0 -99 -20q-94 -36 -191.5 -110.5t-190.5 -180t-165 -215t-115 -214.5q-41 -101 -41 -175v-7q2 -57 17.5 -94t42 -58.5t60.5 -27.5q20 -4 42 -4q14 0 29 2q78 10 136 41.5t104.5 79t82 105.5 t66.5 122q18 37 22.5 51t2.5 16q-2 0 -8.5 -5t-15.5 -8t-18.5 0t-15.5 20q-10 23 8.5 42t47 31.5t60.5 16.5t50 -2q47 -18 64 -77q13 -47 13 -107q0 -14 -1 -29q-6 -154 -53.5 -274t-161.5 -218q-63 -53 -134 -91t-137 -52q-25 -5 -41 -5q-29 0 -29 16q0 26 70 48 q31 10 72 24.5t84 34t86 48t82 65.5q86 84 116 193q20 75 20 152q0 37 -5 75q-4 33 -10 59.5t-13.5 41t-15.5 15.5t-14 -18q-14 -47 -46 -104t-76 -111.5t-98.5 -101.5t-111.5 -76q-86 -41 -173 -47q-9 -1 -18 -1q-77 0 -151 48q-59 39 -76 108q-10 44 -10 91q0 29 4 59z " />
<glyph unicode="H" horiz-adv-x="886" d="M50 488q-4 8 -4 16q0 10 8 20q12 16 59 19q76 2 153.5 7.5t155.5 16.5q23 78 42 157t32 161q6 43 20 79.5t25.5 50t14.5 -4.5q1 -3 1 -7q0 -21 -12 -75q-20 -96 -42 -183.5t-44 -173.5q104 12 206.5 27.5t200.5 36.5q55 147 116.5 289.5t127.5 283.5q45 96 70.5 166 t48.5 80q4 2 7 2q9 0 10 -15q0 -5 -1 -9q-4 -30 -17.5 -69.5t-28.5 -75.5t-17 -38q-72 -168 -129.5 -315.5t-102.5 -284.5q61 10 119.5 22.5t114.5 22.5q39 8 47 5t-5.5 -11t-45 -20.5t-72.5 -24.5q-45 -14 -90 -27.5t-86 -25.5q-55 -168 -92 -327t-60 -333q-4 -20 -7 -54 t-12 -64q-9 -32 -25 -50q-10 -12 -24 -12q-8 0 -16 4q-18 6 -25 28.5t-5 54.5t8 73t14 86q25 147 64 287.5t90 281.5q-100 -27 -203.5 -49t-208.5 -39q-29 -92 -57.5 -184t-63.5 -195q-6 -16 -18 -61t-28.5 -91t-36 -79t-38.5 -25q-25 10 -36 41q-4 11 -4 22q0 23 14 50 q59 117 117.5 247t109.5 267q-66 -10 -130 -16.5t-130 -12.5q-23 -2 -46.5 13t-32.5 35z" />
<glyph unicode="I" horiz-adv-x="317" d="M83 -98q-2 5 -2 12q0 20 15 55q27 61 65 167t82 231t88 256t81 246.5t64.5 201.5t35.5 119q14 55 26 61q2 1 4 1q8 0 13 -18q5 -20 5 -54v-12q-1 -42 -9 -81q-10 -45 -32.5 -130t-52.5 -190t-65.5 -222t-71.5 -227.5t-72 -206t-64 -156.5q-14 -31 -39 -51 q-24 -19 -44 -20h-2q-18 -1 -25 18z" />
<glyph unicode="J" horiz-adv-x="692" d="M79 68q5 38 19 69q16 35 36 48.5t35 9t22 -25.5t-3 -54q-10 -35 -14 -83q-1 -10 -1 -20q0 -37 11 -69q15 -41 55 -63q22 -11 55 -11q27 0 62 8q76 18 127.5 68.5t83 113t47 129t21.5 115.5q6 70 7 141.5t2 141t6 135t20 121.5q16 70 51 130t94 101q-100 -16 -191.5 -69.5 t-154.5 -159.5q-29 -49 -44 -51t-19.5 17t0 47t14.5 36q45 39 106.5 80t132 76.5t148.5 63.5t158 40q29 4 48 4q16 0 25 -3q12 -5 12 -14q0 -4 -2 -8q-8 -16 -30.5 -36.5t-48 -39t-46 -31.5t-22.5 -15q-74 -63 -105.5 -124t-43 -128.5t-13.5 -148.5t-14 -185 q-6 -49 -17.5 -110.5t-31 -124t-49 -123t-74.5 -107.5q-49 -53 -125 -85t-150 -33h-4q-71 0 -126 33q-56 34 -68 114q-3 22 -3 44q0 18 2 36z" />
<glyph unicode="K" horiz-adv-x="669" d="M51 455q0 41 43 72.5t102.5 53t119.5 31.5q50 9 82 9h12q6 14 21 53t35.5 88t43 100t45.5 90q18 33 32.5 52.5t24.5 19.5q20 0 23.5 -21.5t-1.5 -48t-14.5 -51t-11.5 -31.5q-12 -35 -25.5 -70.5t-26.5 -68.5t-25.5 -60.5t-18.5 -43.5q94 35 176 88t156 115.5t142.5 133 t135.5 140.5q2 2 11.5 10t20.5 18.5t23.5 18.5t22.5 10q5 1 9 1q15 0 15 -20q0 -19 -10 -30q-14 -18 -37.5 -35.5t-33.5 -25.5q-68 -51 -143.5 -118t-153.5 -132.5t-158 -122.5t-156 -88q51 -23 84 -56.5t53.5 -76.5t29 -91.5t8.5 -99.5q0 -78 -9.5 -152.5t-9.5 -152.5 q0 -39 9.5 -84t52.5 -61q8 -4 29.5 -6t44 -6.5t39 -10.5t16.5 -18q0 -23 -20.5 -30t-37.5 -7q-45 0 -75.5 18.5t-50 47t-29 66.5t-9.5 75q0 78 14.5 155.5t14.5 155.5q0 215 -215 262q-25 -63 -53.5 -137t-63.5 -145.5t-78 -137t-94 -110.5q-6 -4 -14 -10.5t-16.5 -10.5 t-15.5 -2t-11 13q-6 14 -3 34.5t10 43t15.5 43t14.5 32.5q43 96 99 182t99 183q-29 -12 -61.5 -26.5t-66 -29t-67.5 -23.5t-65 -9q-49 0 -49 45zM152 469q0 -4 6 -4t20 4q26 8 61 21.5t67 29t44 23.5q-18 0 -66 -8.5t-85 -24.5q-47 -16 -47 -41z" />
<glyph unicode="L" horiz-adv-x="804" d="M-29 -102q-7 8 -7 22t8 34q14 40 37.5 84t50 82t36.5 52q106 131 173 240.5t113 216t80 223.5t77 264q19 72 39 81q5 2 10 2q12 -1 22 -19q12 -26 15 -73v-11q0 -42 -11 -78q-31 -104 -90 -229t-118 -254q-14 -29 -41 -75t-61 -100.5t-68.5 -110.5t-63.5 -106.5 t-48.5 -90.5t-21.5 -58q41 39 98.5 56.5t121.5 23.5q54 5 111 5h19h43q43 0 85 1q62 2 113.5 10t86.5 33q23 14 46 10q24 -3 32 -19q3 -5 3 -11q-1 -11 -13 -27q-18 -22 -76 -43q-56 -19 -106 -19h-8q-46 0 -89 6q-47 6 -93 14.5t-97 8.5t-107.5 -15.5t-124.5 -54.5 q-20 -12 -39.5 -36.5t-41.5 -44.5q-20 -19 -44 -22h-5q-21 0 -46 28z" />
<glyph unicode="M" horiz-adv-x="937" d="M66 -2q12 76 40.5 173t62.5 203.5t68.5 212t57.5 197.5q10 43 12 79q1 24 1 47v23q-1 33 -2 69v11q0 31 5 66q4 27 16.5 44.5t27 22.5t24.5 -3t10 -33q0 -41 -8 -102.5t-14 -106.5q12 27 24 76t31.5 92t49.5 69q20 17 47 17q14 0 30 -4q31 -10 46 -34.5t22.5 -57.5 t11.5 -69t12 -66.5t23.5 -54t46.5 -29.5q20 -5 38 -5q19 0 35 6q30 11 56 34.5t47.5 57.5t44.5 68q8 14 22.5 38t34 50.5t43 49t49.5 35.5q20 9 35 9q26 -1 36 -25q13 -29 13 -76q0 -16 -2 -34q-6 -72 -28.5 -163.5t-47 -173.5t-45 -140.5t-22.5 -64.5 q-35 -100 -60.5 -199.5t-33.5 -204.5q-6 -72 -34 -126t-56 -78q-18 -16 -31 -16q-9 0 -15 4q-11 8 -11 36q0 18 5 43q10 51 34 125t54.5 159t65.5 176t67.5 179t58.5 168t40 143q10 46 10 71q0 12 -2 18q-6 22 -26.5 15t-49 -36t-61.5 -63q-23 -25 -50.5 -46.5t-61.5 -37 t-76 -21.5q-18 -3 -38 -3q-26 0 -55 5q-37 6 -61.5 21.5t-42 35t-28.5 43t-17 44.5q-15 48 -37 48q-4 0 -8 -1q-29 -10 -59.5 -52.5t-58.5 -95.5t-49.5 -105.5t-31.5 -78.5q-33 -86 -53.5 -178t-33.5 -186.5t-24.5 -188.5t-27.5 -182q-6 -41 -24 -51q-8 -4 -16 -4l-22 8 q-18 12 -30 40q-7 17 -7 37q0 13 3 27z" />
<glyph unicode="N" horiz-adv-x="851" d="M74 -30q-2 12 -2 25q0 30 12 66q39 106 88 243.5t95 283t84 291t55 272.5q4 27 15 40t21.5 13t17.5 -13t5 -44q-2 -29 -9 -58.5t-13.5 -55t-10.5 -43t-2 -21.5q23 29 41 59.5t37 54.5q29 35 60.5 71t56.5 44q20 6 37 5q37 -1 59 -27q33 -40 44 -116q8 -56 9 -128 q0 -26 -2 -54q-4 -104 -15.5 -216.5t-24.5 -222t-19 -195.5q-3 -43 -3 -78q0 -36 3 -62q6 -54 32 -53q20 0 49 72t63 182.5t70 245.5t69.5 263t63.5 231.5t50 152.5q12 27 26 28h1q12 0 20 -14q7 -13 7 -33v-5q-1 -24 -15 -46q-37 -51 -73 -160.5t-72.5 -244.5t-74.5 -279.5 t-77 -262.5t-79 -193.5t-81 -75.5q-43 0 -62.5 49t-23.5 129q-1 27 -1 56q0 60 5 128q8 104 20.5 211t25 211.5t17.5 188.5q2 42 2.5 76.5t-2.5 60.5q-5 53 -30 61q-14 4 -28 4q-45 0 -89 -45q-58 -59 -107.5 -161.5t-93.5 -233.5t-77 -259t-54.5 -236.5t-27.5 -165.5 q-6 -54 -26 -68q-10 -7 -21 -7t-19 7q-18 14 -26 52z" />
<glyph unicode="O" horiz-adv-x="772" d="M207 312q6 87 16 149q23 125 65 238.5t85 185.5q-4 12 -5 31.5t13 37.5q27 35 57.5 74t71.5 74q74 66 162 90q45 13 93 13q45 0 93 -11q82 -18 114 -101q26 -67 26 -157q0 -21 -2 -44q-8 -118 -47.5 -257t-100.5 -270q-27 -55 -75 -138.5t-110.5 -158t-136.5 -121.5 q-56 -35 -114 -35q-20 0 -39 4q-76 14 -113 78.5t-48 147.5q-7 54 -7 109q0 30 2 61zM274 194q-3 -30 -2 -58q0 -40 6 -72q10 -56 36 -84q19 -20 48 -20q13 0 27 3q61 14 119.5 69.5t109 126t91.5 145.5t65 128q55 119 95 243q41 125 55 227q7 48 6 88q0 46 -8 84 q-16 70 -72 83q-24 6 -48 6q-17 0 -33 -3q-40 -7 -79 -25q-27 -12 -63.5 -41t-70.5 -63t-57.5 -69.5t-23.5 -64.5q16 -10 20.5 -27.5t-6.5 -33.5q-10 -16 -24 -35t-25 -33q-16 -23 -35.5 -67t-39 -100t-38 -121.5t-30.5 -131.5q-17 -80 -23 -154z" />
<glyph unicode="P" horiz-adv-x="638" d="M70 1182q-3 4 -4 8q0 8 8 16q12 14 53 25q74 23 157 27l60 2q51 0 100 -5q59 -6 118 -18t112 -35q96 -41 156 -116q62 -76 82 -166q10 -42 9 -84q-1 -49 -13 -99q-24 -94 -93 -174q-27 -29 -62.5 -52.5t-76.5 -36.5t-83 -16q-10 -1 -19 -1q-32 0 -62 8q-33 8 -37 19.5 t7.5 20.5t29.5 14t33 5q18 0 32.5 -7t32.5 -9q13 -2 25 -2q51 0 95 28q54 34 90 90t52 122q9 40 9 77q0 23 -4 45q-20 98 -93 181.5t-202 117.5q-68 18 -137 18q-1 -1 -3 -1q-70 0 -141 -6q-39 -4 -76 -7.5t-73 -7.5q-29 -2 -51.5 3.5t-30.5 15.5zM163 -34q3 34 12 70t26 62 q29 49 54.5 100.5t49.5 104.5q78 170 134.5 347t109.5 358q12 39 21 39q8 1 11 -19q2 -15 2 -38v-16q-1 -34 -10 -63q-23 -78 -41 -148.5t-38 -139.5q-53 -180 -119 -352.5t-144 -342.5q-21 -45 -35 -57q-8 -7 -13 -7t-9 5q-8 11 -11 37q-2 13 -2 28t2 32z" />
<glyph unicode="Q" horiz-adv-x="786" d="M139 179v85q0 68 13.5 140.5t38 147.5t57.5 149.5t71 142.5q29 49 76 117.5t105.5 127t125.5 95.5q49 26 98 26q20 0 40 -4q66 -12 106.5 -56t61 -105.5t23.5 -134.5q1 -23 1 -44q0 -52 -5 -102q-7 -72 -21.5 -138.5t-28.5 -113.5q-27 -82 -63.5 -159t-83.5 -146 q12 -74 19 -147.5t11 -135.5q3 -40 3 -73q0 -16 -1 -30q-2 -42 -8 -48q-17 -16 -32 -16q-13 0 -24 13q-22 27 -22 70q0 57 -8 125t-18 139q-47 -49 -101 -89.5t-120 -63.5q-68 -24 -122 -24q-52 0 -91 22q-41 23 -62.5 60.5t-30 80.5t-8.5 89zM188 192v-33q0 -62 14 -107 q17 -56 59 -80q22 -12 51 -12q28 0 63 11q43 14 83 41t75.5 60.5t65.5 72.5t54 76q-18 104 -31 183q-9 50 -9 77q0 16 3 25q8 25 20.5 21.5t25 -19.5t23.5 -39t15 -37q6 -16 12.5 -36.5t10.5 -43.5q41 90 72.5 188.5t50 192.5t22.5 177q1 22 1 43q0 56 -8 101q-11 60 -42 91 q-23 23 -56 23q-11 0 -24 -3q-61 -14 -117.5 -59t-105.5 -103.5t-88 -122t-66 -114.5q-49 -96 -86.5 -198.5t-60 -198t-27.5 -177.5z" />
<glyph unicode="R" d="M-80 1206q0 14 33 25.5t78 21.5q94 19 186 19q46 0 92 -4q137 -14 266 -88q90 -53 148.5 -135t58.5 -201q0 -129 -73.5 -224.5t-196.5 -130.5q39 -47 68.5 -97t42.5 -109q12 -61 16 -130t16.5 -131.5t44 -117t99.5 -88.5q39 -22 86 -22h4q49 1 96 1h11.5t17.5 -2t14 -6 q4 -2 4 -6q0 -3 -2 -6q-4 -25 -29.5 -31t-46.5 -6q-113 0 -176 37t-96 98t-45 141t-23 168q-6 49 -14 89t-23.5 75t-40 66.5t-63.5 64.5l-29 -8q-35 -104 -73 -209q-4 -10 -14.5 -40t-26 -68.5t-33.5 -80.5t-35.5 -78t-32 -58.5t-24.5 -22.5q-8 0 -13.5 9t-7.5 21.5t-2 23.5 v16q0 63 15.5 107t40.5 89q78 135 139 285q-28 -3 -64 -3h-18q-47 1 -92 13t-76 38t-31 73q0 45 42 57q28 8 62 8q18 0 36 -2q56 -6 109.5 -24.5t78.5 -34.5q37 100 67.5 200.5t65.5 202.5q0 2 7 21.5t14 19.5q6 0 7 -16.5t1 -18.5q0 -35 -13.5 -95t-33 -125.5t-39 -128 t-31.5 -99.5l31 -37q51 12 95 41t75.5 70t50 91t18.5 103q0 88 -49 160t-123 121q-74 51 -145.5 71.5t-141.5 24.5q-31 2 -64 2q-40 0 -82 -3q-75 -5 -154 -5h-14.5t-21 2t-17.5 6t-7 10zM174 559q0 -20 26.5 -34.5t61.5 -22.5t71 -10q16 -1 29 -1q15 0 25 1l10 30 q-35 29 -80 42.5t-88 13.5q-10 0 -32.5 -2.5t-22.5 -16.5z" />
<glyph unicode="S" horiz-adv-x="561" d="M59 221.5q0 65.5 7.5 121.5t13.5 85q14 61 30.5 71.5t26.5 -4t11.5 -41t-15.5 -40.5q-27 -25 -33 -86q-6 -38 -8 -100v-22q0 -50 8 -100q10 -60 35 -107.5t74 -53.5q4 0 7 -1q35 0 69 36q37 40 65 141q29 104 50.5 210.5t44 211t52 209t72.5 206.5q23 53 50.5 102.5 t56.5 90.5q18 25 46 51.5t60.5 46t68.5 29.5q18 5 35.5 5t33.5 -5q41 -12 47 -60q2 -13 1 -27q0 -37 -12 -78q-16 -56 -50 -109.5t-75 -77.5q-47 -29 -57 -23t-3 25.5t25.5 46t30.5 41.5q71 84 85 144q6 24 5 43q-1 27 -13 43q-13 14 -33 14q-15 0 -33 -8q-45 -18 -93 -87 q-41 -59 -75.5 -148t-63.5 -188q-12 -41 -24.5 -117.5t-29.5 -169.5t-38.5 -193.5t-51.5 -186.5t-69 -148.5t-88 -83.5q-49 -20 -86 -20q-21 0 -38 6q-48 18 -74.5 64.5t-37 111t-10.5 130z" />
<glyph unicode="T" horiz-adv-x="579" d="M236 1086q-5 3 -4 6q0 5 10 11q18 9 58 15t87 6q66 -2 127.5 -2t118.5 2q115 4 218 10.5t200.5 10.5t195.5 4q49 -1 67 -15q14 -11 14 -24q0 -4 -1 -10q-6 -20 -31.5 -39t-64.5 -27q-14 -4 -54 -3t-91.5 4t-107.5 8.5t-104.5 9.5t-80 5t-33.5 -1q-53 -74 -90 -171.5 t-67 -204t-55.5 -217t-53 -215t-62.5 -195.5t-82 -158q-19 -25 -32 -25q-3 0 -5 1q-14 7 -20 31.5t-4 57.5t10 55q6 20 39 105.5t77 201t94 245.5t91 241q40 111 66 183q24 67 24 74q0 5 -45 6q-39 1 -96 1h-123t-125 2q-53 3 -65 11z" />
<glyph unicode="U" horiz-adv-x="864" d="M163 200q3 100 40 218.5t86 230t100 206.5t84 153q25 45 45.5 60t30.5 9t8 -29.5t-22 -54.5q-53 -84 -108.5 -185t-101.5 -206.5t-79 -207t-41 -186.5q-2 -23 -2 -44q-1 -58 15 -102q22 -60 83 -82q24 -9 49 -10q36 0 72 20q62 33 124 102.5t123.5 167.5t119 209 t109.5 226.5t98 219t83 186.5t64 130q13 27 33 34q10 4 20 4q8 0 16 -3q16 -6 22 -24q3 -7 3 -15q0 -12 -6 -27q-47 -98 -111.5 -229t-130 -269.5t-123 -271.5t-90.5 -237q-12 -41 -12 -78q0 -17 2 -33q8 -52 31 -86q8 -14 23.5 -32.5t17.5 -33.5q0 -19 -24 -19q-16 0 -44 9 q-23 6 -41 24.5t-31.5 41t-22.5 44t-9 36.5q-37 -35 -70 -66t-70 -52.5t-81 -27.5q-13 -2 -28 -2q-34 0 -75 10q-104 24 -143 98q-36 68 -36 160v14z" />
<glyph unicode="V" horiz-adv-x="518" d="M204 173q6 83 28 164t52.5 159.5t57.5 159.5t42 165q10 55 10 112q0 31 -3 62q-2 16 -6 44t-4 45.5t8 15.5t31 -43q17 -31 18 -79q0 -16 -2 -34q-8 -72 -30.5 -160t-53 -182t-55.5 -179t-37 -153q-5 -29 -6 -53q0 -31 10 -51q31 76 85 167t121 186t142.5 189.5 t148.5 178.5t139.5 151.5t117.5 108.5q80 63 123 90q37 23 52 23h4q6 -2 6 -10t-8 -24q-15 -28 -54 -73q-68 -80 -153 -168t-173 -182t-175 -194.5t-157.5 -205t-120 -212t-63.5 -216.5q-1 -14 -13 -16q-3 -1 -7 -1q-9 0 -18 4q-13 5 -25.5 16.5t-14.5 23.5q-19 71 -19 139z " />
<glyph unicode="W" horiz-adv-x="1071" d="M111 120q2 64 9 122.5t11 83.5q14 66 38 151.5t56.5 180t72.5 190.5t87 182t100.5 154.5t110.5 107.5q6 4 11 4t9 -4q8 -8 7.5 -23.5t-9 -31.5t-24.5 -25q-37 -18 -81 -71.5t-90 -131t-90 -174t-82 -197.5t-64.5 -201.5t-35.5 -188.5q-2 -18 -3 -53q0 -8 -1 -16 q-1 -28 3 -56q4 -37 11 -70t21.5 -49t36 -10t53.5 49q35 45 79 119t92 159t97.5 174t92.5 165.5t77.5 135t55.5 83.5q35 40 53 40q3 1 5 -1q18 -8 19 -42v-5q-1 -31 -11 -70q-12 -43 -29 -66q-61 -82 -118.5 -186.5t-88.5 -199.5q-25 -78 -25 -139q0 -14 1 -28q7 -72 75 -86 q5 -1 9 -1q29 0 74 40q52 47 113.5 125t127 174t126 189.5t109.5 171t78 116.5q27 39 36 37q7 -2 7 -16v-8q-2 -22 -10 -49t-15 -41q-25 -63 -72.5 -157.5t-111 -196t-136.5 -198t-144 -166.5q-72 -68 -138 -98q-32 -15 -60 -15q-29 0 -54 15q-27 16 -35 58q-7 38 -7 81v11 q1 49 7 95t8 71q-8 -6 -34.5 -48t-62.5 -100.5t-78 -120t-85 -106.5t-83 -61q-13 -5 -25 -6q-25 0 -44 24q-23 25 -29 82q-4 42 -4 88q0 17 1 34z" />
<glyph unicode="X" horiz-adv-x="610" d="M-32 98q22 47 57 74q131 102 266 219t256 236q2 81 4 155q1 50 1 95v45q-1 66 -7 119t-19 87q-8 20 2 60q11 40 25 62q11 18 22 17q3 0 5 -1q12 -5 12 -57v-17q-2 -117 -4 -252t-2 -276q109 106 194.5 201.5t134.5 160.5q29 39 43.5 46t17.5 -5q1 -3 1 -9q0 -10 -4 -28 q-6 -26 -16.5 -55t-23.5 -54.5t-26 -35.5q-68 -66 -150.5 -146t-170.5 -170q0 -68 2 -141.5t4 -145t4 -136t4 -113.5q0 -8 -10 -49t-26 -77t-32 -49q-3 -3 -6 -3q-12 0 -20 39q-2 15 -2 44q0 22 1 51q3 68 10 157.5t15.5 188.5t12.5 189q-129 -129 -260 -262t-246 -248 q-42 -44 -64 -44q-5 0 -7 2q-21 8 -20 40q-1 37 22 86z" />
<glyph unicode="Y" horiz-adv-x="665" d="M130 710q9 68 36 140t62.5 139.5t68.5 120.5q43 70 74.5 94.5t54.5 26.5h11q36 0 39 -11q3 -14 -13 -30q-10 -10 -24.5 -16.5t-28.5 -16.5q-39 -27 -81 -77t-77 -113.5t-57.5 -132t-24.5 -132.5v-10q0 -57 20 -103q21 -50 78 -77q49 -22 96 -22q27 0 52 6q73 20 142 73.5 t132.5 131t121.5 159.5t108.5 159t93.5 128q27 33 59.5 50t54.5 16t22 -20q0 -18 -32 -56q-100 -115 -195.5 -235t-172 -259t-127 -307t-58.5 -377q-2 -41 -21.5 -64.5t-43.5 -26.5h-6q-19 0 -34 16q-16 16 -16 56v9q2 49 19.5 135t40 174t45 162t35.5 96q-45 -33 -110 -49 q-48 -12 -95 -12q-18 0 -35 2q-65 6 -120.5 36.5t-80.5 94.5q-16 38 -16 83q0 18 3 39z" />
<glyph unicode="Z" horiz-adv-x="1091" d="M92 -141q-9 15 -9 30q-1 15 9 31q18 30 57 58t92.5 53.5t104.5 47t92 37t58 25.5q31 16 84 52t116.5 85.5t131 107.5t126.5 120q-94 18 -182 24q-36 2 -71 2q-58 0 -111 -6q-86 -10 -180 -12q-23 0 -26 3t5 9t24.5 13.5t32.5 13.5q78 29 169.5 38t175.5 11q30 1 60 1 q31 0 61 -1q62 -2 120 -6q20 27 47 64.5t51 79.5q22 42 38 85q14 38 14 73v9q-2 57 -33 107.5t-86 83.5q-86 51 -177 53h-23q-80 0 -161 -12q-37 -4 -73.5 -10.5t-73.5 -10.5q-27 -4 -44 3t-28 32q-8 20 7.5 33.5t44.5 21.5q25 6 55.5 10.5t60 6.5t54 2h38.5 q88 -2 181.5 -23.5t165.5 -75.5q57 -41 88.5 -96t33.5 -121q0 -41 -14 -83t-35.5 -84t-47 -79.5t-46.5 -70.5q61 -4 109.5 -10t76.5 -17q33 -11 41 -29q4 -8 4 -16q0 -10 -6 -18q-10 -16 -31.5 -26.5t-45.5 -12.5q-23 -2 -49.5 3t-54.5 11t-56.5 12.5t-52.5 10.5 q-35 -49 -80 -99.5t-94.5 -97.5t-99.5 -89t-95 -77q49 0 90 -23.5t85 -45t100 -30.5q14 -2 30 -2q48 0 111 21q39 8 59 8q12 0 16 -3q14 -7 -1 -22t-52 -31.5t-76 -22.5q-48 -6 -90 -6q-37 0 -71 5q-70 11 -125.5 27.5t-101.5 29.5q-28 8 -57 8q-17 0 -34 -3 q-20 -12 -62 -42t-94 -64q-20 -12 -58 -38t-79 -45.5t-78 -24.5q-5 -1 -10 -1q-30 0 -45 25zM152 -88q1 -3 4 -3q8 1 30 13q32 18 69.5 41t72 45.5t41.5 26.5q-16 -8 -54.5 -19.5t-76.5 -27.5q-36 -15 -64 -33q-23 -15 -23 -34q0 -5 1 -9z" />
<glyph unicode="[" horiz-adv-x="559" d="M98 -166q-2 6 3 14.5t11.5 17.5t13.5 16.5t9 11.5q66 94 118 220t96 264t80 279.5t69.5 263t65.5 215t67 138.5q25 33 57.5 46t64 14t61.5 -5t48 -12q23 -8 31 -19.5t6 -20.5t-13.5 -13t-29.5 0q-27 8 -57.5 8t-63.5 -27q-35 -29 -67.5 -96.5t-67.5 -153.5 q-51 -127 -102.5 -282.5t-103.5 -308t-104 -285.5t-108 -213q37 -4 69 -1t68 17q10 4 24.5 11.5t29 11.5t26 2t15.5 -17q4 -20 -12.5 -53t-45.5 -55q-8 -6 -28.5 -10.5t-47 -7.5t-55 -3t-55.5 4q-29 4 -48.5 10.5t-23.5 18.5z" />
<glyph unicode="\" horiz-adv-x="950" d="M75 1010.5q-1 27.5 16.5 38t47 0t60.5 -49.5q94 -125 197.5 -255t208 -259t205.5 -250.5t191 -228.5q25 -31 31 -46t-2 -18t-26.5 9t-38.5 37q-74 86 -175.5 204.5t-216 249.5t-234 264t-230.5 244q-33 33 -34 60.5z" />
<glyph unicode="]" horiz-adv-x="835" d="M113 -142.5q2 9.5 13 14.5t30 1q27 -6 57.5 -7t62.5 25q35 29 67 97.5t67 154.5q51 127 102 283t103.5 308.5t105.5 284.5t108 212q-39 4 -70.5 2t-66.5 -19q-10 -4 -25.5 -11t-29.5 -11t-26.5 -1t-14.5 19q-4 18 12.5 51t44.5 56q8 6 28.5 10t47.5 7t56.5 2t56.5 -3 q29 -4 48 -11t23 -19q0 -4 -4 -12.5t-11 -17.5t-13 -17.5t-8 -10.5q-66 -92 -118 -218t-96.5 -265t-80 -280.5t-69.5 -264.5t-65.5 -217t-66.5 -137q-25 -31 -57.5 -44.5t-65.5 -14.5t-62.5 4.5t-48.5 11.5q-23 8 -29.5 18t-4.5 19.5z" />
<glyph unicode="^" horiz-adv-x="598" d="M143 674q2 25 41 58.5t88.5 64t97.5 51t72 20.5q23 0 52.5 -21.5t56.5 -50t45 -60t18 -52.5q0 -18 -22 -18q-18 0 -36.5 13t-38 29.5t-41 30t-48.5 13.5q-39 0 -76 -13.5t-70.5 -30t-64.5 -30.5t-61 -14z" />
<glyph unicode="_" horiz-adv-x="669" d="M2 -81q-2 13 13.5 28.5t44 27t63.5 5.5q74 -12 139.5 -17.5t128 -5.5t128 6t143.5 14q31 2 44 -5t13 -17t-10.5 -19.5t-24.5 -9.5q-168 -8 -332.5 -15t-318.5 -5q-29 0 -31 13z" />
<glyph unicode="`" horiz-adv-x="423" d="M131 838q0 18 28.5 27t43.5 9q18 0 59 -27.5t84 -62t75 -65.5t32 -39q0 -12 -17 -12q-2 0 -26.5 10t-57.5 25.5t-71.5 34t-71.5 38t-54.5 35.5t-21.5 27h-2z" />
<glyph unicode="a" horiz-adv-x="743" d="M123 147q0 55 27.5 113.5t71.5 105t100.5 76t113.5 29.5q84 0 128 -40t44 -126q0 -29 -4 -56t-10 -56q25 31 46.5 68.5t38.5 79.5t27.5 85t10.5 80q0 53 -27.5 93t-87.5 40q-35 0 -70.5 -12.5t-67.5 -27.5t-57.5 -27.5t-41.5 -12.5q-25 0 -25 27q0 16 31.5 30.5 t72.5 25.5t80 17.5t56 6.5q98 0 142 -60.5t44 -152.5q0 -63 -19.5 -124t-48.5 -116q12 4 25.5 8t26.5 4q16 0 16 -12q0 -16 -15.5 -36.5t-36 -40t-43 -35t-36.5 -19.5q-8 -12 -22.5 -33.5t-33 -42t-38 -35t-35.5 -14.5q-12 0 -12 20q0 10 2 21.5t6 21.5q-43 -18 -91.5 -33.5 t-97.5 -15.5q-78 0 -134 47.5t-56 128.5zM176 197q0 -31 15.5 -56.5t38 -45t51 -30t57.5 -10.5q55 0 107.5 24.5t97.5 53.5q16 41 28.5 85t12.5 89q0 70 -47.5 103.5t-112.5 33.5q-43 0 -88 -22.5t-80 -57t-57.5 -79.5t-22.5 -88z" />
<glyph unicode="b" horiz-adv-x="708" d="M88 -30v8q0 27 10 63q14 47 33 96t41.5 105.5t50 124t62.5 151.5q33 82 73.5 181.5t81.5 195.5t76 178t57 131q14 31 31 49.5t30 19.5h1q12 -1 19 -17q7 -18 1 -58q-6 -35 -30.5 -99.5t-59.5 -142t-73.5 -159.5t-70.5 -153t-52.5 -121t-18.5 -62q37 63 101.5 110 t128.5 61q19 4 38 3q42 1 78 -21q52 -32 62 -127q1 -14 2 -30q0 -33 -6 -69q-8 -54 -26.5 -107.5t-47.5 -103.5t-64 -89q-23 -25 -53.5 -48.5t-65 -41.5t-73.5 -28.5t-76 -10.5q-39 2 -65.5 16.5t-36.5 28.5t0 22.5t45 0.5q20 -6 35.5 -13.5t32 -12.5t39 -5t57.5 10 q47 14 83.5 65.5t62.5 114t40 126t16 106.5q1 10 1 19q0 56 -20 97q-24 48 -69 52h-7q-42 0 -100 -45q-62 -49 -136 -174q-37 -63 -59.5 -120t-38 -105t-25.5 -87t-23 -65q-25 -48 -45 -62q-10 -7 -19 -8q-8 0 -14 6q-12 14 -14 44z" />
<glyph unicode="c" horiz-adv-x="499" d="M119 136q-4 21 -4 43q0 41 12 87q14 59 48 118.5t77 110t88 89.5t86 55q49 21 88 20q16 -1 30 -3q50 -12 74 -44q19 -26 18 -60q0 -10 -1 -18q-6 -46 -49 -83q-18 -16 -29.5 -15t-15.5 17q-4 14 1 33.5t15 35.5q22 35 22 63q-1 9 -3 18q-8 30 -53 30h-11q-37 -4 -75 -34 t-72.5 -76t-65.5 -102t-55 -112q-30 -68 -42 -128q-6 -27 -6 -50q0 -29 10 -51q16 -40 62 -56q19 -6 45 -7q39 0 93 14q41 12 57 8q10 0 11 -5t-3 -9q-6 -10 -27.5 -22.5t-46.5 -16.5q-36 -6 -68 -6q-37 0 -68 8q-58 14 -95 52t-47 96z" />
<glyph unicode="d" horiz-adv-x="669" d="M131 147q-3 23 -3 48q0 53 14 111q22 85 65 158t102.5 125t128.5 62q17 3 33 2q22 0 44 -4q38 -8 68.5 -32.5t49 -64.5t22.5 -99q10 8 33 62t50.5 131t60 169t63.5 177t60 151.5t49 97.5q23 33 40 42q8 4 14 4q7 0 13 -5q11 -11 10 -38q0 -23 -12 -54q-18 -53 -55 -142.5 t-80 -191.5t-87 -207.5t-77 -189.5q-16 -45 -40.5 -112.5t-51.5 -138.5t-54.5 -135.5t-51.5 -103.5q-26 -42 -42 -42h-1q-16 1 -20.5 23.5t-0.5 58.5t19 63q20 37 43.5 84t44.5 106q35 102 39 171q1 13 1 25q0 51 -14 82q-18 38 -54 48q-15 4 -31 4q-23 0 -49 -8 q-44 -14 -90 -51t-85 -95q-77 -110 -103 -192q-19 -59 -19 -109q0 -18 3 -35q6 -37 28.5 -67.5t55.5 -40.5q18 -6 35.5 -3t34 9t33 10t34.5 0q27 -8 33 -17t-3 -17.5t-28.5 -15.5t-44.5 -9q-14 -1 -27 -1q-75 0 -127 48q-62 57 -73 149z" />
<glyph unicode="e" horiz-adv-x="514" d="M100 334q-2 4 -2 7q0 4 3 9q5 8 17.5 13.5t26.5 3.5q14 0 32 -9.5t32 -15.5q20 45 50 95t71 95q41 47 96 82t121 35q39 0 64.5 -19.5t34.5 -49.5q5 -17 5 -38q0 -15 -3 -32q-7 -39 -34 -76t-64.5 -62.5t-80.5 -42t-89 -24.5t-89 -10q-8 -14 -20.5 -40t-23.5 -55.5 t-19.5 -61.5t-4.5 -58q6 -48 34 -62q26 -14 60 -13h5q36 1 75 13.5t66 18.5q18 4 19 -10.5t-19 -26.5q-68 -32 -144 -32h-5q-78 1 -124 48q-24 25 -30 64q-4 25 -4 51q0 14 1 29q3 41 13 78.5t20 64.5q-20 4 -32.5 6t-34.5 10q-19 7 -23 15zM309 324q88 0 154.5 33.5 t105.5 78.5q39 46 43 90q0 5 1 9q0 37 -33 55q-13 7 -27 7q-24 1 -51 -19q-43 -30 -83 -78.5t-71 -100t-39 -75.5z" />
<glyph unicode="f" horiz-adv-x="561" d="M41 -614q2 39 16 51q8 8 20.5 26.5t29 51t39 84t53.5 127.5q8 20 22.5 55t30.5 74t32.5 78.5t30.5 72.5q-39 -25 -88 -35q-21 -3 -40 -3t-37 3q-37 6 -64 25.5t-37 52.5q-4 14 -4 30q0 23 8 50q6 25 24.5 47.5t43 42t53.5 32.5t53 17q29 4 56.5 1t49 -15t34 -34.5 t12.5 -57.5l166 446q-10 -12 -29.5 -16t-38.5 -10q-10 -4 -31.5 -5.5t-36 1t-13.5 8.5t36 20q20 8 43 16.5t44.5 20.5t41 30.5t33.5 47.5q35 72 69.5 168t86.5 186q16 29 41.5 61.5t56.5 61.5t64.5 48.5t70.5 21.5q37 0 37 -37q0 -39 -12.5 -80t-32 -81t-43 -76t-43.5 -66 q-49 -72 -107.5 -133.5t-119.5 -120.5l-201 -516q23 10 53.5 25.5t56.5 27.5q41 18 36 1t-46 -56q-16 -16 -30.5 -29.5t-31 -27t-39 -30t-52.5 -34.5l-187 -449l-110 -264q-20 -45 -35 -45q-3 0 -4 1q-17 7 -25 38q-6 25 -6 55v15zM100 126q-1 -6 -1 -12q0 -26 21 -46 q24 -21 74 -21h9q41 8 75.5 22.5t69.5 43.5q4 26 4 47q0 51 -24 72q-26 21 -62 21q-12 0 -26 -3q-63 -20 -98.5 -55t-41.5 -69zM700 768q31 27 66 72t68.5 95t63.5 99t48 86q14 31 16 46q1 4 1 7q0 9 -7 10h-1q-8 0 -21 -11q-14 -11 -33 -31q-27 -31 -56.5 -79t-57 -100.5 t-50.5 -104.5t-37 -89z" />
<glyph unicode="g" horiz-adv-x="671" d="M-362 -791.5q0 11.5 20 15.5q12 2 31.5 -2t38 -12.5t35 -15.5t22.5 -7q44 -6 86 -6q87 0 161 29q107 42 189 126t141.5 198t103.5 235.5t75.5 240.5t58.5 213q-35 -68 -97.5 -128t-134 -96t-140.5 -37h-3q-68 0 -112 50q-50 54 -50 123q0 67 34 137t93.5 133.5t129 109.5 t140.5 65q35 8 66 8q34 0 64 -10q8 -4 18 -13.5t13.5 -21t-2 -19.5t-27.5 -8q-23 0 -32 4t-12 9.5t-3 10.5t-6 5q-49 -4 -105.5 -38t-109 -84t-96.5 -109.5t-70 -112.5q-30 -62 -30 -105q0 -9 1 -17q8 -46 46 -65q25 -12 58 -12q17 0 37 4q58 10 119.5 47t118.5 99.5 t96 152.5q27 59 32 118.5t23 115.5q6 16 15.5 27.5t42.5 0.5q29 -10 31 -57v-14q0 -41 -10 -90q-11 -56 -26.5 -107t-21.5 -72q-35 -121 -75 -256t-94 -265t-125.5 -244.5t-170 -194.5t-224.5 -115q-67 -19 -144 -19q-69 0 -146 15q-16 2 -34.5 13.5t-28.5 23.5t-10 23.5z " />
<glyph unicode="h" horiz-adv-x="708" d="M77 -40q-2 9 -2 20q0 22 9 53q18 59 47 123.5t59 130.5q35 72 67 145.5t60 149.5q-6 -10 -20 -18.5t-29.5 -11.5t-29 3t-15.5 27q0 10 15.5 21t39 26.5t47 38t40.5 53.5q23 63 51 138t65 145.5t85 132t110 98.5q26 15 50 25q19 8 34 8q4 0 8 -1q18 -3 25.5 -22.5 t-0.5 -62.5q-10 -57 -49 -135.5t-121 -180.5q-35 -45 -78 -90t-92 -94q-8 -20 -24.5 -63.5t-35 -87.5t-34 -80.5t-19.5 -47.5q25 45 59.5 91.5t77.5 83t95 58.5q47 20 98 19h10q55 -2 87 -25.5t46 -61.5q11 -30 11 -64q0 -10 -1 -20q-4 -46 -20 -95q-16 -47 -41 -101.5 t-55.5 -108.5t-65.5 -104t-68 -89q-12 -16 -31.5 -25.5t-36 -8.5t-26.5 12t-4 40q4 20 15.5 31.5t28 18.5t35.5 15.5t38 20.5q31 20 66.5 68.5t65.5 110t50 125.5q19 60 18 111v5q-1 53 -30 85q-26 28 -78 28h-14q-86 -4 -151.5 -57.5t-117.5 -125.5q-43 -61 -76.5 -110 t-60.5 -103q-10 -23 -23.5 -52.5t-26.5 -61t-24.5 -61t-17.5 -52.5q-12 -42 -32 -58q-16 -13 -32 -13q-4 0 -6 1q-18 4 -25 30zM500 782q27 23 61.5 65t69.5 89t64.5 94t41.5 82q12 32 12 48q1 18 -11 19h-2q-10 1 -26 -9t-32 -31q-31 -37 -57.5 -80t-48 -90t-39 -95.5 t-33.5 -91.5z" />
<glyph unicode="i" horiz-adv-x="415" d="M119 80v2q0 57 19.5 127t49 137.5t66.5 123.5t72 87q48 41 75 41q9 0 15 -3q17 -9 16 -27q0 -13 -8 -31q-23 -43 -52.5 -90.5t-58 -97.5t-55.5 -105.5t-43 -114.5q-14 -54 -14 -89q0 -31 11 -46q10 -14 30 -14q29 0 80 28q23 12 31.5 12t8.5 -7t-9 -17t-21 -16 q-41 -23 -79 -27q-9 -1 -17 -1q-28 0 -50 10q-30 13 -48.5 43t-18.5 75zM428 686q6 24 39 41q17 8 30 8q7 0 12 -2q17 -7 25 -23q5 -10 4 -22q0 -6 -2 -14q-4 -20 -20 -35q-23 -19 -42 -19h-8q-22 4 -33 24q-7 12 -7 26q0 7 2 16z" />
<glyph unicode="j" horiz-adv-x="440" d="M-569 -799q2 18 22.5 17.5t45 -9t47 -18.5t30.5 -10q32 -5 63 -5q75 0 145 28q99 38 184 113t152.5 176t114 211t67.5 220q14 76 14 142q0 30 -3 57q-4 33 -6 61.5t-3 58t1 63.5t10 75q-16 -31 -38.5 -49.5t-45.5 -32.5q-41 -23 -57 -83q-8 -28 -8 -60q0 -37 10 -78 q8 -41 -3 -61.5t-28.5 -19.5t-36 25.5t-20.5 73.5q-1 20 -1 38q0 40 6 68q9 40 38 72q39 43 63.5 55.5t44 25t38 38t47.5 96.5q10 23 25.5 51.5t29.5 34.5q4 4 17.5 8.5t26.5 3.5t22.5 -8.5t9.5 -23.5q0 -8 -9.5 -25.5t-15.5 -29.5q-18 -39 -26.5 -82t-9.5 -90v-24 q0 -35 2 -72q3 -50 3 -99v-18q0 -108 -23 -215q-24 -117 -72 -224.5t-118.5 -202t-158.5 -167.5q-113 -92 -247 -142q-84 -31 -175 -31q-54 0 -109 11q-20 4 -42.5 19.5t-22.5 37.5zM418 686q8 23 43 37q15 6 27 6q9 0 16 -4q16 -8 21 -25q3 -9 3 -18.5t-3 -19.5 q-5 -21 -23 -33q-21 -15 -39 -15q-7 0 -13 2q-22 7 -31 26q-5 11 -5 22q0 10 4 22z" />
<glyph unicode="k" horiz-adv-x="606" d="M94 8q12 33 37 94.5t56.5 138t67.5 164t67 175.5q-12 -25 -41 -40.5t-58 -23.5q-18 -4 -32.5 -2t-21.5 8t-5 12.5t18 10.5q27 6 51.5 18t48 33.5t49 53.5t54.5 77q25 39 45.5 92t37.5 109.5t33.5 111t35.5 97.5q12 29 37 61q26 32 52 52q23 18 38 18h4q16 -2 10 -43 q-6 -45 -23.5 -99.5t-38 -109.5t-44.5 -107.5t-42 -93.5q-31 -66 -45 -96.5t-24 -56t-23.5 -60.5t-44.5 -108q18 20 50 54t70 68.5t78 65.5t77 44q23 8 43 8q13 0 23 -3q28 -8 42 -51q4 -13 4 -27q0 -24 -14 -49q-22 -39 -59 -78t-82 -74.5t-81 -65.5t-55.5 -52.5 t-3.5 -32.5q27 -20 33 -65.5t6 -98.5t2 -105t19.5 -86t58.5 -40q5 -1 11 -1q40 0 110 36q10 6 25 5q14 0 22 -6q6 -4 6 -12q0 -11 -24 -24q-31 -16 -70 -22q-19 -3 -38 -2q-21 0 -41 3q-40 6 -74.5 23.5t-55.5 48.5q-23 29 -29 62.5t-10 68.5t-10 68.5t-27 62.5q-6 8 -16 12 t-19.5 10.5t-15.5 14.5t-2 25q4 25 35 52t69.5 53t77.5 47.5t58 35.5q39 27 69.5 53.5t46 48t10.5 35.5t-40 19q-12 1 -24 1q-76 0 -139 -56q-73 -64 -138 -165q-53 -82 -85 -179t-63 -183q-12 -35 -37.5 -54.5t-49.5 -24.5q-24 -6 -38 6q-9 7 -8 20q0 9 4 20z" />
<glyph unicode="l" horiz-adv-x="397" d="M170 123q6 53 26.5 114.5t46 123t51 119t40.5 104.5q-8 -4 -17.5 -14.5t-25 -21.5t-39 -19.5t-57.5 -10.5q-14 0 -19.5 7t8.5 16q35 10 59.5 22t47 30.5t44 46.5t50.5 69q49 135 96 234t97 169q41 57 94 100t125 56q3 1 6 0q17 0 23 -20q2 -7 1 -16q0 -21 -8 -51 q-12 -44 -41.5 -105.5t-81.5 -135.5q-106 -151 -239 -274q-23 -66 -53.5 -143t-61.5 -153.5t-55.5 -145t-32.5 -115.5q-6 -33 -6 -56q0 -14 2 -24q6 -27 23.5 -36t45 -5t64.5 16q23 8 29 6t2 -8t-18.5 -15.5t-30.5 -15.5q-39 -13 -72 -13q-8 0 -16 1q-39 4 -65 25.5 t-37 56.5q-7 23 -7 50q0 15 2 32zM500 768q31 27 67.5 72t71.5 95t65.5 98t49.5 85q17 33 17 50q0 12 -7 13h-1q-9 1 -23 -9q-16 -10 -31 -31q-31 -35 -61 -81t-57.5 -97.5t-51 -102.5t-39.5 -92z" />
<glyph unicode="m" horiz-adv-x="997" d="M173 62q-1 9 -1 19q0 33 12 77q14 51 41 105t53.5 106.5t48 99.5t25.5 84q6 43 0 60.5t-18 20.5t-28.5 -4t-29.5 -14q-25 -16 -38 -18t-15 3t4 16.5t19 21.5q16 12 41.5 23.5t52.5 14.5q9 1 18 1q18 0 34 -4q24 -6 38 -25q16 -20 18 -52v-8q0 -28 -10 -59 q-12 -49 -33.5 -93t-45 -87t-44 -88t-28.5 -94q-6 -38 11 -56q8 -8 20 -8q16 0 40 13q37 27 71 84t71 122.5t79 127t93 98.5q43 31 54 11q6 -11 6 -31q0 -18 -5 -42q-8 -49 -25.5 -97t-36 -96t-31.5 -97.5t-16 -100.5q-2 -47 15.5 -55t48.5 27q33 37 65.5 89t66.5 107 t69 107.5t71 89.5q23 23 37.5 27t21.5 -4.5t9 -25t2 -34.5q0 -41 -9 -81t-20.5 -78t-22.5 -78t-16 -81v-26t5.5 -19.5t16.5 -6.5t32 14q16 10 22 12t6 -3t-4 -12.5t-8 -15.5q-22 -41 -60 -59q-16 -8 -31 -8q-19 0 -36 14q-29 25 -29 66.5t4 76.5q6 33 15.5 63.5t17.5 59.5 q6 18 12.5 43t5.5 39t-11.5 10t-39.5 -41q-20 -27 -45.5 -68.5t-53 -85.5t-57.5 -83t-56 -62q-36 -31 -63 -31l-1 1q-27 0 -42 19.5t-19.5 51t0.5 62.5q10 55 27.5 112.5t33.5 100.5q6 16 14.5 42.5t9.5 43t-10.5 13.5t-42.5 -44q-35 -43 -61.5 -90t-55 -94t-61.5 -91 t-78 -81q-37 -31 -67.5 -36t-49 13t-23.5 56z" />
<glyph unicode="n" horiz-adv-x="671" d="M142 58q-1 9 -1 18q0 33 13 78q14 51 40.5 106t53 108.5t48 100.5t28.5 84q6 41 0.5 58.5t-17.5 20.5t-28.5 -4t-30.5 -16q-29 -16 -42 -15t-13 10t11 22.5t34 25.5q42 25 86 25q13 0 26 -2q35 -6 50.5 -27.5t18.5 -50.5t-4.5 -59.5t-15.5 -57.5q-25 -76 -67.5 -145.5 t-67.5 -144.5q-6 -17 -6 -32q0 -17 8 -31q7 -13 21 -13q15 0 39 14q33 18 72.5 65.5t78.5 102.5t75 106.5t60 75.5q47 43 67.5 46t24.5 -17q2 -8 2 -18q0 -16 -4 -36q-8 -34 -16 -61q-12 -45 -30.5 -109.5t-26.5 -120.5q-5 -32 -4 -58q0 -19 2 -35q6 -37 43 -25q20 6 27.5 3 t4 -12t-15.5 -19.5t-27 -16.5q-22 -9 -40 -9q-34 0 -56 32q-18 29 -21 67q-1 14 -1 28q0 24 3 49q5 40 15 79t19 69q8 31 11 48.5t-7.5 13.5t-36 -34t-74.5 -93q-27 -35 -48.5 -65.5t-42 -57.5t-43 -51.5t-50.5 -48.5q-37 -31 -69 -37q-8 -2 -16 -2q-22 0 -36 13 q-20 17 -24 55z" />
<glyph unicode="o" horiz-adv-x="595" d="M91 138q3 46 15.5 91t26.5 70q-6 4 -9 28.5t13 49.5q18 31 55 69.5t87 75.5q65 51 147 89q62 29 127 28q20 0 41 -2q72 -9 96 -65q16 -37 17 -83q-1 -23 -5 -49q-12 -76 -56 -161.5t-107 -155.5q-37 -39 -83 -74t-96 -55q-52 -21 -106 -23h-7q-51 0 -102 25 q-35 16 -46 56q-9 31 -9 67q0 9 1 19zM152 54q8 -32 47 -46q19 -7 38 -7q27 -1 54 13q47 22 90 61.5t79 86.5t56 80q31 53 54 107q24 55 34 103q7 32 7 59q0 13 -2 25q-5 36 -29 54q-19 11 -41 11q-17 0 -36 -6q-44 -15 -87 -47t-80 -71.5t-51 -66.5q1 -5 1 -9 q0 -27 -20 -54q-24 -32 -41 -54q-16 -23 -39.5 -72t-33.5 -98q-4 -18 -4 -35.5t4 -33.5z" />
<glyph unicode="p" horiz-adv-x="645" d="M-216 -682q0 23 9 51q18 51 56 147.5t83 206t90.5 220t75.5 194.5q18 45 43 110.5t53.5 134.5t56.5 130t52 100q25 41 42 41t24.5 -23.5t4.5 -57t-18 -60.5q-20 -35 -44.5 -82t-45.5 -104q-42 -118 -42 -191q0 -20 4 -37q14 -78 65 -93q14 -4 30 -4q41 0 91 28 q71 39 129 123q76 109 103 188q21 59 21 107q0 18 -3 34q-6 35 -28 66t-54 41q-20 6 -37 2t-32 -9.5t-31.5 -8.5t-35.5 1q-27 8 -32.5 17.5t2.5 17.5t27.5 15.5t43.5 9.5q10 1 20 1q34 0 64 -10q39 -14 68 -40.5t47.5 -64.5t24.5 -83q2 -21 2 -42q0 -55 -15 -114 q-20 -83 -62 -155t-101.5 -124t-126.5 -60q-17 -3 -33 -3q-22 0 -43 5q-37 8 -65.5 31.5t-48 63.5t-21.5 99q-10 -8 -34 -64.5t-53.5 -137t-63.5 -176t-66.5 -183.5t-62.5 -157.5t-50 -98.5q-23 -35 -41 -43q-9 -4 -15 -4q-9 0 -15 6q-12 11 -12 39z" />
<glyph unicode="q" horiz-adv-x="647" d="M102 119q-2 17 -2 36q0 30 6 63q9 54 28.5 108.5t48 104.5t63.5 87q23 25 53.5 49.5t66 43t73.5 29.5t75 11q39 0 66.5 -14t38 -29.5t0 -26t-45.5 0.5q-23 6 -38 14t-31.5 13t-39 5t-56.5 -12q-47 -16 -85 -66.5t-66 -114t-43 -128t-17 -107.5q-1 -11 -1 -21 q0 -57 20 -101q22 -52 65 -63q9 -2 18 -2q37 0 86 35q61 44 135 169q39 63 61.5 120.5t37 105.5t24.5 87t23 66q25 49 46 62t36.5 0t18.5 -46q1 -7 1 -13q0 -28 -10 -59q-14 -47 -33.5 -95t-44.5 -104.5t-54.5 -123t-62.5 -150.5t-75 -188.5t-84 -205.5t-78.5 -188 t-57.5 -137q-14 -31 -31.5 -48t-33 -17t-24.5 18.5t-3 59.5q4 35 30.5 101.5t62.5 147t77 165.5t75 159t55.5 125t19.5 66q-45 -68 -108.5 -110t-123.5 -47q-6 -1 -13 -1q-51 0 -92 34q-46 38 -57 132z" />
<glyph unicode="r" horiz-adv-x="446" d="M130 -33q-2 8 -2 17q0 29 17 71q20 47 45 117t47.5 144.5t40 146.5t23.5 125q6 57 28.5 57t39.5 -33q14 -31 14 -61q0 -12 -2 -25q41 47 88 86t113 43h7q32 0 50 -16q19 -19 23 -39q1 -4 1 -6q1 -16 -13 -26q-16 -12 -54 -1q-33 12 -62 12q-39 0 -70 -22 q-54 -39 -87 -104q-20 -43 -36.5 -96.5t-30 -110t-26 -110.5t-24.5 -99q-18 -63 -48 -89q-24 -21 -44 -21q-4 0 -8 1q-22 6 -30 39z" />
<glyph unicode="s" horiz-adv-x="481" d="M70 244q6 18 15 31.5t18.5 16.5t15.5 -8.5t4 -37.5v-12q0 -29 7 -66q9 -45 28 -84q18 -40 44 -64q19 -17 41 -17q9 0 19 3q18 6 24.5 37t6.5 77t-3 102.5t-3 113.5q0 45 3 88t16 80t39 66.5t71 52.5q38 16 74 20q7 1 14 1q27 0 49 -12q27 -16 39 -51q6 -16 6 -37 q0 -25 -8 -57q-10 -41 -27.5 -69.5t-30 -36.5t-12.5 11.5t27 76.5q26 56 26 85q-1 4 -1 7q-4 29 -25 31q-6 1 -12 1q-39 1 -65 -23q-30 -26 -47 -66.5t-23.5 -83.5t-6.5 -72q0 -50 4 -108q1 -16 1 -34q0 -42 -7 -87q-10 -76 -43 -110q-32 -34 -72 -36h-6q-37 1 -76 23 q-42 24 -71 65t-47 91q-11 31 -10 59q0 17 4 33z" />
<glyph unicode="t" horiz-adv-x="458" d="M162 61q0 59 17.5 107.5t60.5 91.5q76 186 157.5 365.5t159.5 361.5q-10 0 -33.5 -5t-48 -8t-43 0t-18.5 19q0 14 17.5 19.5t43 6.5t53 1t45.5 4q18 49 26.5 76.5t15 48t12.5 41t18 57.5t27.5 61.5t56.5 24.5q16 0 11 -27.5t-21 -64.5q-23 -53 -48.5 -105.5t-47.5 -107.5 q18 2 48.5 6t64.5 10.5t63.5 14.5t46.5 14q43 23 82 57q25 23 34 7.5t9 -41.5q0 -35 -46 -55.5t-107.5 -31t-121 -13.5t-84.5 -5q-66 -164 -126 -326.5t-119 -328.5q51 51 90 54t58.5 -13.5t18 -38t-31.5 -21.5q-33 0 -70 -7t-57 -21q-45 -31 -65.5 -84t-33 -104.5 t-28 -88.5t-47.5 -37q-12 0 -20.5 10.5t-12.5 24t-5 27.5t-1 24z" />
<glyph unicode="u" horiz-adv-x="651" d="M124 171q8 65 30 130.5t53 122.5t55 88q31 36 73 56q38 18 63 18h6q26 -2 24 -27t-61 -72q-39 -31 -77 -83t-64 -110t-38 -114q-5 -25 -5 -48q0 -27 7 -50q16 -48 54 -62q24 -9 49 -8q15 0 31 2q43 8 85 34t68 63q37 49 67.5 110.5t58.5 126t53.5 124.5t52.5 106 q18 31 47.5 52t51.5 25q4 1 9 1q15 0 23 -14q3 -5 3 -12q0 -18 -16 -50q-18 -41 -56 -101.5t-79 -132.5q-47 -84 -70.5 -153.5t-41.5 -159.5q-2 -10 -7.5 -24.5t-12.5 -21.5t-18.5 -5t-23.5 24q-8 16 -12 38t-4 40q-33 -39 -83 -68q-51 -30 -103 -38q-17 -3 -32 -3 q-35 1 -68 13q-48 18 -77 73q-17 34 -17 79q0 15 2 31z" />
<glyph unicode="v" horiz-adv-x="503" d="M210 602v9q0 18 3 29q4 13 13.5 8t25.5 -44q10 -27 14 -46t5 -36.5t-1 -36t-2 -39.5q-4 -51 -13 -102t-15 -102q0 -6 -2 -31t0 -51.5t8 -47t20 -14.5q10 4 16.5 30t19.5 71t43 109.5t87 144.5q47 68 92 105.5t111 76.5q29 18 55 21q8 1 14 1q15 0 25 -5q12 -6 12 -17 q0 -1 -1 -5q-3 -16 -29 -34q-82 -59 -142.5 -126t-103.5 -138.5t-69.5 -145t-43.5 -147.5q-6 -29 -22 -40q-14 -10 -29 -10h-3q-17 1 -33.5 13t-26.5 31q-23 35 -25 83q-1 16 -1 33q0 33 3 68q4 53 12.5 108.5t8.5 106.5q0 20 -1.5 34.5t-3.5 27t-6 25.5t-8 32q-6 25 -7 51z " />
<glyph unicode="w" horiz-adv-x="849" d="M135 160q6 49 26.5 103t45 104.5t48.5 91.5t38 63q6 12 23.5 41t26.5 54.5t2 38t-50 -8.5q-35 -18 -48.5 -5t32.5 40q20 12 63 28.5t78 17.5h3q33 0 47 -22q4 -7 4 -19q0 -25 -23 -71q-6 -10 -32 -55t-60.5 -106.5t-69.5 -130t-58.5 -129t-28.5 -103.5t21 -51 q11 -3 22 -3q22 0 45 12q34 20 65.5 55.5t61 84t56.5 95.5t49.5 87t40.5 62q25 29 45.5 38t20.5 -42q0 -16 -10.5 -56t-21.5 -88t-19 -98q-4 -27 -4 -49q0 -20 4 -38q6 -38 30 -58q15 -12 42 -13q16 0 36 5q47 10 82 59t61.5 107.5t44 114t27.5 79.5q38 76 59 76q2 0 4 -1 q8 -3 7 -16q0 -23 -23 -77q-29 -68 -70.5 -154t-93.5 -155q-54 -68 -114 -98q-23 -11 -47 -11q-38 0 -78 29q-29 18 -39 52t-12 73q-1 16 -1 31q0 22 2 44q3 36 3 62q-14 -12 -45 -62.5t-73 -100.5t-92 -80q-25 -15 -51 -15l-49 14q-37 23 -48 64q-7 27 -7 56q0 17 2 34z " />
<glyph unicode="x" horiz-adv-x="673" d="M61 96q0 14 8.5 40t20.5 52.5t28 46t32 19.5q8 0 6 -4q-16 -39 -39 -66.5t-23 -72.5q0 -27 16.5 -60t47.5 -33q37 0 84 50.5t95 116t88 131t62 94.5q-4 18 -4 61t-6 86t-20.5 77t-44.5 34q-29 0 -55.5 -29t-49 -62.5t-41 -61.5t-28.5 -28q-12 0 -13 15q0 25 17.5 58.5 t44 64t57.5 52t57 21.5q39 0 59.5 -30.5t30 -71.5t11.5 -85t8 -71q27 39 66.5 86t88 89t99.5 71t102 29q8 0 27.5 -3t39 -8.5t34 -13.5t14.5 -18q0 -6 -10 -8t-15 -2q-25 0 -48 11t-50 11q-25 0 -55.5 -25.5t-64 -66.5t-67.5 -90t-63.5 -96.5t-54.5 -87t-39 -60.5 q0 -16 -1 -33.5t-1 -34.5q0 -20 2 -55t8 -70.5t15.5 -66.5t25.5 -45q25 -23 65 -29t70 -10q8 -2 23.5 -5t15.5 -13q-10 -33 -51 -33q-76 0 -115 38t-56 93t-18 118.5t-1 116.5q-29 -35 -59.5 -76.5t-67.5 -76.5t-80 -58.5t-92 -23.5q-23 0 -47.5 6t-44 18.5t-32 32 t-12.5 45.5z" />
<glyph unicode="y" horiz-adv-x="724" d="M-302 -804q-3 6 -3 11q0 6 5 11q9 10 38 4q14 -4 31.5 -10.5t34 -13.5t28.5 -13t18 -6q41 -6 83 -6q26 0 51 2q69 6 131 30q119 47 202.5 156t143 246t101.5 288.5t77 284.5q-33 -35 -63.5 -67.5t-65.5 -60t-77 -47t-93 -28.5q-31 -5 -58 -5q-45 0 -78 14q-52 24 -76 70 q-20 39 -20 87v19q5 59 33 119q29 66 69 132t93 113q39 33 71 44.5t43 1t-4.5 -39t-70.5 -73.5q-39 -29 -78 -76t-76 -104q-23 -35 -35 -81q-8 -30 -8 -58q0 -15 3 -30q6 -42 36.5 -72t91.5 -32h5q57 0 115 39q61 41 113 98.5t93 121t60 108.5q23 53 38 108.5t31 96.5 q8 25 21 30q7 3 13 3l15 -3q13 -6 23 -22.5t12 -36.5v-13q0 -35 -8 -80q-10 -55 -23.5 -107t-27 -95t-17.5 -57q-33 -115 -71.5 -246t-92 -256t-123 -236.5t-164.5 -189.5t-219 -113q-70 -20 -151 -20q-63 0 -133 12q-35 6 -57.5 20.5t-29.5 27.5z" />
<glyph unicode="z" horiz-adv-x="638" d="M92 -115q-2 9 -2 18q0 17 8 33q12 24 33 44t48.5 34.5t51.5 20.5q20 14 64.5 55t96.5 94.5t105.5 113.5t93.5 114q39 55 57 98q9 22 9 37t-8 24q-24 25 -55 25h-8q-36 -4 -77.5 -23.5t-84.5 -47t-81 -48t-67.5 -23.5t-44.5 25q-12 25 18 55.5t83 56t121 41.5q49 11 95 10 q18 0 36 -1q80 -8 99 -48q9 -19 9 -43q0 -26 -10 -54q-20 -56 -69.5 -121.5t-103.5 -125t-101.5 -106.5t-65.5 -67q31 10 66.5 23.5t72.5 26.5t73 23.5t69 12.5q45 2 56 -14q5 -8 5 -17t-7 -21q-13 -22 -44 -42.5t-70 -22.5q-37 -2 -78 -4t-82 -6t-78.5 -12.5t-68.5 -20.5 q-16 -16 -41 -51t-49 -63q-26 -26 -46 -34l-6 -2q-15 0 -22 33z" />
<glyph unicode="{" horiz-adv-x="593" d="M314.5 22.5q4.5 45.5 21 90.5t42 93t52.5 105q25 51 27 79t-8.5 41t-28 18.5t-32.5 12.5t-24.5 21.5t-3.5 46.5q4 20 18.5 29.5t35 16t45 16.5t49.5 37q31 33 50.5 73.5t32.5 89t24.5 102.5t27.5 112q47 166 113.5 246.5t107.5 90.5q37 12 58.5 1t27.5 -27.5t0 -29.5 t-22 -3q-23 12 -53.5 7t-63.5 -34.5t-66.5 -85t-60.5 -143.5q-20 -63 -32.5 -122.5t-26 -117t-33 -109.5t-51.5 -101q-27 -37 -65 -59.5t-79 -26.5q43 -2 70 -24t39 -55.5t12 -76.5t-10 -86t-26.5 -78t-32 -66.5t-25.5 -63.5t-8 -69q4 -51 33 -79q2 -2 9 -8.5t16 -15.5 t15.5 -19.5t4.5 -18.5q-4 -23 -24.5 -22.5t-43.5 6.5q-31 10 -57.5 34.5t-42.5 77.5q-16 49 -11.5 94.5z" />
<glyph unicode="|" horiz-adv-x="385" d="M326 1233q-4 57 3 73.5t18 4t22.5 -45t15.5 -73.5q4 -47 9 -131t8.5 -189.5t5.5 -227.5t3 -243.5t-1 -236.5t-4 -209q-2 -33 -15.5 -57.5t-28 -30.5t-25.5 10.5t-7 67.5q4 68 6 179.5t3 243.5t0 271t-3 260t-5 210t-5 124z" />
<glyph unicode="}" horiz-adv-x="647" d="M129 -98q10 16 34.5 10t31.5 -6q37 -6 65 26q31 35 39 84.5t18 102.5q20 102 61.5 153.5t85.5 72t80 22.5t46 8q-33 2 -59.5 15t-37 48t-1 97.5t50.5 164.5q23 53 48 108.5t46 119.5q55 178 50 265t-87 103q-18 4 -17 17.5t13 23t33.5 9.5t48.5 -25q47 -43 40 -163 t-63 -284q-16 -53 -36.5 -95t-38.5 -83q-16 -41 -33 -89t-12 -83q4 -43 29.5 -53t51 -14t40 -14.5t-4.5 -49.5q-10 -23 -24.5 -33t-33 -14t-38.5 -7t-43 -9q-25 -8 -47.5 -43t-34.5 -101t-19.5 -123t-19.5 -104t-32.5 -82.5t-59.5 -58.5q-41 -23 -71.5 -17t-59.5 29 q-16 14 -31.5 33.5t-7.5 38.5z" />
<glyph unicode="~" horiz-adv-x="616" d="M84 680q0 23 26.5 56.5t63.5 65.5t76 54.5t63 22.5q33 0 56.5 -16.5t44 -36t39 -36t41.5 -16.5q25 0 46 15.5t40.5 34t39 33.5t39.5 15q4 0 5.5 -5t1.5 -7q0 -27 -18.5 -59.5t-47.5 -62t-61.5 -49t-59.5 -19.5q-37 0 -57.5 16t-37.5 35.5t-34.5 36t-46.5 16.5 q-41 0 -72.5 -17.5t-55 -37t-42 -36.5t-35.5 -17q-14 0 -14 14z" />
<glyph unicode="&#xa1;" horiz-adv-x="403" d="M141 57q-6 37 13 76q6 16 27.5 70.5t49 127t58 155.5t58.5 156t48.5 126t26.5 68q23 51 37 40.5t2 -71.5q-4 -18 -18.5 -69.5t-34 -119t-43 -146.5t-46 -153.5t-42 -138t-31.5 -102.5q-18 -61 -42 -74.5t-40.5 2.5t-22.5 53zM458 1010.5q-5 25.5 3 55.5t31 44q33 20 52 8 t23 -38.5t-8 -58.5t-39 -48q-25 -16 -41 -2t-21 39.5z" />
<glyph unicode="&#xa2;" horiz-adv-x="518" d="M113 182q0 63 37.5 149.5t98 163t136.5 129t150 46.5q16 27 36.5 52.5t36.5 47.5q29 41 39 27q4 -4 2 -19.5t-10 -38.5q-10 -23 -18.5 -45t-18.5 -43q25 -14 39 -37.5t14 -51t-13 -56.5t-42 -53q-18 -16 -30.5 -14.5t-16.5 18.5q-4 14 1 34.5t15 36.5q14 23 21 45 q8 35 -12.5 51.5t-55.5 12.5q-25 0 -46 -13.5t-42 -29.5q-23 -20 -51.5 -57t-56 -83t-53 -98.5t-44.5 -101.5q-23 -66 -24.5 -117t20 -82.5t66.5 -40t117 12.5q23 6 41 6h26t13.5 -4t-1.5 -13q-8 -8 -29.5 -17t-45.5 -13q-31 -4 -63 -5t-62 3q-12 -18 -28.5 -40t-31.5 -44 q-27 -41 -41 -27q-8 12 9 59q4 10 11 32t13 38q-55 18 -80.5 72.5t-25.5 107.5z" />
<glyph unicode="&#xa3;" horiz-adv-x="894" d="M170.5 -18.5q8.5 20.5 67.5 43.5q141 53 288.5 68.5t292.5 25.5q35 2 69 -1t53.5 -9.5t18 -13.5t-31.5 -9q-164 -16 -318.5 -47t-306.5 -96q-29 -12 -64.5 -9t-56 15t-12 32.5zM240.5 65.5q-15.5 12.5 3.5 67.5q35 100 71.5 202.5t81.5 205.5q-20 -10 -39.5 -17.5 t-35.5 -15.5q-29 -14 -42.5 -1t-13.5 35.5t16.5 49t47.5 41.5q49 18 123 29q29 59 61.5 131.5t72.5 141.5t90 127t116 89q49 23 105 25t108.5 -14.5t95.5 -53.5t63 -90q14 -39 9 -60.5t-18 -23.5t-30.5 14.5t-29.5 52.5q-16 53 -50 87t-76 48.5t-90.5 8.5t-91.5 -33 q-51 -33 -91 -87t-71.5 -115.5t-56 -125t-45.5 -112.5q82 8 162 7t121 -9q37 -8 58.5 -17.5t18.5 -16.5t-31 -11t-89 -4q-49 0 -125 -13.5t-154 -38.5q-35 -100 -61.5 -201.5t-54.5 -211.5q-4 -23 -32 -49.5t-54.5 -40t-42 -1z" />
<glyph unicode="&#xa4;" horiz-adv-x="802" d="M-23 -16q0 8 34 30.5t77 47t83 44t54 23.5q0 41 11.5 90t29.5 86q-8 14 -8 37q0 25 19.5 54.5t47 58t57.5 52t48 38.5q-12 6 -45 25.5t-66.5 43t-59.5 45t-26 31.5q0 18 27 25.5t41 7.5q25 0 48.5 -17.5t44 -41t41 -49t38.5 -40.5q47 29 106.5 51.5t116.5 22.5 q41 0 76.5 -15t58.5 -56q12 16 35 42.5t47.5 52t50 44t44.5 18.5q14 0 40.5 -9t26.5 -26q0 -10 -31.5 -34.5t-71.5 -50t-79 -45t-51 -21.5q4 -12 4 -24.5v-26.5q0 -49 -15.5 -101.5t-41 -102.5t-57.5 -95t-64 -80q12 -6 41.5 -21.5t60.5 -32t54.5 -33t23.5 -24.5 q0 -16 -26.5 -25.5t-39.5 -9.5q-47 0 -85 38t-72 69q-47 -41 -110.5 -75t-129.5 -34q-57 0 -101 21.5t-55 85.5q-16 -16 -38.5 -38t-47 -42.5t-50 -34.5t-48.5 -14q-12 0 -40 9t-28 26zM276 84q0 -41 30 -59.5t65 -18.5q43 0 87 27.5t86 73t78.5 101.5t64.5 113.5t43 111.5 t15 93q0 37 -18 62.5t-59 25.5q-29 0 -67 -21.5t-73.5 -51t-66.5 -63.5t-43 -58q0 -25 -22.5 -65t-48 -86t-48.5 -95t-23 -90z" />
<glyph unicode="&#xa5;" horiz-adv-x="854" d="M231 658.5q9 64.5 33.5 132t58 131t64.5 112.5q41 66 70.5 89.5t50.5 23.5q45 2 48 -10.5t-13 -26.5q-10 -10 -24.5 -16.5t-26.5 -14.5q-37 -25 -76 -73t-72 -106t-54.5 -122.5t-23.5 -124t19.5 -106.5t74.5 -72q70 -33 138.5 -15.5t133 68t124 123t114 149.5 t102.5 148.5t87 120.5q27 31 57.5 47.5t50 16.5t21.5 -18.5t-31 -55.5q-68 -78 -135.5 -158t-130 -169t-114.5 -188.5t-89 -213.5q47 4 88 4t70 -2q41 -2 50 -11.5t-30 -19.5q-41 -10 -92 -19.5t-104 -17.5q-4 -20 -9.5 -39.5t-9.5 -42.5q41 4 76 4t59 -2q35 -2 42.5 -11 t-23.5 -19q-35 -10 -78 -18.5t-88 -16.5q-6 -41 -10 -82t-6 -84q-2 -37 -18.5 -59.5t-35 -25.5t-33 15.5t-12.5 61.5q2 29 9.5 70.5t17.5 90.5q-47 -4 -91 -5t-79 5q-53 10 -53 28t53 24q37 4 85 9t99 9q4 20 10.5 40t10.5 38q-63 -6 -120.5 -7t-105.5 5q-63 10 -60 29.5 t67 23.5q47 4 109.5 9t127.5 10q16 55 29.5 96t21.5 57q-43 -31 -103 -46t-120.5 -10t-113 34.5t-76.5 89.5q-20 49 -11 113.5z" />
<glyph unicode="&#xa6;" horiz-adv-x="458" d="M160 -34.5q-6 18.5 12 61.5q23 53 56.5 142t70.5 196q14 39 40 64.5t49.5 28.5t33.5 -20t-6 -78q-35 -111 -73 -200.5t-75 -147.5q-18 -27 -42.5 -44t-42 -19t-23.5 16.5zM440.5 739.5q-10.5 14.5 1.5 51.5q45 135 78 239.5t43 140.5q14 51 24.5 57.5t16.5 -15t5 -61.5 t-9 -77q-10 -41 -27.5 -116.5t-40.5 -172.5q-6 -27 -25.5 -43t-37.5 -17t-28.5 13.5z" />
<glyph unicode="&#xa7;" horiz-adv-x="747" d="M94 193.5q17 9.5 37 -0.5q14 -6 19.5 -18.5t6.5 -27t3 -30t10 -27.5q14 -25 44 -58.5t69 -61t83 -41t89 7.5q35 16 46 56t-18 107q-27 61 -57.5 121t-58.5 119q-27 53 -53.5 111.5t-46 118t-29 122t1.5 125.5q2 20 15 53t34.5 65t52.5 54.5t70 20.5q-6 33 2 80t34.5 85.5 t72.5 59t114 2.5q45 -12 85 -42t72.5 -65.5t54 -69.5t32.5 -52q23 -49 6 -58.5t-37 0.5q-14 6 -18.5 18.5t-6.5 28t-4 30.5t-10 28q-16 23 -46 57.5t-68 62t-82 40t-89 -8.5q-35 -16 -46 -56t18 -108q31 -76 68.5 -147.5t72.5 -142.5q23 -47 44 -99.5t36.5 -105.5t23 -109.5 t-1.5 -111.5q-4 -23 -13 -50.5t-26.5 -54t-43 -49t-58.5 -33.5q-16 -6 -31 -6q8 -39 -4 -90t-44 -89t-85 -52.5t-125 18.5q-39 18 -73.5 47t-61.5 60.5t-46 61.5t-28 46q-23 49 -6 58.5zM291 858q-4 -53 10 -117.5t41 -132.5q20 -53 49 -104t58.5 -102.5t57.5 -103.5 t46 -108q14 -23 35.5 -26.5t43 8.5t37 41t19.5 72q4 49 -5 99t-25.5 99t-39 95.5t-45.5 87.5q-41 72 -81.5 140t-65.5 146q-14 23 -35.5 27t-43 -8.5t-38 -41t-18.5 -71.5z" />
<glyph unicode="&#xa8;" horiz-adv-x="706" d="M229 700q0 47 38 85t85 38q33 0 33 -37q0 -51 -28.5 -84.5t-82.5 -33.5q-16 0 -30.5 6t-14.5 26zM578 700q0 47 36.5 85t83.5 38q39 0 39 -37q0 -51 -31.5 -84.5t-82.5 -33.5q-16 0 -30.5 6t-14.5 26z" />
<glyph unicode="&#xa9;" horiz-adv-x="819" d="M249.5 640q-16.5 81 8.5 176t83 176t147.5 135.5t199.5 54.5q86 0 141.5 -32t84 -84t33.5 -118.5t-13 -134.5q-16 -68 -54 -133.5t-92.5 -115.5t-126 -81.5t-155.5 -31.5q-115 0 -177.5 54t-79 135zM287 695.5q0 -58.5 21.5 -103.5t65.5 -72.5t115 -27.5q94 0 172 48 t132.5 121.5t80 157.5t16.5 158t-56.5 122t-141.5 48q-70 0 -132 -28.5t-112.5 -75t-87.5 -106t-55 -122.5q-18 -61 -18 -119.5zM397 725q2 45 25.5 92t56.5 88t72 71t72 42q47 16 81.5 7t52 -33.5t11.5 -57.5t-41 -60q-14 -10 -26.5 -10t-16.5 19q0 27 16 49q20 29 14.5 45 t-32.5 16q-23 0 -46.5 -18.5t-47 -46t-45 -62.5t-39.5 -71q-23 -45 -32 -82t-2 -61.5t36 -34t82 0.5q31 6 43 7q16 -2 17 -9.5t-5 -13.5q-6 -8 -21.5 -13t-31.5 -7q-37 -4 -73 1t-63.5 20t-43 45t-13.5 77z" />
<glyph unicode="&#xaa;" horiz-adv-x="651" d="M198 676.5q7 13.5 29.5 25t57 18.5t77.5 5q39 -2 67 -4t54.5 -4t53 -3t61.5 -3q10 0 39 -2t39 -11q4 -2 6 -7t-2 -11q-8 -16 -107 -23q-49 -2 -99 -5t-93 -5t-74 -3t-41 -1q-47 -4 -63 10q-12 10 -5 23.5zM256.5 906.5q5.5 27.5 26 49t49 36t51.5 18.5q68 14 126 -21 t89 -94q12 37 17.5 82t-5.5 80q-12 45 -51 57t-108 -22q-23 -10 -36.5 -8.5t-16.5 11t4.5 20.5t23.5 22q41 23 79 24.5t68.5 -11.5t53 -40t35.5 -59q14 -41 12 -78t-10 -76l-2 -10l24 12t29 6q12 0 20 -7t4 -21q-4 -12 -16 -22.5t-28.5 -20t-33 -17.5t-24.5 -12 q-12 -35 -24.5 -60.5t-26.5 -29.5q-16 -4 -23.5 4t-9.5 20.5t0 25.5t4 21l-18 -2q-31 -6 -68 -7t-74 5t-68.5 21.5t-52.5 42.5q-25 33 -19.5 60.5zM319.5 904.5q2.5 -25.5 31 -46t95.5 -18.5q29 0 56.5 5t54.5 11q-10 57 -54.5 93t-101.5 30q-37 -4 -60.5 -26.5t-21 -48z " />
<glyph unicode="&#xab;" horiz-adv-x="659" d="M68 244q0 23 21.5 59.5t55 78.5t75.5 85t83 77t76 55.5t55 21.5q12 0 12 -11q0 -35 -37.5 -79t-83.5 -94t-84 -106.5t-38 -117.5q0 -20 8 -39.5t17.5 -39t17.5 -40t8 -41.5q0 -12 -8 -34.5t-25 -22.5q-18 0 -43.5 31.5t-50.5 73.5t-42 83t-17 60zM391 244q0 23 22.5 60.5 t57.5 79.5t78 84t84 76t75.5 55.5t53.5 21.5q12 0 12 -11q0 -37 -38 -81t-83 -94t-83 -105.5t-38 -116.5q0 -20 7.5 -40.5t16.5 -41t16.5 -42t7.5 -42.5q0 -12 -7.5 -31.5t-21.5 -19.5q-18 0 -46 31.5t-52.5 73.5t-43 83t-18.5 60z" />
<glyph unicode="&#xac;" horiz-adv-x="970" d="M279 528.5q0 10.5 10 20.5t24 10q168 8 334 21.5t318 -0.5q72 -8 84 -36t-9.5 -54.5t-62.5 -40t-76 7.5q-55 33 -110.5 49t-122 21t-147.5 -1t-185 -18q-31 -4 -44 3t-13 17.5z" />
<glyph unicode="&#xad;" d="M246 328.5q-2 13.5 13 29t45 26.5t63 5q49 -8 73.5 -13t34.5 -7t15.5 -2t17.5 3t36.5 7t76.5 10q31 2 43 -6t12 -20.5t-9.5 -23.5t-23.5 -11q-84 -4 -123 -6.5t-67.5 -3.5t-63 -1h-110.5q-31 0 -33 13.5z" />
<glyph unicode="&#xae;" horiz-adv-x="860" d="M241.5 640q-16.5 81 8 176t83 176t147.5 135.5t200 54.5q86 0 141.5 -32t84 -84t33.5 -118.5t-13 -134.5q-16 -68 -54 -133.5t-92.5 -115.5t-126 -81.5t-155.5 -31.5q-115 0 -177.5 54t-79 135zM279 695.5q0 -58.5 21.5 -103.5t65.5 -72.5t115 -27.5q94 0 172 48 t132.5 121.5t80 157.5t16 158t-56.5 122t-141 48q-70 0 -132.5 -28.5t-112.5 -75t-87 -106t-55 -122.5q-18 -61 -18 -119.5zM366.5 595q-6.5 26 10.5 67q16 41 33.5 93t35.5 101q16 47 22.5 78t16.5 72q8 35 21 38q16 6 29 -16q4 -10 8 -23.5t4 -29.5q59 57 115.5 64.5 t93.5 -17.5t49 -70t-14 -90q-18 -29 -42 -39t-49 -12q-23 0 -44 3t-44 7q-20 4 -25 -1t-1 -25q4 -23 20.5 -44.5t33.5 -44t31.5 -44t12.5 -39.5q-4 -43 -30.5 -57.5t-49.5 30.5q-20 41 -37.5 101.5t-19.5 103.5q-4 70 61 57q16 -4 30.5 -6t31.5 2q29 6 42 24.5t13 38 t-12.5 37t-34.5 23.5q-49 10 -91 -26t-63 -81q-25 -55 -34 -113.5t-25 -115.5q-14 -47 -36.5 -64.5t-39 -12.5t-23 31z" />
<glyph unicode="&#xaf;" horiz-adv-x="1079" d="M330 506q-8 16 15.5 35.5t69.5 34t105 8.5q88 -8 135 -14.5t76 -10.5t48.5 -4t49 1t78.5 4t140 9q51 2 78.5 -8t29.5 -24.5t-20.5 -25.5t-71.5 -11q-84 2 -143.5 2h-105.5h-85t-86 -2t-107.5 -4t-146.5 -4q-51 -2 -59 14z" />
<glyph unicode="&#xb0;" horiz-adv-x="526" d="M263 732.5q1 25.5 8.5 49t13.5 39.5q-4 10 -3 23.5t9 25.5q12 18 37.5 46t60.5 50.5t75 38t79 9.5q37 -6 53 -29.5t16 -56.5t-12.5 -72t-32.5 -72q-23 -35 -52.5 -67.5t-65 -53t-73.5 -25.5t-77 13q-23 10 -30 33t-6 48.5zM311 702.5q2 -18.5 23 -24.5q23 -8 51.5 7 t55 44t49 65.5t37 72.5t15.5 63.5t-14 38.5q-16 10 -37.5 2t-42 -24.5t-37 -36t-24.5 -31.5q2 -18 -10 -35t-23 -31q-6 -10 -18 -29.5t-19.5 -41t-5.5 -40z" />
<glyph unicode="&#xb1;" horiz-adv-x="882" d="M194.5 328.5q-1.5 13.5 13.5 29t44 26.5t63 5q74 -12 139.5 -17t128 -5t128 6t143.5 14q31 2 44 -5t13 -17.5t-10 -19.5t-24 -9q-168 -8 -333 -15.5t-319 -5.5q-29 0 -30.5 13.5zM215 804q-2 13 13.5 28.5t45 25.5t62.5 4q59 -10 111.5 -15t103.5 -7l104 282 q12 31 36 45.5t45.5 14.5t33.5 -14.5t0 -41.5q-37 -72 -71.5 -142.5t-69.5 -141.5q59 2 118.5 7t129.5 13q31 2 43 -5t12 -17.5t-9.5 -19.5t-23.5 -9q-74 -4 -146.5 -7t-144.5 -7q-35 -70 -69.5 -138.5t-67.5 -138.5q-10 -23 -27.5 -19.5t-7.5 25.5q25 66 49.5 133.5 t49.5 135.5q-74 -4 -146 -5.5t-143 1.5q-29 0 -31 13z" />
<glyph unicode="&#xb2;" horiz-adv-x="591" d="M256 643q0 20 14.5 34.5t36 24t43 12.5t37.5 1q25 29 60.5 77t67.5 101t54.5 103.5t22.5 82.5q0 10 -8 11q-29 0 -51.5 -19.5t-42 -42t-36 -42t-32.5 -19.5q-14 0 -20.5 10t-6.5 20q0 27 20.5 52.5t50.5 45t60.5 31t51.5 11.5q33 0 44 -20.5t11 -45.5q0 -37 -18.5 -89 t-46 -106.5t-58 -104.5t-53.5 -81q18 -16 39 -43q10 -12 19 -22.5t15 -10.5q8 0 16.5 12.5t15.5 28t16.5 28.5t19.5 13q27 -14 27 -41q0 -16 -9.5 -31.5t-22.5 -27.5t-29.5 -20.5t-31.5 -8.5q-25 0 -40 13.5t-25 29.5l-10 15q-12 18 -29 28q-16 -23 -49 -51.5t-62 -28.5 q-27 0 -44 24t-17 46zM309 647q2 -4 6 -4q6 0 17.5 8t21.5 19q-14 -2 -27.5 -7.5t-17.5 -15.5z" />
<glyph unicode="&#xb3;" horiz-adv-x="587" d="M256 621q0 12 11.5 16t21.5 4q18 0 36.5 -3t39.5 -3q63 0 105 38t42 103q0 29 -9 53.5t-26 47.5q-16 -10 -33.5 -19.5t-37.5 -9.5q-33 0 -42.5 16.5t-9.5 42.5q0 29 22.5 39t45.5 10q35 0 61 -22q31 27 66 65.5t35 73.5q0 18 -21 19q-33 0 -62.5 -10.5t-62.5 -10.5 q-8 0 -25.5 5t-17.5 18q23 29 61 42t68 13q33 0 68 -12.5t35 -53.5q0 -25 -11.5 -50t-29 -48.5t-37 -45.5t-35.5 -36q23 -29 35 -61.5t12 -69.5q0 -98 -62.5 -147.5t-154.5 -49.5q-10 0 -24.5 2.5t-29 6.5t-24.5 13t-10 24zM399 901q0 -6 11 -6q20 0 36 12q-10 6 -18 6 q-6 0 -17.5 -3t-11.5 -9z" />
<glyph unicode="&#xb4;" horiz-adv-x="573" d="M223 977q0 8 32 39t75 65.5t85 62t60 27.5q14 0 42 -9t28 -27q0 -10 -21.5 -26.5t-54.5 -36t-72 -38t-72.5 -34t-57 -25.5t-25.5 -10q-6 0 -12.5 3t-6.5 9z" />
<glyph unicode="&#xb5;" horiz-adv-x="677" d="M-184 -581.5q4 24.5 15 58.5t24 68q63 166 126.5 327t129.5 321q10 41 30.5 83.5t45 82.5t48 73t39.5 53q29 37 67 55.5t61.5 17.5t20.5 -22.5t-58 -64.5q-37 -29 -81 -78t-79 -102t-54.5 -105.5t-5.5 -89.5q16 -43 53.5 -57t81.5 -7t86 31.5t66 59.5q33 45 62.5 103.5 t55 119t50.5 117.5t49 100q16 29 44 48.5t49.5 22.5t30.5 -12.5t-11 -58.5q-18 -37 -54 -94t-73 -123q-39 -72 -64 -133q-6 -14 -14 -37.5t-14 -50.5t-9.5 -51.5t3.5 -38.5q16 -45 81 -23q25 6 43.5 20.5t33 28t26.5 23.5t24 10q8 0 8.5 -9t-6 -20.5t-15.5 -22.5t-15 -17 q-47 -33 -99.5 -45.5t-91.5 -2.5q-41 12 -55 48t-16 73q-31 -37 -78 -63.5t-96.5 -34.5t-94.5 8.5t-71 67.5q-4 10 -9 26q-55 -139 -105 -264t-81 -211q-16 -43 -23.5 -79.5t-13.5 -67.5t-14 -54.5t-27 -35.5q-20 -16 -25 -6t-1 34.5z" />
<glyph unicode="&#xb6;" horiz-adv-x="671" d="M139.5 1q-10.5 11 7.5 54q31 70 69 157t76 177t68.5 175t45.5 151q-74 2 -116 39t-55.5 90t1 113.5t52.5 111.5t98 85t140 34l381 -2q61 0 85 -10.5t21 -23.5t-26.5 -28.5t-54.5 -25.5q-39 -14 -85 -15.5t-93 1.5t-94.5 8.5t-86.5 5.5l-315 -1000q-12 -35 -37.5 -62.5 t-48 -36.5t-33 2zM407.5 -2q-10.5 12 12.5 55q49 96 102 215t101.5 243t89 244t67.5 218q16 59 35 74.5t6 -33.5q-29 -113 -63.5 -234t-72.5 -239.5t-76 -231t-72 -211.5q-12 -35 -41 -62.5t-53.5 -38.5t-35 1z" />
<glyph unicode="&#xb7;" horiz-adv-x="284" d="M178 352.5q8 26.5 32.5 50t57.5 27.5q29 4 37 -15.5t1 -45t-26.5 -48t-46.5 -26.5q-41 -6 -52 12.5t-3 45z" />
<glyph unicode="&#xb8;" horiz-adv-x="311" d="M99 -228.5q-7 7.5 1.5 14.5t36.5 11q35 4 55.5 15.5t30.5 33.5q10 23 -3 39.5t-31.5 35t-32 40t-2.5 53.5q12 25 35.5 30t45 -5t34.5 -31.5t5 -46.5q-12 -23 -1.5 -33t25.5 -20t27.5 -25.5t4.5 -46.5q-6 -23 -21.5 -38t-37 -24.5t-45 -13.5t-44.5 -4q-31 -2 -53.5 3 t-29.5 12.5z" />
<glyph unicode="&#xb9;" horiz-adv-x="557" d="M256 997q0 10 16.5 18.5t22.5 10.5q43 14 86 26.5t82 37.5q14 25 36.5 59.5t53.5 34.5q18 0 29.5 -14.5t11.5 -30.5q0 -14 -12.5 -30.5t-29.5 -33t-36 -31t-31 -22.5q-20 -33 -36.5 -77t-28.5 -91t-21.5 -94t-15.5 -86q-2 -16 -18.5 -41t-40.5 -25q-10 0 -14.5 8.5 t-4.5 16.5q0 14 13.5 60t31 102.5t37 111t31.5 84.5q-25 -8 -50.5 -13t-52.5 -5q-12 0 -35.5 3t-23.5 21z" />
<glyph unicode="&#xba;" horiz-adv-x="688" d="M259 676.5q7 13.5 29.5 25t58.5 17.5t79 4q37 -2 65.5 -4t54 -3t52.5 -2t64 -3q10 -2 37.5 -4t37.5 -9q4 -4 7.5 -8t-1.5 -12q-4 -4 -30.5 -10t-77.5 -11q-49 -4 -99.5 -6t-92.5 -5t-72.5 -4t-40.5 -1q-49 -4 -66 12q-12 10 -5 23.5zM429 855q1 26 8 49.5t14 39.5 q-10 20 4 49q12 18 38.5 46t61.5 50.5t75 38t79 9.5q37 -6 53 -30t16 -56.5t-13.5 -71.5t-33.5 -72q-20 -35 -50 -67.5t-65.5 -53t-73.5 -25.5t-77 13q-23 10 -30 32.5t-6 48.5zM477 825.5q2 -18.5 23 -24.5q25 -8 52.5 7t54 44t49 65.5t36 72.5t15.5 63.5t-15 38.5 q-16 10 -36.5 1.5t-41 -24.5t-37 -36t-24.5 -32q2 -18 -10.5 -34.5t-22.5 -30.5q-6 -10 -18.5 -29.5t-19.5 -41t-5 -40z" />
<glyph unicode="&#xbb;" horiz-adv-x="706" d="M68 25q0 37 37.5 81t84 93t84 104.5t37.5 114.5q0 20 -7 42.5t-16 44t-16.5 44t-7.5 45.5q0 10 7.5 28.5t21.5 18.5q16 0 42.5 -33t51.5 -76t43.5 -83.5t18.5 -59.5q0 -23 -21.5 -59.5t-56.5 -77.5t-77 -83t-83 -76t-77 -55.5t-54 -21.5q-12 0 -12 9zM381 27q0 37 38 81 t84 94t85 103.5t39 108.5q0 20 -8.5 42.5t-17.5 45t-17.5 45t-8.5 45.5q0 12 9.5 31.5t25.5 19.5q14 0 40 -34t51.5 -77t44 -84.5t18.5 -58.5q0 -23 -22.5 -59.5t-57.5 -77.5t-78 -83t-84 -76t-75.5 -55.5t-53.5 -21.5q-12 0 -12 11z" />
<glyph unicode="&#xbc;" horiz-adv-x="1177" d="M111 0q0 16 16 36.5t27 33.5q111 137 224.5 270t223.5 268q117 145 227.5 290.5t227.5 291.5q16 20 40.5 42.5t53.5 22.5q18 0 36.5 -12t18.5 -33q0 -23 -15 -40t-30 -33q-135 -141 -266 -283.5t-260 -292.5q-111 -129 -219.5 -259t-222.5 -257q-14 -16 -31.5 -33.5 t-42.5 -17.5q-8 0 -8 6zM219 944q0 10 17.5 16.5t25.5 8.5q61 20 112.5 34.5t106.5 53.5q6 14 18.5 33.5t27 38t30.5 30.5t33 12q16 0 27.5 -13.5t11.5 -29.5t-16.5 -36.5t-38 -40t-44 -37t-36.5 -25.5q-29 -45 -51.5 -102.5t-39 -118.5t-29 -122.5t-18.5 -113.5 q-4 -20 -22.5 -47.5t-40.5 -27.5q-8 0 -10 6t-2 12q0 16 9 54t24.5 86.5t34 102.5t35.5 103t32.5 86t23.5 54q-37 -14 -75.5 -24.5t-79.5 -10.5h-15.5t-22.5 2t-19.5 6t-8.5 10zM528 1081q18 8 39 20.5t21 35.5l-6 4q-16 -6 -29.5 -25.5t-24.5 -34.5zM815 387q0 25 15.5 82 t38 117.5t51 105.5t57.5 45q18 0 18 -14q0 -12 -23.5 -52t-51 -91.5t-51 -107.5t-23.5 -103q0 -55 51 -56q51 0 87 31t62.5 76t48 99t45 99.5t50.5 76t63 30.5q16 0 17 -12q0 -12 -21.5 -50t-55.5 -94.5t-72 -126t-71.5 -145.5t-55 -151.5t-21.5 -143.5q0 -8 -3 -20.5 t-14 -12.5q-29 0 -36 21.5t-7 44.5q0 33 9.5 68.5t22.5 72.5t27.5 73t24.5 68q-18 -14 -39.5 -23t-46.5 -9q-49 0 -72.5 27.5t-23.5 74.5z" />
<glyph unicode="&#xbd;" horiz-adv-x="1167" d="M156 0q0 18 14 36.5t25 31.5q111 137 224 270t224 270q117 143 229.5 288.5t229.5 291.5q16 20 39.5 42.5t52.5 22.5q18 0 35.5 -13t17.5 -34q0 -23 -13 -39t-28 -32q-133 -143 -266 -284.5t-262 -291.5q-111 -129 -217.5 -261t-220.5 -255q-16 -16 -33.5 -32.5 t-44.5 -16.5q-6 0 -6 6zM262 938q0 6 35 21.5t81 33t89 32.5t59 26q6 12 17.5 32.5t25 39t28.5 31.5t32 13q18 0 29.5 -12.5t11.5 -28.5t-15.5 -36.5t-37 -41t-45 -37t-37.5 -24.5q-59 -100 -89 -220t-47 -235q-4 -20 -22.5 -48.5t-40.5 -28.5q-6 0 -8 6t-2 10 q0 25 20.5 93.5t46 148.5t52 150.5t38.5 97.5q-37 -16 -75.5 -25.5t-79.5 -9.5h-14.5t-21.5 1t-20.5 4t-9.5 7zM575 1079q16 8 36 19.5t20 34.5q0 8 -4 8q-16 0 -32 -25t-20 -37zM733 129q0 23 18.5 38t43 24.5t51 12.5t45.5 -1q29 33 74 94t87 130t72.5 134.5t30.5 106.5 q0 14 -5 24t-22 10q-39 0 -69.5 -23.5t-55 -53t-43 -53t-32.5 -23.5q-20 0 -21 22q0 31 23.5 61t57.5 52.5t71 36.5t63 14q33 0 45.5 -20t12.5 -49q0 -45 -26 -112t-61.5 -136.5t-75.5 -131t-67 -98.5q12 -8 27.5 -25.5t31 -35.5t30 -31.5t24.5 -13.5q12 0 24.5 16.5 t23.5 35t19.5 34.5t14.5 16q10 0 16 -17t6 -26q0 -16 -10 -32.5t-25.5 -28.5t-34 -19.5t-32.5 -7.5q-25 0 -41 13.5t-30.5 32t-29 36t-34.5 25.5q-10 -12 -25.5 -30.5t-33 -34t-36 -27t-36.5 -11.5q-27 0 -46.5 24.5t-19.5 47.5zM772 133q0 -8 7 -12t14 -4q16 0 41.5 23.5 t35.5 35.5q-8 0 -24.5 -2t-32.5 -7t-28.5 -13.5t-12.5 -20.5z" />
<glyph unicode="&#xbe;" horiz-adv-x="1331" d="M207 8q0 16 16.5 37t26.5 31q229 281 455.5 557t451.5 563q16 20 39 43t51 23q20 0 38 -13.5t18 -34.5q0 -23 -14.5 -40t-26.5 -31q-135 -141 -267.5 -283.5t-261.5 -292.5q-111 -129 -219 -259t-221 -257l-33.5 -33.5t-42.5 -17.5q-10 0 -10 8zM209 520q0 10 10 12.5 t19 2.5q23 0 46 -4.5t46 -4.5q86 0 143 48.5t57 136.5q0 41 -16 76.5t-41 68.5q-20 -16 -44.5 -26.5t-51.5 -10.5q-29 0 -37 14.5t-8 40.5q0 31 24.5 40.5t49.5 9.5q43 0 75 -33q18 14 42 37.5t45.5 49.5t35.5 53.5t14 51.5q0 37 -38 37q-41 0 -79 -12t-77 -12q-6 0 -22.5 2 t-16.5 10q23 31 66 44t79 13q18 0 39 -2t38.5 -8t28.5 -19.5t11 -35.5q0 -29 -14.5 -61.5t-37 -63.5t-48 -56.5t-45.5 -44.5q29 -35 47 -75.5t18 -87.5q0 -55 -21.5 -99.5t-56 -75t-83 -47t-99.5 -16.5q-12 0 -28.5 1t-32 5t-26.5 14.5t-11 26.5zM365 868q0 -10 7 -15t15 -5 q18 0 36.5 8t33.5 18q-20 20 -43 21q-12 0 -30.5 -5t-18.5 -22zM967 395q0 16 7 48t18.5 71t27.5 80t33.5 73.5t37 54t37.5 21.5q20 0 21 -16q0 -14 -23.5 -55t-51 -92.5t-51.5 -107.5t-24 -101q0 -51 50 -52q49 0 84.5 31t63.5 76t50.5 99.5t46 99.5t50 75.5t63.5 30.5 q16 0 16 -12t-22.5 -50t-55 -94.5t-71.5 -127t-72 -147.5t-55.5 -154.5t-22.5 -149.5q0 -4 -2 -12.5t-10 -8.5q-29 0 -37 24t-8 46q0 33 9 69t22.5 71.5t29 71.5t25.5 67q-18 -14 -40.5 -23.5t-45.5 -9.5q-49 0 -74.5 27.5t-25.5 76.5z" />
<glyph unicode="&#xbf;" horiz-adv-x="796" d="M197 104q-14 51 12.5 117.5t77.5 138.5q35 49 86 96.5t106.5 92.5t106.5 89t89 91t54 97.5t0 105.5q-10 37 -1 59.5t23.5 23.5t29 -24.5t12.5 -85.5q-2 -86 -55.5 -172t-127 -169t-155.5 -164t-142 -154q-61 -78 -70.5 -130.5t15.5 -74.5q33 -35 82 -28t100.5 34 t96.5 62.5t71 60.5q45 41 47 74q2 20 22.5 34.5t38 14.5t18.5 -18.5t-38 -61.5q-18 -20 -57 -58t-88 -74t-103.5 -64.5t-103.5 -34t-89 21.5t-58 100zM679 1149q-1 31 15 51q27 31 48.5 25t32.5 -31t9 -59.5t-22 -59.5q-20 -23 -40 -13.5t-31 33t-12 54.5z" />
<glyph unicode="&#xc0;" horiz-adv-x="929" d="M110 -86q5 39 28.5 102.5t59 143.5t76.5 162q29 59 74 144t100.5 177t119 184.5t131 168t138 125.5t138.5 61q27 4 40 -9.5t18 -38t2 -60.5t-7 -77q-12 -96 -36.5 -215.5t-53.5 -244.5q31 -2 62.5 -2h64.5q39 2 72.5 2t50.5 -11q18 -8 -17.5 -20t-99.5 -27l-71.5 -13 t-81.5 -15q-23 -84 -44.5 -162t-39.5 -144q-12 -39 -22.5 -70.5t-22 -51t-25.5 -23.5t-33 14q-12 12 -12 51t8 89q12 72 29.5 140t36.5 138q-86 -8 -166 -6t-138 29q-8 4 -18 13t-17.5 21.5t-9.5 24.5t9 23q10 12 28.5 15t40.5 3q76 0 151 -5t150 -9q35 113 68 223t55 225 q14 70 16.5 114t-12.5 36q-82 -37 -147.5 -90.5t-120.5 -116t-102.5 -131t-90.5 -137.5q-76 -121 -139 -246t-110 -248q-25 -66 -40.5 -120t-26.5 -93t-22.5 -60.5t-25.5 -21.5q-20 0 -15 39zM653 1432q0 18 28 27t42 9q18 0 60 -27.5t84 -62.5t75 -65.5t33 -38.5 q0 -6 -6 -9t-13 -3q-2 0 -25.5 10t-57 25.5t-72.5 34t-72 38t-54.5 36t-21.5 26.5z" />
<glyph unicode="&#xc1;" horiz-adv-x="864" d="M52.5 -86q4.5 39 28 102.5t59.5 143.5t77 162q29 59 74 144t100 177t118.5 184.5t131.5 168t138.5 125.5t138.5 61q27 4 40 -9.5t18 -38t2 -60.5t-7 -77q-12 -96 -37 -215.5t-53 -244.5q31 -2 62.5 -2h64.5q39 2 72.5 2t49.5 -11q18 -8 -17.5 -20t-98.5 -27 q-33 -6 -72 -13t-82 -15q-23 -84 -44.5 -162t-39.5 -144q-12 -39 -22.5 -70.5t-21.5 -51t-25.5 -23.5t-32.5 14q-12 12 -12 51t8 89q12 72 29.5 140t35.5 138q-86 -8 -166 -6t-137 29q-8 4 -18.5 13t-17.5 21.5t-9 24.5t8 23q10 12 28.5 15t41.5 3q76 0 150.5 -5t150.5 -9 q35 113 67.5 223t55.5 225q14 70 16 114t-12 36q-82 -37 -147.5 -90.5t-121 -116t-102.5 -131t-90 -137.5q-76 -121 -139.5 -246t-110.5 -248q-25 -66 -40 -120t-26.5 -93t-22.5 -60.5t-25 -21.5q-20 0 -15.5 39zM936 1274q0 8 31.5 38.5t74.5 65.5t84 62.5t60 27.5 q16 0 43.5 -9t27.5 -27q0 -10 -21.5 -26.5t-54 -36t-71.5 -38t-72.5 -34t-58.5 -25.5t-27 -10q-16 0 -16 12z" />
<glyph unicode="&#xc2;" horiz-adv-x="866" d="M52.5 -86q4.5 39 28 102.5t59.5 143.5t77 162q29 59 74 144t100 177t118.5 184.5t131.5 168t138.5 125.5t138.5 61q27 4 40 -9.5t18 -38t2 -60.5t-7 -77q-12 -96 -37 -215.5t-53 -244.5q31 -2 62.5 -2h64.5q39 2 72.5 2t49.5 -11q18 -8 -17.5 -20t-98.5 -27 q-33 -6 -72 -13t-82 -15q-23 -84 -44.5 -162t-39.5 -144q-12 -39 -22.5 -70.5t-21.5 -51t-25.5 -23.5t-32.5 14q-12 12 -12 51t8 89q12 72 29.5 140t35.5 138q-86 -8 -166 -6t-137 29q-8 4 -18.5 13t-17.5 21.5t-9 24.5t8 23q10 12 28.5 15t41.5 3q76 0 150.5 -5t150.5 -9 q35 113 67.5 223t55.5 225q14 70 16 114t-12 36q-82 -37 -147.5 -90.5t-121 -116t-102.5 -131t-90 -137.5q-76 -121 -139.5 -246t-110.5 -248q-25 -66 -40 -120t-26.5 -93t-22.5 -60.5t-25 -21.5q-20 0 -15.5 39zM700 1266q2 25 40 58.5t87.5 64t98.5 51t71 20.5 q23 0 53.5 -21.5t57.5 -50t45 -60.5t18 -52q0 -10 -7 -14.5t-17 -4.5q-18 0 -36.5 13.5t-38 30t-41 29.5t-48.5 13q-39 0 -76 -13t-70.5 -29.5t-64.5 -31t-61 -14.5z" />
<glyph unicode="&#xc3;" horiz-adv-x="864" d="M52.5 -86q4.5 39 28 102.5t59.5 143.5t77 162q29 59 74 144t100 177t118.5 184.5t131.5 168t138.5 125.5t138.5 61q27 4 40 -9.5t18 -38t2 -60.5t-7 -77q-12 -96 -37 -215.5t-53 -244.5q31 -2 62.5 -2h64.5q39 2 72.5 2t49.5 -11q18 -8 -17.5 -20t-98.5 -27 q-33 -6 -72 -13t-82 -15q-23 -84 -44.5 -162t-39.5 -144q-12 -39 -22.5 -70.5t-21.5 -51t-25.5 -23.5t-32.5 14q-12 12 -12 51t8 89q12 72 29.5 140t35.5 138q-86 -8 -166 -6t-137 29q-8 4 -18.5 13t-17.5 21.5t-9 24.5t8 23q10 12 28.5 15t41.5 3q76 0 150.5 -5t150.5 -9 q35 113 67.5 223t55.5 225q14 70 16 114t-12 36q-82 -37 -147.5 -90.5t-121 -116t-102.5 -131t-90 -137.5q-76 -121 -139.5 -246t-110.5 -248q-25 -66 -40 -120t-26.5 -93t-22.5 -60.5t-25 -21.5q-20 0 -15.5 39zM629 1274q0 23 26.5 56.5t64.5 65t77 54.5t63 23 q33 0 56.5 -16.5t43 -36t39 -36t41.5 -16.5q25 0 46.5 15.5t41 34t39 33.5t39.5 15q4 0 5 -5t1 -7q0 -27 -19 -59.5t-47 -62t-61.5 -49t-60.5 -19.5q-37 0 -57.5 16t-37 35.5t-33.5 36t-48 16.5q-41 0 -72 -17.5t-54.5 -37t-43 -36.5t-35.5 -17q-14 0 -14 14z" />
<glyph unicode="&#xc4;" horiz-adv-x="870" d="M52.5 -86q4.5 39 28 102.5t59.5 143.5t77 162q29 59 74 144t100 177t118.5 184.5t131.5 168t138.5 125.5t138.5 61q27 4 40 -9.5t18 -38t2 -60.5t-7 -77q-12 -96 -37 -215.5t-53 -244.5q31 -2 62.5 -2h64.5q39 2 72.5 2t49.5 -11q18 -8 -17.5 -20t-98.5 -27 q-33 -6 -72 -13t-82 -15q-23 -84 -44.5 -162t-39.5 -144q-12 -39 -22.5 -70.5t-21.5 -51t-25.5 -23.5t-32.5 14q-12 12 -12 51t8 89q12 72 29.5 140t35.5 138q-86 -8 -166 -6t-137 29q-8 4 -18.5 13t-17.5 21.5t-9 24.5t8 23q10 12 28.5 15t41.5 3q76 0 150.5 -5t150.5 -9 q35 113 67.5 223t55.5 225q14 70 16 114t-12 36q-82 -37 -147.5 -90.5t-121 -116t-102.5 -131t-90 -137.5q-76 -121 -139.5 -246t-110.5 -248q-25 -66 -40 -120t-26.5 -93t-22.5 -60.5t-25 -21.5q-20 0 -15.5 39zM684 1294q0 47 38 85t85 38q33 0 33 -37q0 -51 -30 -84.5 t-83 -33.5q-16 0 -29.5 6t-13.5 26zM1032 1294q0 47 37 85t84 38q37 0 37 -37q0 -51 -32 -84.5t-83 -33.5q-16 0 -29.5 6t-13.5 26z" />
<glyph unicode="&#xc5;" horiz-adv-x="864" d="M52.5 -86q4.5 39 28 102.5t59.5 143.5t77 162q29 59 74 144t100 177t118.5 184.5t131.5 168t138.5 125.5t138.5 61q27 4 40 -9.5t18 -38t2 -60.5t-7 -77q-12 -96 -37 -215.5t-53 -244.5q31 -2 62.5 -2h64.5q39 2 72.5 2t49.5 -11q18 -8 -17.5 -20t-98.5 -27 q-33 -6 -72 -13t-82 -15q-23 -84 -44.5 -162t-39.5 -144q-12 -39 -22.5 -70.5t-21.5 -51t-25.5 -23.5t-32.5 14q-12 12 -12 51t8 89q12 72 29.5 140t35.5 138q-86 -8 -166 -6t-137 29q-8 4 -18.5 13t-17.5 21.5t-9 24.5t8 23q10 12 28.5 15t41.5 3q76 0 150.5 -5t150.5 -9 q35 113 67.5 223t55.5 225q14 70 16 114t-12 36q-82 -37 -147.5 -90.5t-121 -116t-102.5 -131t-90 -137.5q-76 -121 -139.5 -246t-110.5 -248q-25 -66 -40 -120t-26.5 -93t-22.5 -60.5t-25 -21.5q-20 0 -15.5 39zM848 1323q-10 53 22.5 94t92.5 51q2 4 11 12.5t21 10.5 q59 4 97 -27t36 -88q-2 -59 -53 -94t-108 -39q-43 -4 -77 15.5t-42 64.5zM880 1355.5q1 -16.5 23.5 -30.5t67.5 -14q59 -2 89 16.5t34 38.5t-17.5 35.5t-64.5 9.5q-10 -10 -22.5 -10h-22.5q-43 0 -65.5 -14.5t-21.5 -31z" />
<glyph unicode="&#xc6;" horiz-adv-x="1478" d="M54.5 -91q4.5 38 28 101.5t58.5 143t76 161.5q29 59 73 144.5t99 176.5t118.5 182t132.5 166t138.5 125t139.5 60q14 2 40.5 -2t62.5 -8t81 -7t94 1q88 6 191.5 3t196.5 -9t163 -14.5t94 -10.5q29 -4 31 -20.5t-43 -16.5q-31 0 -78 4.5t-104.5 8.5t-123 6t-130.5 -2 q-43 -6 -93.5 -15.5t-103.5 -17.5t-108.5 -10t-112.5 6q-8 -117 -31.5 -243t-50.5 -240q61 16 120.5 25t125.5 16q10 16 23.5 38.5t27.5 47t27.5 47t23.5 39.5q39 70 62.5 138t35.5 99q8 23 14.5 28t9.5 0t2 -17.5t-3 -26.5q-6 -31 -23.5 -75t-41 -96t-52 -105.5 t-55.5 -102.5q78 8 157.5 6t168.5 -6q72 -4 66.5 -18.5t-64.5 -20.5q-61 -6 -110.5 -13t-94.5 -14.5t-88 -16.5t-92 -19q-23 -37 -60 -97.5t-71.5 -123t-58 -113.5t-15.5 -66q53 27 125.5 55.5t154.5 34.5q16 0 47 2t68 3t75 3.5t70 4.5q55 2 76 -7.5t12.5 -23.5t-39 -28.5 t-75.5 -20.5q-63 -10 -112.5 -12.5t-93.5 -7.5t-89 -18.5t-100 -45.5q-98 -55 -158 -65.5t-66 11.5q-6 25 13.5 77.5t55.5 119t83 144t96 155.5q-47 -16 -103.5 -27.5t-103.5 -19.5q-23 -86 -47.5 -175t-42.5 -155q-12 -39 -22.5 -70.5t-21.5 -50t-24.5 -22.5t-31.5 14 q-14 10 -14.5 49t10.5 91q10 70 29.5 149.5t39.5 149.5q-86 -20 -168 -23.5t-137 23.5q-29 14 -40 31.5t-6 32.5t25.5 25.5t51.5 10.5q74 -10 148.5 -5t154.5 23q2 4 21.5 65.5t42 143.5t43 166t26.5 135q4 43 -10 44t-39 -11q-74 -39 -133.5 -90t-109.5 -109.5t-93 -123 t-84 -130.5q-74 -119 -138.5 -244.5t-111.5 -250.5q-25 -66 -40 -119t-25.5 -91t-21.5 -59.5t-25 -21.5q-20 0 -15.5 38z" />
<glyph unicode="&#xc7;" horiz-adv-x="839" d="M106 160q-8 74 13.5 157.5t65.5 170.5t103.5 172t126 162t134 140.5t129.5 106.5q59 41 123.5 66.5t134.5 29.5q92 4 126 -39t28 -104q-2 -29 -12.5 -62.5t-26 -66.5t-36 -60.5t-44.5 -46.5q-25 -18 -46.5 -22t-27.5 4t7.5 26.5t56.5 47.5q41 27 69.5 81t32.5 106 t-23.5 86t-99.5 18q-94 -23 -169 -81.5t-142 -127.5q-29 -29 -75 -86.5t-98.5 -130t-103.5 -155.5t-90 -165t-59.5 -156.5t-8 -131t61.5 -88t147 -27.5q68 2 137.5 31.5t132 68.5t116 80t88.5 67q39 29 50 28t7 -15.5t-21.5 -37t-38.5 -36.5q-37 -29 -95 -64.5t-127.5 -68.5 t-143.5 -57.5t-141 -28.5q-41 -2 -82 4q-8 -18 2 -29.5t25.5 -23t26.5 -27.5t3 -47q-6 -23 -21.5 -37t-37 -23.5t-45 -13.5t-41.5 -6q-31 -2 -53.5 3t-30 12.5t0 14.5t36.5 11q35 4 55 13.5t31 29.5q12 25 -1.5 43.5t-33 36.5t-32.5 41.5t1 60.5q-29 29 -44 66t-20 80z" />
<glyph unicode="&#xc8;" horiz-adv-x="788" d="M103 534.5q-1 18.5 20.5 39t75.5 32.5q70 16 133 27.5t127 19.5q47 78 86 149.5t71 158.5q12 33 19.5 50t17.5 17q10 -25 -5 -73t-44 -111q-23 -47 -47.5 -94.5t-50.5 -94.5q86 10 165 8t165 -6q78 -4 60.5 -20t-95.5 -21q-86 -4 -174 -20t-174 -33q-45 -78 -90.5 -151.5 t-79 -134t-52 -102.5t-12.5 -54q70 33 138.5 52.5t138 29.5t140.5 14t146 6q43 2 60.5 -5t14.5 -18.5t-22.5 -23.5t-48.5 -22q-59 -18 -113.5 -22.5t-107.5 -8.5t-108.5 -15.5t-114.5 -46.5q-98 -57 -158.5 -68t-66.5 11q-8 29 14.5 85t62 129t93 159t108.5 174 q-59 -12 -116.5 -25.5t-104.5 -23.5q-31 -6 -50.5 4t-20.5 28.5zM219 1077q-2 16 18.5 29.5t57.5 21.5q70 16 171 20.5t210.5 3.5t213 -7t175.5 -12q4 0 21.5 -1.5t37 -3.5t36 -7t18.5 -13q4 -18 -60 -25q-66 -4 -179.5 -3t-238.5 -3q-94 -4 -184 -24.5t-182 -36.5 q-41 -6 -76 7t-39 54zM453 1432q0 18 27.5 27t43.5 9q18 0 59.5 -27.5t84.5 -62.5t74.5 -65.5t31.5 -38.5q0 -6 -6 -9t-12 -3q-2 0 -25.5 10t-57.5 25.5t-73 34t-71.5 38t-54 36t-21.5 26.5z" />
<glyph unicode="&#xc9;" horiz-adv-x="794" d="M103 534.5q-1 18.5 20.5 39t75.5 32.5q70 16 133 27.5t127 19.5q47 78 86 149.5t71 158.5q12 33 19.5 50t17.5 17q10 -25 -5 -73t-44 -111q-23 -47 -47.5 -94.5t-50.5 -94.5q86 10 165 8t165 -6q78 -4 60.5 -20t-95.5 -21q-86 -4 -174 -20t-174 -33q-45 -78 -90.5 -151.5 t-79 -134t-52 -102.5t-12.5 -54q70 33 138.5 52.5t138 29.5t140.5 14t146 6q43 2 60.5 -5t14.5 -18.5t-22.5 -23.5t-48.5 -22q-59 -18 -113.5 -22.5t-107.5 -8.5t-108.5 -15.5t-114.5 -46.5q-98 -57 -158.5 -68t-66.5 11q-8 29 14.5 85t62 129t93 159t108.5 174 q-59 -12 -116.5 -25.5t-104.5 -23.5q-31 -6 -50.5 4t-20.5 28.5zM219 1077q-2 16 18.5 29.5t57.5 21.5q70 16 171 20.5t210.5 3.5t213 -7t175.5 -12q4 0 21.5 -1.5t37 -3.5t36 -7t18.5 -13q4 -18 -60 -25q-66 -4 -179.5 -3t-238.5 -3q-94 -4 -184 -24.5t-182 -36.5 q-41 -6 -76 7t-39 54zM702 1274q0 8 33 38.5t75 65.5t84 62.5t60 27.5q14 0 42 -9t28 -27q0 -10 -21.5 -26.5t-54.5 -36t-71.5 -38t-72.5 -34t-57.5 -25.5t-25.5 -10q-6 0 -12.5 3t-6.5 9z" />
<glyph unicode="&#xca;" horiz-adv-x="794" d="M103 534.5q-1 18.5 20.5 39t75.5 32.5q70 16 133 27.5t127 19.5q47 78 86 149.5t71 158.5q12 33 19.5 50t17.5 17q10 -25 -5 -73t-44 -111q-23 -47 -47.5 -94.5t-50.5 -94.5q86 10 165 8t165 -6q78 -4 60.5 -20t-95.5 -21q-86 -4 -174 -20t-174 -33q-45 -78 -90.5 -151.5 t-79 -134t-52 -102.5t-12.5 -54q70 33 138.5 52.5t138 29.5t140.5 14t146 6q43 2 60.5 -5t14.5 -18.5t-22.5 -23.5t-48.5 -22q-59 -18 -113.5 -22.5t-107.5 -8.5t-108.5 -15.5t-114.5 -46.5q-98 -57 -158.5 -68t-66.5 11q-8 29 14.5 85t62 129t93 159t108.5 174 q-59 -12 -116.5 -25.5t-104.5 -23.5q-31 -6 -50.5 4t-20.5 28.5zM219 1077q-2 16 18.5 29.5t57.5 21.5q70 16 171 20.5t210.5 3.5t213 -7t175.5 -12q4 0 21.5 -1.5t37 -3.5t36 -7t18.5 -13q4 -18 -60 -25q-66 -4 -179.5 -3t-238.5 -3q-94 -4 -184 -24.5t-182 -36.5 q-41 -6 -76 7t-39 54zM578 1266q2 25 39.5 58.5t87 64t98.5 51t71 20.5q23 0 53.5 -21.5t57.5 -50t45.5 -60.5t18.5 -52q0 -10 -7.5 -14.5t-17.5 -4.5q-18 0 -35.5 13.5t-37 30t-41 29.5t-48.5 13q-39 0 -75.5 -13t-70.5 -29.5t-66 -31t-62 -14.5z" />
<glyph unicode="&#xcb;" horiz-adv-x="796" d="M103 534.5q-1 18.5 20.5 39t75.5 32.5q70 16 133 27.5t127 19.5q47 78 86 149.5t71 158.5q12 33 19.5 50t17.5 17q10 -25 -5 -73t-44 -111q-23 -47 -47.5 -94.5t-50.5 -94.5q86 10 165 8t165 -6q78 -4 60.5 -20t-95.5 -21q-86 -4 -174 -20t-174 -33q-45 -78 -90.5 -151.5 t-79 -134t-52 -102.5t-12.5 -54q70 33 138.5 52.5t138 29.5t140.5 14t146 6q43 2 60.5 -5t14.5 -18.5t-22.5 -23.5t-48.5 -22q-59 -18 -113.5 -22.5t-107.5 -8.5t-108.5 -15.5t-114.5 -46.5q-98 -57 -158.5 -68t-66.5 11q-8 29 14.5 85t62 129t93 159t108.5 174 q-59 -12 -116.5 -25.5t-104.5 -23.5q-31 -6 -50.5 4t-20.5 28.5zM219 1077q-2 16 18.5 29.5t57.5 21.5q70 16 171 20.5t210.5 3.5t213 -7t175.5 -12q4 0 21.5 -1.5t37 -3.5t36 -7t18.5 -13q4 -18 -60 -25q-66 -4 -179.5 -3t-238.5 -3q-94 -4 -184 -24.5t-182 -36.5 q-41 -6 -76 7t-39 54zM602 1294q0 47 38 85t85 38q33 0 33 -37q0 -51 -30 -84.5t-81 -33.5q-18 0 -31.5 6t-13.5 26zM950 1294q0 47 37 85t84 38q37 0 37 -37q0 -51 -30.5 -84.5t-84.5 -33.5q-16 0 -29.5 6t-13.5 26z" />
<glyph unicode="&#xcc;" horiz-adv-x="344" d="M83 -97.5q-7 19.5 13 66.5q27 61 65 167t82 231t88 256t81 246.5t64.5 201.5t35.5 119q14 55 25.5 61t17.5 -17.5t5 -65.5t-9 -81q-10 -45 -32.5 -130t-52.5 -190t-65.5 -222t-71.5 -227.5t-72 -206t-64 -156.5q-14 -31 -39 -50.5t-44.5 -20.5t-26.5 18.5zM176 1432 q0 18 28.5 27t43.5 9q18 0 59 -27.5t84 -62.5t75 -65.5t32 -38.5q0 -12 -17 -12q-2 0 -26.5 10t-58.5 25.5t-72.5 34t-71.5 38t-54.5 36t-21.5 26.5z" />
<glyph unicode="&#xcd;" horiz-adv-x="350" d="M83 -97.5q-7 19.5 13 66.5q27 61 65 167t82 231t88 256t81 246.5t64.5 201.5t35.5 119q14 55 25.5 61t17.5 -17.5t5 -65.5t-9 -81q-10 -45 -32.5 -130t-52.5 -190t-65.5 -222t-71.5 -227.5t-72 -206t-64 -156.5q-14 -31 -39 -50.5t-44.5 -20.5t-26.5 18.5zM582 1274 q0 8 31.5 38.5t74.5 65.5t84 62.5t59 27.5q14 0 43 -9t29 -27q0 -10 -21.5 -26.5t-54 -36t-71.5 -38t-73 -34t-58.5 -25.5t-26.5 -10q-16 0 -16 12z" />
<glyph unicode="&#xce;" horiz-adv-x="339" d="M83 -97.5q-7 19.5 13 66.5q27 61 65 167t82 231t88 256t81 246.5t64.5 201.5t35.5 119q14 55 25.5 61t17.5 -17.5t5 -65.5t-9 -81q-10 -45 -32.5 -130t-52.5 -190t-65.5 -222t-71.5 -227.5t-72 -206t-64 -156.5q-14 -31 -39 -50.5t-44.5 -20.5t-26.5 18.5zM311 1266 q2 25 40 58.5t88 64t98.5 51t72.5 20.5q23 0 52.5 -21.5t56 -50t45 -60.5t18.5 -52q0 -18 -22 -19q-18 0 -36.5 13.5t-38 30t-41 29.5t-48.5 13q-39 0 -76 -13t-70.5 -29.5t-65.5 -31t-62 -14.5z" />
<glyph unicode="&#xcf;" horiz-adv-x="356" d="M83 -97.5q-7 19.5 13 66.5q27 61 65 167t82 231t88 256t81 246.5t64.5 201.5t35.5 119q14 55 25.5 61t17.5 -17.5t5 -65.5t-9 -81q-10 -45 -32.5 -130t-52.5 -190t-65.5 -222t-71.5 -227.5t-72 -206t-64 -156.5q-14 -31 -39 -50.5t-44.5 -20.5t-26.5 18.5zM307 1294 q0 47 37 85t84 38q35 0 35 -37q0 -51 -30 -84.5t-83 -33.5q-16 0 -29.5 6t-13.5 26zM653 1294q0 47 37 85t84 38q39 0 39 -37q0 -51 -31.5 -84.5t-83.5 -33.5q-16 0 -30.5 6t-14.5 26z" />
<glyph unicode="&#xd0;" horiz-adv-x="948" d="M-113 -53q4 14 28 19t52.5 5t57 -2t41.5 -2q147 0 299.5 28t293.5 66q139 37 237.5 131.5t168.5 217.5q25 45 41 94t16 102q0 80 -34.5 148.5t-91 123t-127 92.5t-140.5 60q-68 23 -129 28t-133 5h-26.5t-37 2t-33 8t-14.5 19q0 25 13.5 40t34 24t43 13.5t40.5 4.5 q100 0 217 -41t218.5 -114t169 -170t67.5 -208q0 -53 -15.5 -105.5t-37.5 -99.5q-66 -135 -177.5 -236.5t-247.5 -168t-287 -99t-294 -32.5q-12 0 -47 2t-71.5 7t-65.5 14t-29 24zM193 520q0 16 18 27.5t41.5 17.5t47.5 8t34 2q66 0 132 -8t130 -14q33 86 66.5 173t60.5 177 q2 6 5 16.5t7 20.5t10.5 18.5t14.5 8.5q10 0 18 -9.5t13.5 -22.5t8.5 -26.5t3 -21.5q0 -27 -13.5 -73t-32 -96t-38 -97.5t-31.5 -75.5q10 -2 35 -4t49.5 -5.5t44 -11.5t19.5 -22q0 -12 -25 -17.5t-57.5 -6.5t-62.5 -1h-38q-8 -16 -36.5 -72.5t-61.5 -117t-62.5 -108.5 t-41.5 -48q-8 6 -9 19q0 25 15.5 68.5t36 91.5t41 93.5t30.5 73.5q-23 -2 -47 -2h-49q-16 0 -61.5 1t-93.5 6t-84.5 13.5t-36.5 24.5z" />
<glyph unicode="&#xd1;" horiz-adv-x="901" d="M110.5 -30q-8.5 38 10.5 91q39 106 88 243.5t95 283t84 291t54 272.5q4 27 15.5 40t21.5 13t17.5 -13t5.5 -44q-2 -29 -9.5 -58.5t-13.5 -55t-10 -43t-2 -21.5q23 29 40 59.5t38 54.5q27 35 59.5 71t57.5 44q63 18 96 -21.5t44 -116.5t7 -181.5t-15.5 -217t-24.5 -222 t-19.5 -195.5t0 -139.5t32.5 -53.5q20 0 49 72t63 182.5t69.5 245.5t69.5 263t63.5 231.5t50.5 152.5q12 27 25.5 28t21.5 -13.5t7 -39t-15 -45.5q-37 -51 -73 -160.5t-72.5 -244.5t-74.5 -279.5t-77 -262.5t-79 -193.5t-81 -75.5q-43 0 -62.5 49t-23.5 129t4 183.5 t20.5 211t25 212t17.5 188.5t0 137t-30 61q-59 18 -116.5 -41t-107.5 -161.5t-94.5 -233.5t-77 -259t-54 -236.5t-27.5 -165.5q-6 -53 -26.5 -67.5t-39 -0.5t-27 52zM592 1274q0 23 26.5 56.5t63.5 65t77 54.5t64 23q33 0 56.5 -16.5t43 -36t39 -36t42.5 -16.5q25 0 46 15.5 t40.5 34t39 33.5t39.5 15q4 0 5.5 -5t1.5 -7q0 -27 -19.5 -59.5t-47.5 -62t-61.5 -49t-60.5 -19.5q-37 0 -57.5 16t-36.5 35.5t-33.5 36t-48.5 16.5q-41 0 -71.5 -17.5t-55.5 -37t-43 -36.5t-35 -17q-14 0 -14 14z" />
<glyph unicode="&#xd2;" horiz-adv-x="765" d="M207 333q6 87 16 148q20 125 63.5 239t84.5 185q-2 12 -3 31.5t13 38.5q27 35 57.5 73.5t71.5 73.5q74 66 162 90.5t186 1.5q82 -18 114 -101t24.5 -200.5t-47.5 -257t-101 -270.5q-27 -55 -75 -138t-110.5 -158t-137 -121.5t-152.5 -30.5q-76 14 -113 78.5t-48 147.5 t-5 170zM274.5 214q-6.5 -75 3 -130t36 -84t75.5 -16q61 14 119.5 69.5t109 126t91.5 145t65 128.5q55 119 95 242.5t54.5 226t-2 173t-71.5 83.5q-41 10 -81 3t-79 -26q-27 -12 -63.5 -41t-70.5 -62.5t-57.5 -69t-23.5 -64.5q16 -10 20.5 -28t-6.5 -34q-10 -16 -24 -34.5 t-25 -33.5q-16 -23 -35.5 -66.5t-39 -100t-38 -122t-30.5 -130.5q-16 -80 -22.5 -155zM483 1432q0 18 28 27t42 9q18 0 60 -27.5t84 -62.5t75 -65.5t33 -38.5q0 -6 -6 -9t-13 -3q-2 0 -25.5 10t-57 25.5t-72.5 34t-72 38t-54.5 36t-21.5 26.5z" />
<glyph unicode="&#xd3;" horiz-adv-x="768" d="M207 333q6 87 16 148q20 125 63.5 239t84.5 185q-2 12 -3 31.5t13 38.5q27 35 57.5 73.5t71.5 73.5q74 66 162 90.5t186 1.5q82 -18 114 -101t24.5 -200.5t-47.5 -257t-101 -270.5q-27 -55 -75 -138t-110.5 -158t-137 -121.5t-152.5 -30.5q-76 14 -113 78.5t-48 147.5 t-5 170zM274.5 214q-6.5 -75 3 -130t36 -84t75.5 -16q61 14 119.5 69.5t109 126t91.5 145t65 128.5q55 119 95 242.5t54.5 226t-2 173t-71.5 83.5q-41 10 -81 3t-79 -26q-27 -12 -63.5 -41t-70.5 -62.5t-57.5 -69t-23.5 -64.5q16 -10 20.5 -28t-6.5 -34q-10 -16 -24 -34.5 t-25 -33.5q-16 -23 -35.5 -66.5t-39 -100t-38 -122t-30.5 -130.5q-16 -80 -22.5 -155zM887 1274q0 8 32.5 38.5t74.5 65.5t84 62.5t61 27.5q14 0 41.5 -9t27.5 -27q0 -10 -21.5 -26.5t-54 -36t-71.5 -38t-73 -34t-57.5 -25.5t-25.5 -10q-6 0 -12 3t-6 9z" />
<glyph unicode="&#xd4;" horiz-adv-x="770" d="M207 333q6 87 16 148q20 125 63.5 239t84.5 185q-2 12 -3 31.5t13 38.5q27 35 57.5 73.5t71.5 73.5q74 66 162 90.5t186 1.5q82 -18 114 -101t24.5 -200.5t-47.5 -257t-101 -270.5q-27 -55 -75 -138t-110.5 -158t-137 -121.5t-152.5 -30.5q-76 14 -113 78.5t-48 147.5 t-5 170zM274.5 214q-6.5 -75 3 -130t36 -84t75.5 -16q61 14 119.5 69.5t109 126t91.5 145t65 128.5q55 119 95 242.5t54.5 226t-2 173t-71.5 83.5q-41 10 -81 3t-79 -26q-27 -12 -63.5 -41t-70.5 -62.5t-57.5 -69t-23.5 -64.5q16 -10 20.5 -28t-6.5 -34q-10 -16 -24 -34.5 t-25 -33.5q-16 -23 -35.5 -66.5t-39 -100t-38 -122t-30.5 -130.5q-16 -80 -22.5 -155zM549 1266q2 25 40 58.5t87 64t98 51t72 20.5t53.5 -21.5t57 -50t45 -60.5t18.5 -52q0 -10 -7 -14.5t-18 -4.5q-18 0 -36.5 13.5t-38 30t-41 29.5t-48.5 13q-39 0 -75.5 -13t-70.5 -29.5 t-64.5 -31t-61.5 -14.5z" />
<glyph unicode="&#xd5;" horiz-adv-x="759" d="M207 333q6 87 16 148q20 125 63.5 239t84.5 185q-2 12 -3 31.5t13 38.5q27 35 57.5 73.5t71.5 73.5q74 66 162 90.5t186 1.5q82 -18 114 -101t24.5 -200.5t-47.5 -257t-101 -270.5q-27 -55 -75 -138t-110.5 -158t-137 -121.5t-152.5 -30.5q-76 14 -113 78.5t-48 147.5 t-5 170zM274.5 214q-6.5 -75 3 -130t36 -84t75.5 -16q61 14 119.5 69.5t109 126t91.5 145t65 128.5q55 119 95 242.5t54.5 226t-2 173t-71.5 83.5q-41 10 -81 3t-79 -26q-27 -12 -63.5 -41t-70.5 -62.5t-57.5 -69t-23.5 -64.5q16 -10 20.5 -28t-6.5 -34q-10 -16 -24 -34.5 t-25 -33.5q-16 -23 -35.5 -66.5t-39 -100t-38 -122t-30.5 -130.5q-16 -80 -22.5 -155zM526 1274q0 23 27 56.5t64.5 65t76.5 54.5t64 23q33 0 56.5 -16.5t43 -36t38.5 -36t42 -16.5q25 0 46.5 15.5t40.5 34t38.5 33.5t40.5 15q4 0 5 -5t1 -7q0 -27 -19.5 -59.5t-47 -62 t-61.5 -49t-60 -19.5q-37 0 -57.5 16t-37 35.5t-34 36t-48.5 16.5q-41 0 -71.5 -17.5t-54 -37t-43 -36.5t-35.5 -17q-14 0 -15 14z" />
<glyph unicode="&#xd6;" horiz-adv-x="761" d="M207 333q6 87 16 148q20 125 63.5 239t84.5 185q-2 12 -3 31.5t13 38.5q27 35 57.5 73.5t71.5 73.5q74 66 162 90.5t186 1.5q82 -18 114 -101t24.5 -200.5t-47.5 -257t-101 -270.5q-27 -55 -75 -138t-110.5 -158t-137 -121.5t-152.5 -30.5q-76 14 -113 78.5t-48 147.5 t-5 170zM274.5 214q-6.5 -75 3 -130t36 -84t75.5 -16q61 14 119.5 69.5t109 126t91.5 145t65 128.5q55 119 95 242.5t54.5 226t-2 173t-71.5 83.5q-41 10 -81 3t-79 -26q-27 -12 -63.5 -41t-70.5 -62.5t-57.5 -69t-23.5 -64.5q16 -10 20.5 -28t-6.5 -34q-10 -16 -24 -34.5 t-25 -33.5q-16 -23 -35.5 -66.5t-39 -100t-38 -122t-30.5 -130.5q-16 -80 -22.5 -155zM561 1294q0 47 38 85t85 38q33 0 33 -37q0 -51 -30 -84.5t-83 -33.5q-16 0 -29.5 6t-13.5 26zM909 1294q0 47 37 85t84 38q37 0 37 -37q0 -51 -31.5 -84.5t-83.5 -33.5q-16 0 -29.5 6 t-13.5 26z" />
<glyph unicode="&#xd7;" horiz-adv-x="571" d="M131 33.5q2 21.5 17.5 49.5t44.5 44q27 14 54 37.5t53 49.5t50.5 49.5t42.5 39.5q-12 35 -23.5 59.5t-22.5 48t-22.5 48t-25.5 59.5q-12 31 -3 57.5t26.5 41t36 10.5t26.5 -31q10 -39 16.5 -68.5t12.5 -58.5t13 -58.5t17 -68.5q20 18 54 52t71 72t72 75t59 61 q20 23 36 26t22 -5.5t5 -21.5t-11 -23q-27 -25 -67 -64t-82 -79t-81 -78t-65 -62q18 -76 37.5 -150.5t40.5 -148.5q6 -23 -8.5 -33t-22.5 12q-27 68 -47.5 141.5t-44.5 139.5q-29 -25 -59.5 -57.5t-61.5 -66.5t-61.5 -64.5t-57.5 -53.5q-23 -18 -33 -10t-8 29.5z" />
<glyph unicode="&#xd8;" horiz-adv-x="806" d="M129 30.5q6 16.5 31 47.5l51 63q-10 84 -4 171t16 149q10 61 26.5 121.5t36 116t42 102.5t43.5 84q-2 12 -4 31.5t12 37.5q27 35 58.5 74t72.5 74q74 66 161 90.5t187 1.5q43 -10 71.5 -38t45.5 -71q29 33 56.5 39t43 -6t13.5 -37.5t-35 -58.5q-14 -14 -27.5 -28.5 t-28.5 -28.5q4 -127 -36.5 -287t-112.5 -313q-27 -55 -75 -138.5t-110.5 -158t-137 -121.5t-152.5 -31q-63 12 -99 60.5t-53 113.5l-26 -31q-23 -25 -39.5 -36t-24.5 -10t-2 17.5zM272 150q0 -47 5.5 -84t18.5 -63t35.5 -37t57.5 -3q61 14 119.5 69.5t109 126t91.5 145.5 t65 128q53 117 92 234.5t56 218.5q-86 -90 -173 -188.5t-172 -194.5t-163.5 -186t-141.5 -166zM279 219q156 186 326.5 397t324.5 412q-4 53 -23.5 87t-56.5 42q-78 16 -160 -22q-29 -12 -65.5 -41t-69.5 -63t-56.5 -69.5t-23.5 -64.5q16 -10 20.5 -27.5t-6.5 -33.5 q-10 -16 -24 -35t-25 -33q-16 -23 -35.5 -67t-39 -100t-38 -121.5t-30.5 -131.5q-6 -33 -10 -65.5t-8 -63.5z" />
<glyph unicode="&#xd9;" horiz-adv-x="798" d="M138 200.5q3 100.5 40 218.5t86 229.5t100.5 206.5t84.5 153q25 45 45 60t30.5 9t8 -29.5t-22.5 -54.5q-53 -84 -108.5 -185t-101.5 -206.5t-79 -207t-41 -186.5t13.5 -145.5t82.5 -82.5q59 -23 121 10t124.5 102.5t124 167.5t118.5 209t110.5 226.5t98.5 219t82 186.5 t63 130q14 27 35 34t36 1t22.5 -23.5t-5.5 -42.5q-47 -98 -110.5 -229t-129 -269.5t-124 -271.5t-90.5 -237q-18 -59 -10 -110.5t30 -86.5q8 -14 23.5 -32.5t17.5 -33.5q0 -33 -68 -10q-23 6 -41 24.5t-31.5 41t-22.5 44t-9 36.5q-37 -35 -69.5 -66t-69.5 -52.5t-81 -27.5 t-104 8q-104 25 -143 98.5t-36 174zM537 1432q0 18 28.5 27t42.5 9q18 0 59.5 -27.5t84.5 -62.5t74.5 -65.5t31.5 -38.5q0 -12 -16 -12q-4 0 -27.5 10t-57.5 25.5t-73 34t-71.5 38t-54 36t-21.5 26.5z" />
<glyph unicode="&#xda;" horiz-adv-x="819" d="M155 200.5q3 100.5 39.5 218.5t86 229.5t100.5 206.5t84 153q25 45 45 60t30.5 9t8 -29.5t-22.5 -54.5q-53 -84 -108.5 -185t-101.5 -206.5t-78.5 -207t-41 -186.5t13 -145.5t83.5 -82.5q59 -23 120.5 10t124 102.5t124 167.5t119 209t110.5 226.5t98 219t82 186.5 t64 130q14 27 34.5 34t36 1t22.5 -23.5t-5 -42.5q-47 -98 -110.5 -229t-129 -269.5t-124 -271.5t-91.5 -237q-18 -59 -10 -110.5t30 -86.5q8 -14 23.5 -32.5t17.5 -33.5q0 -33 -67 -10q-23 6 -41.5 24.5t-31.5 41t-22.5 44t-9.5 36.5q-37 -35 -69.5 -66t-69.5 -52.5 t-81 -27.5t-103 8q-104 25 -143 98.5t-36 174zM836 1274q0 8 31.5 38.5t74.5 65.5t84 62.5t59 27.5q14 0 43 -9t29 -27q0 -10 -21.5 -26.5t-54 -36t-71.5 -38t-73 -34t-58.5 -25.5t-26.5 -10q-16 0 -16 12z" />
<glyph unicode="&#xdb;" horiz-adv-x="819" d="M159 200.5q3 100.5 40 218.5t86 229.5t100 206.5t84 153q25 45 45.5 60t30.5 9t7.5 -29.5t-22.5 -54.5q-53 -84 -108 -185t-101.5 -206.5t-79 -207t-40.5 -186.5t13.5 -145.5t82.5 -82.5q59 -23 120.5 10t124 102.5t124 167.5t119 209t110.5 226.5t98 219t82 186.5 t64 130q14 27 34.5 34t36 1t22.5 -23.5t-5 -42.5q-47 -98 -110.5 -229t-129 -269.5t-124 -271.5t-91.5 -237q-18 -59 -10 -110.5t31 -86.5q8 -14 23 -32.5t18 -33.5q0 -33 -68 -10q-23 6 -41 24.5t-31.5 41t-22.5 44t-9 36.5q-37 -35 -70 -66t-70 -52.5t-81 -27.5t-103 8 q-104 25 -143 98.5t-36 174zM612 1266q2 25 40 58.5t87 64t98.5 51t71.5 20.5q23 0 53.5 -21.5t57.5 -50t45 -60.5t18 -52q0 -10 -7 -14.5t-17 -4.5q-18 0 -36.5 13.5t-38 30t-41 29.5t-48.5 13q-39 0 -76 -13t-70.5 -29.5t-64.5 -31t-61 -14.5z" />
<glyph unicode="&#xdc;" horiz-adv-x="813" d="M148.5 200.5q3.5 100.5 40 218.5t86 229.5t100.5 206.5t84 153q25 45 45 60t30.5 9t8 -29.5t-22.5 -54.5q-53 -84 -108.5 -185t-101.5 -206.5t-78.5 -207t-41 -186.5t13 -145.5t83.5 -82.5q59 -23 120.5 10t124 102.5t124 167.5t118.5 209t109.5 226.5t98.5 219t83 186.5 t63 130q14 27 34 34t35 1t22.5 -23.5t-2.5 -42.5q-47 -98 -112 -229t-130.5 -269.5t-122.5 -271.5t-90 -237q-18 -59 -10 -110.5t30 -86.5q8 -14 23.5 -32.5t17.5 -33.5q0 -33 -67 -10q-23 6 -41.5 24.5t-31.5 41t-22.5 44t-9.5 36.5q-37 -35 -69.5 -66t-69.5 -52.5 t-81 -27.5t-103 8q-104 25 -143.5 98.5t-36 174zM606 1294q0 47 37 85t84 38q35 0 35 -37q0 -51 -30 -84.5t-83 -33.5q-16 0 -29.5 6t-13.5 26zM952 1294q0 47 37 85t84 38q39 0 39 -37q0 -51 -31.5 -84.5t-83.5 -33.5q-16 0 -30.5 6t-14.5 26z" />
<glyph unicode="&#xdd;" horiz-adv-x="761" d="M220.5 709.5q10.5 68.5 36.5 140.5t62.5 139.5t67.5 120.5q43 70 76 94.5t55 26.5q47 2 50 -11.5t-13 -29.5q-12 -10 -26.5 -16.5t-28.5 -16.5q-41 -27 -82 -77t-76 -113.5t-57.5 -132t-24.5 -132t20.5 -113.5t79.5 -77q74 -35 147 -15.5t141.5 73t133 131t122 159.5 t107.5 159t93 128q27 33 59.5 50t54 16t22.5 -19t-32 -57q-98 -115 -193 -235t-172 -259t-128 -307t-60 -377q-2 -41 -21.5 -64.5t-42 -26.5t-39.5 15.5t-15 65.5q2 33 10 83t20.5 108.5t27.5 118.5t29.5 112.5t28 90.5t23.5 54q-45 -33 -110.5 -49t-131 -10t-121 36.5 t-80.5 94.5q-23 53 -12.5 121.5zM893 1274q0 8 32.5 38.5t74.5 65.5t84 62.5t61 27.5q14 0 41.5 -9t27.5 -27q0 -10 -21.5 -26.5t-54 -36t-71.5 -38t-72.5 -34t-57.5 -25.5t-26 -10q-6 0 -12 3t-6 9z" />
<glyph unicode="&#xde;" horiz-adv-x="1136" d="M70 -201q0 119 35.5 245t95 239.5t139.5 210t170 157.5q16 45 29.5 92.5t23.5 96.5q8 35 13.5 89t17.5 107t35.5 89t64.5 36q12 0 13 -18q0 -16 -20.5 -79t-49.5 -138q-29 -76 -54.5 -145.5t-37.5 -106.5q84 53 171 75.5t173 22.5q61 0 121.5 -20.5t106.5 -60.5t75 -99.5 t29 -136.5q0 -127 -49.5 -225.5t-128 -165t-177 -101.5t-198.5 -35q-23 0 -79.5 8.5t-115.5 22.5t-107.5 34.5t-54.5 43.5q18 16 42 19t48 3q23 0 42.5 -9t36 -21.5t33.5 -25.5t38 -21q102 -45 212.5 -26t203 82.5t153 162t60.5 211.5q0 68 -26 114.5t-65.5 76.5t-89 43 t-96.5 13q-127 0 -226 -33.5t-202 -117.5q-8 -20 -26.5 -69.5t-44 -114t-55.5 -135t-56 -132.5q-29 -63 -56.5 -121.5t-54 -102.5t-49 -70.5t-39.5 -26.5q-16 0 -20 16.5t-4 26.5v20zM119 -109q0 -8 2 -21t12 -13q18 0 45 38.5t56.5 99t60.5 134.5t57.5 142.5t48 123 t31.5 76.5q-43 -41 -97 -113.5t-102.5 -156.5t-81 -167.5t-32.5 -142.5z" />
<glyph unicode="&#xdf;" horiz-adv-x="882" d="M-118 -399.5q5 26.5 16.5 62.5t25.5 71q61 156 129 319.5t135.5 327.5t135 322.5t131.5 304.5q33 74 83 114.5t108.5 54t116.5 3t105 -42t78 -80.5t31 -113q2 -109 -63.5 -168t-170.5 -82q49 -23 86 -61.5t63 -85.5t39 -101.5t13 -109.5q0 -96 -36 -168t-91 -117 t-123.5 -64.5t-134 -14.5t-120 35t-83.5 83q-12 20 -16 40t-2 29t10 3t23 -35q33 -70 84 -101.5t116 -27.5q86 4 144.5 47t89.5 107.5t36 141.5t-14.5 150.5t-63.5 135t-112 94.5q-43 -8 -90 -15.5t-84 -4.5t-55.5 18.5t-3.5 52.5q8 20 32.5 30.5t57.5 10.5t69.5 -10.5 t71.5 -28.5q100 18 145.5 62.5t63.5 130.5q4 57 -12.5 99t-46 67.5t-66.5 37t-74 4.5q-68 -10 -109.5 -39.5t-68.5 -93.5q-31 -74 -72.5 -173t-88 -208.5t-93.5 -223.5t-91 -220.5t-80 -197.5t-60 -154q-16 -43 -24.5 -82t-15.5 -71t-16.5 -55.5t-27.5 -37.5q-23 -16 -29 -7 t-1 35.5zM459 719q-8 -14 8 -18.5t40.5 -2.5t50.5 7.5t38 9.5q-14 6 -33.5 13t-40 10t-38 -1t-25.5 -18z" />
<glyph unicode="&#xe0;" horiz-adv-x="743" d="M123 147q0 55 27.5 113.5t71.5 105t100.5 76t113.5 29.5q84 0 128 -40t44 -126q0 -29 -4 -56t-10 -56q25 31 46.5 68.5t38.5 79.5t27.5 85t10.5 80q0 53 -27.5 93t-87.5 40q-35 0 -70.5 -12.5t-67.5 -27.5t-57.5 -27.5t-41.5 -12.5q-25 0 -25 27q0 16 31.5 30.5 t72.5 25.5t80 17.5t56 6.5q98 0 142 -60.5t44 -152.5q0 -63 -19.5 -124t-48.5 -116q12 4 25.5 8t26.5 4q16 0 16 -12q0 -16 -15.5 -36.5t-36 -40t-43 -35t-36.5 -19.5q-8 -12 -22.5 -33.5t-33 -42t-38 -35t-35.5 -14.5q-12 0 -12 20q0 10 2 21.5t6 21.5q-43 -18 -91.5 -33.5 t-97.5 -15.5q-78 0 -134 47.5t-56 128.5zM176 197q0 -31 15.5 -56.5t38 -45t51 -30t57.5 -10.5q55 0 107.5 24.5t97.5 53.5q16 41 28.5 85t12.5 89q0 70 -47.5 103.5t-112.5 33.5q-43 0 -88 -22.5t-80 -57t-57.5 -79.5t-22.5 -88zM219 840q0 18 28.5 27.5t43.5 9.5 q18 0 59 -28t84 -62.5t75 -65.5t32 -39q0 -12 -17 -12q-2 0 -26.5 10t-58 25.5t-72.5 34t-72 38t-54.5 36t-21.5 26.5z" />
<glyph unicode="&#xe1;" horiz-adv-x="743" d="M123 147q0 55 27.5 113.5t71.5 105t100.5 76t113.5 29.5q84 0 128 -40t44 -126q0 -29 -4 -56t-10 -56q25 31 46.5 68.5t38.5 79.5t27.5 85t10.5 80q0 53 -27.5 93t-87.5 40q-35 0 -70.5 -12.5t-67.5 -27.5t-57.5 -27.5t-41.5 -12.5q-25 0 -25 27q0 16 31.5 30.5 t72.5 25.5t80 17.5t56 6.5q98 0 142 -60.5t44 -152.5q0 -63 -19.5 -124t-48.5 -116q12 4 25.5 8t26.5 4q16 0 16 -12q0 -16 -15.5 -36.5t-36 -40t-43 -35t-36.5 -19.5q-8 -12 -22.5 -33.5t-33 -42t-38 -35t-35.5 -14.5q-12 0 -12 20q0 10 2 21.5t6 21.5q-43 -18 -91.5 -33.5 t-97.5 -15.5q-78 0 -134 47.5t-56 128.5zM176 197q0 -31 15.5 -56.5t38 -45t51 -30t57.5 -10.5q55 0 107.5 24.5t97.5 53.5q16 41 28.5 85t12.5 89q0 70 -47.5 103.5t-112.5 33.5q-43 0 -88 -22.5t-80 -57t-57.5 -79.5t-22.5 -88zM668 682q0 8 31.5 39t74.5 65.5t84 62.5 t60 28q14 0 42.5 -9.5t28.5 -27.5q0 -10 -21.5 -26.5t-54 -36t-71.5 -38t-73 -34t-58.5 -25.5t-26.5 -10q-16 0 -16 12z" />
<glyph unicode="&#xe2;" horiz-adv-x="755" d="M123 147q0 55 27.5 113.5t71.5 105t100.5 76t113.5 29.5q84 0 128 -40t44 -126q0 -29 -4 -56t-10 -56q25 31 46.5 68.5t38.5 79.5t27.5 85t10.5 80q0 53 -27.5 93t-87.5 40q-35 0 -70.5 -12.5t-67.5 -27.5t-57.5 -27.5t-41.5 -12.5q-25 0 -25 27q0 16 31.5 30.5 t72.5 25.5t80 17.5t56 6.5q98 0 142 -60.5t44 -152.5q0 -63 -19.5 -124t-48.5 -116q12 4 25.5 8t26.5 4q16 0 16 -12q0 -16 -15.5 -36.5t-36 -40t-43 -35t-36.5 -19.5q-8 -12 -22.5 -33.5t-33 -42t-38 -35t-35.5 -14.5q-12 0 -12 20q0 10 2 21.5t6 21.5q-43 -18 -91.5 -33.5 t-97.5 -15.5q-78 0 -134 47.5t-56 128.5zM176 197q0 -31 15.5 -56.5t38 -45t51 -30t57.5 -10.5q55 0 107.5 24.5t97.5 53.5q16 41 28.5 85t12.5 89q0 70 -47.5 103.5t-112.5 33.5q-43 0 -88 -22.5t-80 -57t-57.5 -79.5t-22.5 -88zM362 672q2 25 40 58.5t87.5 64t98.5 51 t71 20.5q23 0 53.5 -21.5t57.5 -50t45.5 -60.5t18.5 -52q0 -10 -7.5 -14t-17.5 -4q-18 0 -35.5 13t-37 30.5t-41 31t-48.5 13.5q-39 0 -75.5 -13.5t-70.5 -31t-66 -30.5t-62 -13z" />
<glyph unicode="&#xe3;" horiz-adv-x="747" d="M123 147q0 55 27.5 113.5t71.5 105t100.5 76t113.5 29.5q84 0 128 -40t44 -126q0 -29 -4 -56t-10 -56q25 31 46.5 68.5t38.5 79.5t27.5 85t10.5 80q0 53 -27.5 93t-87.5 40q-35 0 -70.5 -12.5t-67.5 -27.5t-57.5 -27.5t-41.5 -12.5q-25 0 -25 27q0 16 31.5 30.5 t72.5 25.5t80 17.5t56 6.5q98 0 142 -60.5t44 -152.5q0 -63 -19.5 -124t-48.5 -116q12 4 25.5 8t26.5 4q16 0 16 -12q0 -16 -15.5 -36.5t-36 -40t-43 -35t-36.5 -19.5q-8 -12 -22.5 -33.5t-33 -42t-38 -35t-35.5 -14.5q-12 0 -12 20q0 10 2 21.5t6 21.5q-43 -18 -91.5 -33.5 t-97.5 -15.5q-78 0 -134 47.5t-56 128.5zM176 197q0 -31 15.5 -56.5t38 -45t51 -30t57.5 -10.5q55 0 107.5 24.5t97.5 53.5q16 41 28.5 85t12.5 89q0 70 -47.5 103.5t-112.5 33.5q-43 0 -88 -22.5t-80 -57t-57.5 -79.5t-22.5 -88zM358 674q0 23 27 56.5t63.5 65t75.5 54 t64 22.5q33 0 56.5 -16t44 -35.5t38.5 -36t41 -16.5q25 0 46.5 15.5t40.5 34t38.5 33.5t40.5 15q4 0 5 -5t1 -7q0 -27 -19.5 -59.5t-47 -62.5t-61.5 -49t-60 -19q-35 0 -55.5 16t-38 35.5t-35 36t-48.5 16.5q-41 0 -71.5 -17.5t-54 -37t-42 -37t-34.5 -17.5q-14 0 -15 15z " />
<glyph unicode="&#xe4;" horiz-adv-x="747" d="M123 147q0 55 27.5 113.5t71.5 105t100.5 76t113.5 29.5q84 0 128 -40t44 -126q0 -29 -4 -56t-10 -56q25 31 46.5 68.5t38.5 79.5t27.5 85t10.5 80q0 53 -27.5 93t-87.5 40q-35 0 -70.5 -12.5t-67.5 -27.5t-57.5 -27.5t-41.5 -12.5q-25 0 -25 27q0 16 31.5 30.5 t72.5 25.5t80 17.5t56 6.5q98 0 142 -60.5t44 -152.5q0 -63 -19.5 -124t-48.5 -116q12 4 25.5 8t26.5 4q16 0 16 -12q0 -16 -15.5 -36.5t-36 -40t-43 -35t-36.5 -19.5q-8 -12 -22.5 -33.5t-33 -42t-38 -35t-35.5 -14.5q-12 0 -12 20q0 10 2 21.5t6 21.5q-43 -18 -91.5 -33.5 t-97.5 -15.5q-78 0 -134 47.5t-56 128.5zM176 197q0 -31 15.5 -56.5t38 -45t51 -30t57.5 -10.5q55 0 107.5 24.5t97.5 53.5q16 41 28.5 85t12.5 89q0 70 -47.5 103.5t-112.5 33.5q-43 0 -88 -22.5t-80 -57t-57.5 -79.5t-22.5 -88zM422 709q0 47 37 84.5t84 37.5q35 0 35 -36 q0 -51 -30 -85t-83 -34q-16 0 -29.5 6t-13.5 27zM666 709q0 47 36.5 84.5t83.5 37.5q39 0 39 -36q0 -51 -31.5 -85t-82.5 -34q-16 0 -30.5 6t-14.5 27z" />
<glyph unicode="&#xe5;" horiz-adv-x="755" d="M123 147q0 55 27.5 113.5t71.5 105t100.5 76t113.5 29.5q84 0 128 -40t44 -126q0 -29 -4 -56t-10 -56q25 31 46.5 68.5t38.5 79.5t27.5 85t10.5 80q0 53 -27.5 93t-87.5 40q-35 0 -70.5 -12.5t-67.5 -27.5t-57.5 -27.5t-41.5 -12.5q-25 0 -25 27q0 16 31.5 30.5 t72.5 25.5t80 17.5t56 6.5q98 0 142 -60.5t44 -152.5q0 -63 -19.5 -124t-48.5 -116q12 4 25.5 8t26.5 4q16 0 16 -12q0 -16 -15.5 -36.5t-36 -40t-43 -35t-36.5 -19.5q-8 -12 -22.5 -33.5t-33 -42t-38 -35t-35.5 -14.5q-12 0 -12 20q0 10 2 21.5t6 21.5q-43 -18 -91.5 -33.5 t-97.5 -15.5q-78 0 -134 47.5t-56 128.5zM176 197q0 -31 15.5 -56.5t38 -45t51 -30t57.5 -10.5q55 0 107.5 24.5t97.5 53.5q16 41 28.5 85t12.5 89q0 70 -47.5 103.5t-112.5 33.5q-43 0 -88 -22.5t-80 -57t-57.5 -79.5t-22.5 -88zM526 770q-10 53 23 94t92 51q2 4 11.5 12.5 t21.5 10.5q59 4 97 -27t36 -88q-2 -59 -53.5 -94t-108.5 -39q-43 -4 -76.5 15.5t-42.5 64.5zM558 802.5q1 -16.5 23.5 -30.5t67.5 -14q59 -2 89 16.5t34 39t-17.5 35.5t-64.5 9q-10 -10 -22.5 -10h-22.5q-43 0 -65.5 -14.5t-21.5 -31z" />
<glyph unicode="&#xe6;" horiz-adv-x="968" d="M123 152q0 55 27.5 113.5t71.5 104.5t100.5 75.5t113.5 29.5q84 0 128 -40t44 -126q0 -29 -4 -56.5t-10 -55.5q25 31 46.5 68.5t38.5 79.5t27.5 85t10.5 80q0 53 -27.5 93t-87.5 40q-35 0 -70.5 -12.5t-67.5 -27.5t-57.5 -27.5t-41.5 -12.5q-25 0 -25 27q0 16 31.5 30.5 t72.5 25.5t80 17.5t56 6.5q109 0 153 -78q27 -45 31 -109q23 33 41 54q41 47 96 81.5t121 34.5q39 0 64.5 -19.5t34.5 -50t2 -69.5t-33 -76q-25 -37 -63 -62.5t-82 -42t-90 -24.5t-89 -10q-8 -14 -20.5 -40t-23.5 -55.5t-19.5 -61t-4.5 -58.5q6 -47 34 -61.5t65 -13.5 t75.5 13.5t65.5 18.5q18 4 19 -10.5t-19 -26.5q-70 -33 -147.5 -32t-124.5 48q-25 25 -31 64q-4 -8 -9 -15.5t-12 -13.5q-20 -31 -51 -62.5t-57 -31.5q-12 0 -12 21q0 10 2 21t6 22q-43 -18 -91.5 -34t-97.5 -16q-78 0 -134 47.5t-56 129.5zM176 201q0 -31 15.5 -56.5 t38 -45t51 -30t57.5 -10.5q55 0 107.5 24.5t97.5 53.5q16 41 28.5 85t12.5 89q0 70 -47.5 104t-112.5 34q-43 0 -88 -23t-80 -57.5t-57.5 -79.5t-22.5 -88zM784 328q88 0 156 33.5t105.5 78.5t43 89.5t-33.5 64.5q-35 18 -78 -12.5t-83 -78.5t-70.5 -99.5t-39.5 -75.5z" />
<glyph unicode="&#xe7;" horiz-adv-x="503" d="M137 176q-2 68 28 140.5t76 136t99 112.5t100 70q68 29 119 17.5t77 -44.5t19.5 -79t-51.5 -87q-18 -16 -31.5 -15t-17.5 19q-6 31 14 72q29 47 19 77t-60 26q-37 -4 -72.5 -35t-69.5 -77t-63.5 -102.5t-52.5 -111.5q-29 -68 -39 -127t5.5 -98t61.5 -52.5t132 11.5 q23 6 36 8t23 2t15.5 -4t-0.5 -15q-8 -8 -28.5 -17t-43.5 -13t-46.5 -10.5t-45.5 -6.5q-8 -16 3 -24t24 -15q16 -10 30.5 -25t8.5 -50q-4 -25 -20.5 -42.5t-38 -28.5t-45 -16t-44.5 -8q-31 -4 -53.5 -0.5t-32.5 11.5q-14 12 -2 24q10 8 39 15q63 12 78 51q6 16 -1 27.5 t-18 21.5q-4 4 -9 7t-9 7q-20 16 -36.5 38t-8.5 57q-31 23 -48.5 60.5t-19.5 92.5z" />
<glyph unicode="&#xe8;" horiz-adv-x="518" d="M105.5 333.5q-3.5 8.5 2 16.5t17.5 13.5t27 3.5q14 0 30.5 -9.5t30.5 -15.5q20 45 50 95t71 95q41 47 97 82t122 35q39 0 64.5 -19.5t35 -50t1 -69.5t-35.5 -76q-25 -37 -62.5 -62.5t-81.5 -42t-90 -24.5t-89 -10q-8 -14 -20.5 -40t-22.5 -55.5t-17.5 -61.5t-5.5 -58 q6 -47 34 -61.5t65 -13.5t75.5 13.5t65.5 18.5q16 4 17 -10.5t-17 -26.5q-70 -33 -148.5 -32t-125.5 48q-25 25 -31 64t-2 80t14 78.5t21 64.5q-20 4 -33.5 6t-36.5 10q-18 6 -21.5 14.5zM164 840q0 18 27.5 27.5t41.5 9.5q18 0 60.5 -28t84.5 -62.5t74.5 -65.5t32.5 -39 q0 -6 -6 -9t-12 -3q-2 0 -25.5 10t-57.5 25.5t-73 34t-71.5 38t-54 36t-21.5 26.5zM313 324q88 0 156 33.5t106.5 78.5t44 89.5t-33.5 64.5q-35 18 -78 -12.5t-83 -78.5t-70.5 -99.5t-41.5 -75.5z" />
<glyph unicode="&#xe9;" horiz-adv-x="514" d="M104.5 333.5q-4.5 8.5 1 16.5t17.5 13.5t27 3.5q14 0 31.5 -9.5t31.5 -15.5q20 45 50 95t71 95q41 47 96 82t121 35q39 0 64.5 -19.5t34.5 -50t2 -69.5t-34 -76t-64.5 -62.5t-80.5 -42t-89 -24.5t-89 -10q-8 -14 -20.5 -40t-23.5 -55.5t-19.5 -61.5t-4.5 -58 q6 -47 34 -61.5t64.5 -13.5t75.5 13.5t66 18.5q18 4 19 -10.5t-19 -26.5q-70 -33 -148.5 -32t-123.5 48q-25 25 -31 64t-3 80t13 78.5t21 64.5q-20 4 -32.5 6t-35.5 10q-18 6 -22.5 14.5zM313 324q88 0 155 33.5t105.5 78.5t43 89.5t-32.5 64.5q-35 18 -78 -12.5t-83 -78.5 t-70.5 -99.5t-39.5 -75.5zM580 682q0 8 31.5 39t74.5 65.5t84 62.5t59 28q14 0 43 -9.5t29 -27.5q0 -10 -21.5 -26.5t-54 -36t-71.5 -38t-73 -34t-58.5 -25.5t-26.5 -10q-16 0 -16 12z" />
<glyph unicode="&#xea;" horiz-adv-x="528" d="M104.5 333.5q-4.5 8.5 1 16.5t17.5 13.5t27 3.5q14 0 31.5 -9.5t31.5 -15.5q20 45 50 95t71 95q41 47 96 82t121 35q39 0 64.5 -19.5t34.5 -50t2 -69.5t-34 -76t-64.5 -62.5t-80.5 -42t-89 -24.5t-89 -10q-8 -14 -20.5 -40t-23.5 -55.5t-19.5 -61.5t-4.5 -58 q6 -47 34 -61.5t64.5 -13.5t75.5 13.5t66 18.5q18 4 19 -10.5t-19 -26.5q-70 -33 -148.5 -32t-123.5 48q-25 25 -31 64t-3 80t13 78.5t21 64.5q-20 4 -32.5 6t-35.5 10q-18 6 -22.5 14.5zM313 324q88 0 155 33.5t105.5 78.5t43 89.5t-32.5 64.5q-35 18 -78 -12.5t-83 -78.5 t-70.5 -99.5t-39.5 -75.5zM315 672q2 25 40 58.5t87.5 64t98.5 51t71 20.5q23 0 53.5 -21.5t57.5 -50t45 -60.5t18 -52q0 -10 -7 -14t-17 -4q-18 0 -35.5 13t-37 30.5t-41 31t-48.5 13.5q-39 0 -76 -13.5t-70.5 -31t-65.5 -30.5t-62 -13z" />
<glyph unicode="&#xeb;" horiz-adv-x="526" d="M104.5 333.5q-4.5 8.5 1 16.5t17.5 13.5t27 3.5q14 0 31.5 -9.5t31.5 -15.5q20 45 50 95t71 95q41 47 96 82t121 35q39 0 64.5 -19.5t34.5 -50t2 -69.5t-34 -76t-64.5 -62.5t-80.5 -42t-89 -24.5t-89 -10q-8 -14 -20.5 -40t-23.5 -55.5t-19.5 -61.5t-4.5 -58 q6 -47 34 -61.5t64.5 -13.5t75.5 13.5t66 18.5q18 4 19 -10.5t-19 -26.5q-70 -33 -148.5 -32t-123.5 48q-25 25 -31 64t-3 80t13 78.5t21 64.5q-20 4 -32.5 6t-35.5 10q-18 6 -22.5 14.5zM313 324q88 0 155 33.5t105.5 78.5t43 89.5t-32.5 64.5q-35 18 -78 -12.5t-83 -78.5 t-70.5 -99.5t-39.5 -75.5zM324 690q0 47 36.5 85t83.5 38q35 0 35 -37q0 -51 -29.5 -85t-82.5 -34q-16 0 -29.5 6.5t-13.5 26.5zM670 690q0 47 37 85t84 38q39 0 38 -37q0 -51 -31.5 -85t-82.5 -34q-16 0 -30.5 6.5t-14.5 26.5z" />
<glyph unicode="&#xec;" horiz-adv-x="413" d="M172 80v2q0 57 19.5 127t49 137.5t66.5 123.5t72 87q61 53 90 38t8 -58q-23 -43 -52.5 -90.5t-58 -97.5t-55.5 -105.5t-43 -114.5q-27 -102 -3 -135t110 14q23 12 32 12t9 -7t-9.5 -17t-21.5 -16q-41 -23 -79 -27t-67.5 9t-48 43t-18.5 75zM188 840q0 18 29 27.5t43 9.5 q18 0 59 -28t84 -62.5t75 -65.5t32 -39q0 -12 -16 -12q-4 0 -28 10t-57.5 25.5t-72.5 34t-72 38t-54.5 36t-21.5 26.5z" />
<glyph unicode="&#xed;" horiz-adv-x="378" d="M145 80v2q0 57 19.5 127t49.5 137.5t66.5 123.5t71.5 87q61 53 90 38t9 -58q-23 -43 -52.5 -90.5t-58.5 -97.5t-55.5 -105.5t-42.5 -114.5q-27 -102 -3.5 -135t109.5 14q23 12 32 12t9 -7t-9 -17t-22 -16q-41 -23 -78.5 -27t-67.5 9t-48.5 43t-18.5 75zM498 682 q0 8 31.5 39t74.5 65.5t84 62.5t60 28q14 0 42.5 -9.5t28.5 -27.5q0 -10 -21.5 -26.5t-54 -36t-71.5 -38t-73 -34t-58.5 -25.5t-26.5 -10q-16 0 -16 12z" />
<glyph unicode="&#xee;" horiz-adv-x="387" d="M145 80v2q0 57 19.5 127t49.5 137.5t66.5 123.5t71.5 87q61 53 90 38t9 -58q-23 -43 -52.5 -90.5t-58.5 -97.5t-55.5 -105.5t-42.5 -114.5q-27 -102 -3.5 -135t109.5 14q23 12 32 12t9 -7t-9 -17t-22 -16q-41 -23 -78.5 -27t-67.5 9t-48.5 43t-18.5 75zM244 662 q2 25 40 58.5t87 64t98 51t72 20.5t53.5 -21.5t57 -50t45 -60.5t18.5 -52q0 -10 -7.5 -14.5t-17.5 -4.5q-18 0 -35.5 13.5t-37 31t-41 30.5t-48.5 13q-39 0 -75.5 -13t-70.5 -30.5t-65.5 -31t-62.5 -13.5z" />
<glyph unicode="&#xef;" horiz-adv-x="391" d="M145 80v2q0 57 19.5 127t49.5 137.5t66.5 123.5t71.5 87q61 53 90 38t9 -58q-23 -43 -52.5 -90.5t-58.5 -97.5t-55.5 -105.5t-42.5 -114.5q-27 -102 -3.5 -135t109.5 14q23 12 32 12t9 -7t-9 -17t-22 -16q-41 -23 -78.5 -27t-67.5 9t-48.5 43t-18.5 75zM313 690 q0 47 37 85t84 38q35 0 35 -37q0 -51 -29.5 -85t-83.5 -34q-16 0 -29.5 6.5t-13.5 26.5zM557 690q0 47 37 85t84 38q39 0 39 -37q0 -51 -32 -85t-83 -34q-16 0 -30.5 6.5t-14.5 26.5z" />
<glyph unicode="&#xf0;" horiz-adv-x="604" d="M188.5 200.5q-4.5 57.5 8.5 114.5q10 53 30.5 107.5t45 102.5t52 88t56.5 69q57 55 120.5 71.5t119.5 -44.5q39 -43 63 -120t14 -149q25 70 48.5 156t36 169t7 154.5t-37.5 110.5q-10 -6 -40 -27.5t-65 -43t-65.5 -36t-38.5 -3.5q-6 6 9 29.5t39.5 50t49.5 50t35 29.5 q-35 6 -77 -1t-99 -31q-29 -14 -39 -5t-4 28.5t27.5 43t56 36.5t82 13t104.5 -28q14 12 34.5 24t42 22.5t39 14.5t27.5 -2q14 -10 8 -30.5t-21 -42t-32.5 -39t-23.5 -19.5q25 -49 29 -123t-8.5 -160t-38 -178t-62.5 -182t-82 -170t-93 -140.5t-98.5 -94t-99.5 -31.5 t-84 32.5t-53 78.5t-22.5 105.5zM264.5 266.5q-4.5 -53.5 3.5 -97.5t31 -73.5t61 -36.5q45 -6 92.5 22t87.5 71t68.5 91t38.5 81q-37 12 -37 52t4 87q8 104 -20.5 157.5t-69.5 57.5q-43 2 -82 -29t-69.5 -79t-54 -102t-35.5 -97q-14 -51 -18.5 -104.5z" />
<glyph unicode="&#xf1;" horiz-adv-x="655" d="M136 58q-5 38 11 96q14 51 41 106t53.5 108.5t48 100.5t27.5 84q6 41 1 58.5t-17 20.5t-28.5 -4t-30.5 -16q-29 -16 -42.5 -15t-13.5 10t11.5 22.5t33.5 25.5q55 33 113 23q35 -6 50.5 -27.5t18.5 -50.5t-4.5 -59.5t-15.5 -57.5q-25 -76 -67.5 -145.5t-67.5 -144.5 q-12 -37 1 -63t60 1q33 18 73 65.5t79 102.5t75 106.5t60 75.5q47 43 67.5 46t24.5 -17.5t-3 -54t-15 -60.5q-12 -45 -30.5 -109.5t-27 -120.5t-2 -93t43.5 -25q20 6 27 3t4 -12t-15 -19.5t-27 -16.5q-63 -27 -96 23q-18 29 -21.5 66.5t2 77.5t15.5 79t18 69q8 31 11.5 48.5 t-7 13.5t-36 -34t-74.5 -93q-27 -35 -48.5 -65.5t-42 -57.5t-43 -51.5t-50.5 -48.5q-37 -31 -69 -37t-51.5 11t-24.5 55zM395 707q0 23 20.5 48t49.5 46.5t61.5 36t57.5 14.5q33 0 56.5 -16.5t42.5 -36t38.5 -35.5t42.5 -16q25 0 39 9t26.5 19t25.5 19.5t34 9.5q4 0 5 -5 t1 -7q0 -27 -12.5 -53.5t-34 -48t-48 -35t-52.5 -13.5q-37 0 -57.5 16.5t-37 36t-34 36t-48.5 16.5q-41 0 -64.5 -8.5t-39.5 -19.5t-28.5 -19.5t-28.5 -8.5q-14 0 -15 15z" />
<glyph unicode="&#xf2;" horiz-adv-x="614" d="M124 138q3 46 15.5 91t26.5 70q-6 4 -9 28.5t13 49.5q18 31 55 69.5t86 75.5q66 51 148 89t168 26q74 -10 98.5 -65.5t12 -131t-56.5 -161.5t-110 -156q-37 -39 -82 -74t-96 -55.5t-105.5 -22.5t-109.5 25q-35 16 -46 56t-8 86zM184 123q-8 -37 0.5 -68.5t46.5 -46.5 q45 -16 93.5 6.5t91.5 61.5t77.5 86t55.5 80q33 53 56.5 107t33.5 102.5t4 85t-31 53.5q-33 20 -76.5 5t-86.5 -47t-80.5 -71.5t-51.5 -66.5q4 -31 -19.5 -63t-39.5 -54q-16 -23 -39.5 -72t-34.5 -98zM287 840q0 18 28.5 27.5t42.5 9.5q18 0 59.5 -28t84.5 -62.5t74.5 -65.5 t31.5 -39q0 -12 -16 -12q-2 0 -26.5 10t-58.5 25.5t-73 34t-71.5 38t-54 36t-21.5 26.5z" />
<glyph unicode="&#xf3;" horiz-adv-x="618" d="M112 138q3 46 15 91t27 70q-6 4 -9.5 28.5t13.5 49.5q18 31 55 69.5t86 75.5q66 51 147.5 89t167.5 26q74 -10 98.5 -65.5t12.5 -131t-56 -161.5t-110 -156q-37 -39 -82 -74t-96 -55.5t-105.5 -22.5t-109.5 25q-35 16 -46 56t-8 86zM172 54.5q8 -31.5 47 -46.5 q45 -16 93 6.5t91 61.5t78 86t56 80q33 53 56 107t33.5 102.5t4.5 85t-31 53.5q-33 20 -77 5t-87 -47t-80 -71.5t-51 -66.5q4 -31 -19.5 -63t-39.5 -54q-16 -23 -40 -72t-34 -98q-8 -37 0 -68.5zM621 682q0 8 31.5 39t74.5 65.5t84 62.5t59 28q14 0 43 -9.5t29 -27.5 q0 -10 -21.5 -26.5t-54 -36t-71.5 -38t-73 -34t-58.5 -25.5t-26.5 -10q-16 0 -16 12z" />
<glyph unicode="&#xf4;" horiz-adv-x="602" d="M91 138q3 46 15.5 91t26.5 70q-6 4 -9 28.5t13 49.5q18 31 55 69.5t87 75.5q66 51 147.5 89t167.5 26q74 -10 98.5 -65.5t12 -131t-56.5 -161.5t-109 -156q-37 -39 -82 -74t-96.5 -55.5t-106 -22.5t-109.5 25q-35 16 -46 56t-8 86zM152 54.5q8 -31.5 47 -46.5 q45 -16 93 6.5t91 61.5t78 86t55 80q33 53 56.5 107t33.5 102.5t4 85t-30 53.5q-33 20 -77 5t-87 -47t-80 -71.5t-51 -66.5q4 -31 -19.5 -63t-40.5 -54q-16 -23 -39.5 -72t-33.5 -98q-8 -37 0 -68.5zM326 672q2 25 39.5 58.5t87 64t98.5 51t72 20.5t53.5 -21.5t57 -50 t45 -60.5t18.5 -52q0 -10 -7.5 -14t-17.5 -4q-18 0 -35.5 13t-37 30.5t-41 31t-48.5 13.5q-39 0 -75.5 -13.5t-70.5 -31t-65.5 -30.5t-62.5 -13z" />
<glyph unicode="&#xf5;" horiz-adv-x="602" d="M91 138q3 46 15.5 91t26.5 70q-6 4 -9 28.5t13 49.5q18 31 55 69.5t87 75.5q66 51 147.5 89t167.5 26q74 -10 98.5 -65.5t12 -131t-56.5 -161.5t-109 -156q-37 -39 -82 -74t-96.5 -55.5t-106 -22.5t-109.5 25q-35 16 -46 56t-8 86zM152 54.5q8 -31.5 47 -46.5 q45 -16 93 6.5t91 61.5t78 86t55 80q33 53 56.5 107t33.5 102.5t4 85t-30 53.5q-33 20 -77 5t-87 -47t-80 -71.5t-51 -66.5q4 -31 -19.5 -63t-40.5 -54q-16 -23 -39.5 -72t-33.5 -98q-8 -37 0 -68.5zM332 653q0 23 26.5 56.5t63.5 65.5t76 54.5t63 22.5q33 0 56.5 -16.5 t44 -36t39 -35.5t40.5 -16q25 0 46.5 15t41 33.5t39 34t39.5 15.5q4 0 5 -5t1 -7q0 -27 -19.5 -60t-47 -62.5t-61 -49t-60.5 -19.5q-35 0 -55.5 16.5t-38 36t-34.5 36t-48 16.5q-41 0 -72 -17.5t-54.5 -37t-42 -37t-34.5 -17.5q-14 0 -14 14z" />
<glyph unicode="&#xf6;" horiz-adv-x="624" d="M107.5 138q3.5 46 15.5 91t27 70q-6 4 -9.5 28.5t13.5 49.5q18 31 55 69.5t86 75.5q66 51 147.5 89t167.5 26q74 -10 98.5 -65.5t12.5 -131t-56 -161.5t-110 -156q-37 -39 -82 -74t-96 -55.5t-105.5 -22.5t-109.5 25q-35 16 -46.5 56t-8 86zM168 54.5q8 -31.5 47 -46.5 q45 -16 93 6.5t91 61.5t78 86t55 80q33 53 56.5 107t34 102.5t4.5 85t-31 53.5q-33 20 -77 5t-87 -47t-80 -71.5t-51 -66.5q4 -31 -19.5 -63t-39.5 -54q-16 -23 -40 -72t-34 -98q-8 -37 0 -68.5zM350 690q0 47 37 85t84 38q35 0 35 -37q0 -51 -30 -85t-83 -34 q-16 0 -29.5 6.5t-13.5 26.5zM696 690q0 47 37 85t84 38q39 0 39 -37q0 -51 -31.5 -85t-83.5 -34q-16 0 -30.5 6.5t-14.5 26.5z" />
<glyph unicode="&#xf7;" horiz-adv-x="739" d="M112.5 275.5q-1.5 13.5 13.5 28.5t45 26.5t62 5.5q74 -12 139.5 -17.5t128 -5.5t128 6.5t143.5 14.5q31 2 44 -5t13 -17.5t-10 -19.5t-24 -9q-168 -8 -333 -15.5t-319 -5.5q-29 0 -30.5 13.5zM297 73.5q8 26.5 32.5 50.5t57.5 28q29 4 37 -15.5t1 -45t-26.5 -48.5 t-46.5 -27q-41 -6 -52 12.5t-3 45zM442.5 477.5q8.5 26.5 32.5 50t57 27.5q29 2 37.5 -16.5t1 -44t-27 -48t-45.5 -26.5q-39 -6 -51.5 12.5t-4 45z" />
<glyph unicode="&#xf8;" horiz-adv-x="661" d="M29 -205.5q6 15.5 30 45.5q35 41 71 84t73 88q-23 25 -28 64t-1 81t16.5 80.5t24.5 61.5q-6 4 -9 28.5t13 49.5q18 31 55 69.5t84 75.5q66 51 149 89t167 26q10 0 17 -2l14 -4q41 51 79.5 102t75.5 101q31 39 61.5 49t49 -0.5t16.5 -38t-35 -60.5q-45 -47 -92 -96 t-96 -102q25 -37 24.5 -93.5t-20.5 -120t-58 -129t-89 -120.5q-35 -39 -80 -73t-94.5 -54.5t-102.5 -24.5t-106 19q-41 -47 -77 -90t-67 -78q-20 -25 -37.5 -37t-25.5 -9t-2 18.5zM227 84.5q0 -18.5 6 -35.5q104 127 215 262.5t220 272.5q-2 2 -4 3t-5 3q-33 20 -76.5 5 t-86.5 -47t-79 -72t-50 -66q4 -31 -19.5 -63t-40.5 -54q-16 -23 -40.5 -72t-35.5 -98q-4 -20 -4 -38.5zM262 16l8 -4t9 -4q45 -16 93 6.5t91 61.5t77.5 86t55.5 80q45 72 71.5 143.5t26.5 124.5q-117 -127 -226.5 -255t-205.5 -239z" />
<glyph unicode="&#xf9;" horiz-adv-x="661" d="M144.5 171q7.5 65 30 130.5t54 122.5t56.5 88q29 37 70.5 55.5t68.5 16.5t24.5 -26t-59.5 -71q-39 -31 -77 -83t-65.5 -110t-38.5 -114.5t3 -97.5q16 -47 53 -61.5t80 -6t85 34t69 62.5q37 49 67.5 110.5t59 126t54.5 124.5t52 106q18 31 47 52t52.5 25t31.5 -13t-14 -62 q-18 -41 -55 -101.5t-78 -132.5q-47 -84 -70.5 -153.5t-42.5 -159.5q-2 -10 -7 -24.5t-13.5 -21.5t-18.5 -5t-22 24q-10 16 -14.5 38t-4.5 40q-33 -39 -83 -68.5t-102 -38t-100.5 10t-76.5 73.5q-23 45 -15.5 110zM336 840q0 18 27.5 27.5t42.5 9.5q18 0 60 -28t84 -62.5 t74.5 -65.5t32.5 -39q0 -6 -6 -9t-12 -3q-2 0 -25.5 10t-57.5 25.5t-73 34t-71.5 38t-54 36t-21.5 26.5z" />
<glyph unicode="&#xfa;" horiz-adv-x="661" d="M144.5 171q7.5 65 30 130.5t54 122.5t56.5 88q29 37 70.5 55.5t68.5 16.5t24.5 -26t-59.5 -71q-39 -31 -77 -83t-65.5 -110t-38.5 -114.5t3 -97.5q16 -47 53 -61.5t80 -6t85 34t69 62.5q37 49 67.5 110.5t59 126t54.5 124.5t52 106q18 31 47 52t52.5 25t31.5 -13t-14 -62 q-18 -41 -55 -101.5t-78 -132.5q-47 -84 -70.5 -153.5t-42.5 -159.5q-2 -10 -7 -24.5t-13.5 -21.5t-18.5 -5t-22 24q-10 16 -14.5 38t-4.5 40q-33 -39 -83 -68.5t-102 -38t-100.5 10t-76.5 73.5q-23 45 -15.5 110zM598 682q0 8 33 39t75 65.5t83.5 62.5t60.5 28 q14 0 42 -9.5t28 -27.5q0 -10 -21.5 -26.5t-54.5 -36t-72 -38t-72.5 -34t-57.5 -25.5t-26 -10q-6 0 -12 3t-6 9z" />
<glyph unicode="&#xfb;" horiz-adv-x="655" d="M144.5 171q7.5 65 30 130.5t53 122.5t55.5 88q31 37 72.5 56.5t68.5 17.5t24.5 -27t-61.5 -72q-39 -31 -77 -83t-64.5 -110t-37.5 -114.5t3 -97.5q16 -47 53 -61.5t80 -6t85 34t69 62.5q37 49 67.5 110.5t58 126t53 124.5t52.5 106q18 31 48 52t52.5 25t31.5 -13t-13 -62 q-18 -41 -56 -101.5t-79 -132.5q-47 -84 -71 -153.5t-42 -159.5q-2 -10 -7 -24.5t-12.5 -21.5t-18.5 -5t-23 24q-8 16 -12.5 38t-4.5 40q-33 -39 -83 -68.5t-102 -38t-100.5 10t-76.5 73.5q-23 45 -15.5 110zM446 682q2 25 40 58.5t87.5 64.5t98.5 51.5t71 20.5 q23 0 53.5 -21.5t57.5 -50.5t45.5 -60.5t18.5 -52.5q0 -10 -7.5 -14t-17.5 -4q-18 0 -35.5 13t-37 30.5t-41 31t-48.5 13.5q-39 0 -76 -13.5t-70.5 -31t-65.5 -30.5t-62 -13z" />
<glyph unicode="&#xfc;" horiz-adv-x="655" d="M144.5 171q7.5 65 30 130.5t54 122.5t56.5 88q29 37 70.5 55.5t68.5 16.5t24.5 -26t-59.5 -71q-39 -31 -77 -83t-65.5 -110t-38.5 -114.5t3 -97.5q16 -47 53 -61.5t80 -6t85 34t69 62.5q37 49 67.5 110.5t59 126t54.5 124.5t52 106q18 31 47 52t52.5 25t31.5 -13t-14 -62 q-18 -41 -55 -101.5t-78 -132.5q-47 -84 -70.5 -153.5t-42.5 -159.5q-2 -10 -7 -24.5t-13.5 -21.5t-18.5 -5t-22 24q-10 16 -14.5 38t-4.5 40q-33 -39 -83 -68.5t-102 -38t-100.5 10t-76.5 73.5q-23 45 -15.5 110zM414 690q0 47 38 85t85 38q33 0 32 -37q0 -51 -29.5 -85 t-82.5 -34q-16 0 -29.5 6.5t-13.5 26.5zM659 690q0 47 37 85t84 38q37 0 37 -37q0 -51 -31.5 -85t-83.5 -34q-16 0 -29.5 6.5t-13.5 26.5z" />
<glyph unicode="&#xfd;" horiz-adv-x="704" d="M-326.5 -804q-7.5 13 2 22.5t37.5 3.5q14 -4 31.5 -10.5t34 -13.5t29 -13t18.5 -6q66 -10 134.5 -4t129.5 30q119 47 203 156t143.5 246t101.5 288.5t76 284.5q-33 -35 -63.5 -67.5t-65 -60t-76.5 -47t-94 -28.5q-84 -14 -136 9.5t-75.5 69.5t-19.5 105.5t33 119.5 q29 66 68.5 132t93.5 113q39 33 70.5 44.5t42.5 1t-4.5 -39t-70.5 -73.5q-39 -29 -77.5 -76t-75.5 -104q-23 -35 -35 -81t-6 -88t36.5 -72t92.5 -32q59 -2 119.5 39t113 98.5t93 121t59.5 108.5q23 53 38 108.5t32 96.5q8 25 21 30.5t26.5 -0.5t23.5 -22.5t13 -36.5 q2 -39 -8.5 -93.5t-24 -106.5t-26.5 -95t-17 -57q-33 -115 -72 -246t-92 -256t-123 -236.5t-165 -189.5t-219 -113t-284 -8q-35 6 -57 20.5t-29.5 27.5zM569 682q0 8 32 39t75 65.5t84 62.5t59 28q14 0 43 -9.5t29 -27.5q0 -10 -21.5 -26.5t-54.5 -36t-71.5 -38t-72.5 -34 t-58.5 -25.5t-26.5 -10q-16 0 -17 12z" />
<glyph unicode="&#xfe;" horiz-adv-x="983" d="M23 -111q0 94 31.5 193.5t87 189.5t128 166t152.5 125q14 39 27.5 75t23.5 73q6 27 11 71.5t15.5 85.5t32 72t62.5 31q14 0 14 -19q0 -12 -18.5 -62t-43 -109.5t-48 -113.5t-31.5 -77q68 37 146.5 55.5t156.5 18.5q57 0 112.5 -16.5t98.5 -49.5t68.5 -80t25.5 -110 q0 -102 -45 -180t-116.5 -130.5t-161.5 -80t-183 -27.5q-20 0 -72.5 6t-107.5 18.5t-99 28.5t-46 37q18 14 39.5 16t42.5 2q41 0 79.5 -13t77.5 -28.5t78 -28t82 -12.5q70 0 139.5 29t125 77t89 113.5t33.5 139.5q0 51 -22.5 85t-58.5 54.5t-79 27.5t-86 7q-113 0 -213 -37 t-190 -102q-10 -23 -32.5 -74t-52.5 -114.5t-63.5 -131t-67.5 -124t-63.5 -93.5t-50.5 -37q-23 0 -25.5 19.5t-2.5 33.5zM74 -37q0 -6 2 -16t10 -10q14 0 36.5 27.5t47.5 69.5t50.5 94t47 100t38 87.5t22.5 55.5q-35 -29 -79 -78t-83 -107.5t-65.5 -118t-26.5 -104.5z" />
<glyph unicode="&#xff;" horiz-adv-x="731" d="M-298 -805q-7 14 2 23.5t38 3.5t64.5 -23.5t48.5 -19.5q66 -10 133 -4t129 30q119 47 202.5 156t143 246t101.5 288.5t79 284.5q-33 -35 -64.5 -67.5t-66.5 -60t-77 -47t-93 -28.5q-84 -14 -136 9.5t-74.5 69.5t-18.5 105.5t32 119.5q29 66 69 133t91 112q39 35 72 45.5 t44 0t-4.5 -39t-72.5 -73.5q-37 -29 -77 -76t-77 -104q-23 -35 -35 -81t-4.5 -88t38 -72t92.5 -32q59 -2 119.5 39t112.5 98.5t92 121t59 108.5q23 53 39 108.5t30 96.5q8 25 22.5 30.5t28 -0.5t23.5 -22.5t12 -36.5q2 -39 -8 -93.5t-23.5 -106.5t-28 -95t-18.5 -57 q-33 -115 -71.5 -246t-92 -256t-123 -236.5t-164.5 -189.5t-219 -113t-284 -8q-35 6 -56.5 19.5t-28.5 27.5zM381 690q0 47 37 85t84 38q35 0 35 -37q0 -51 -30 -85t-83 -34q-16 0 -29.5 6.5t-13.5 26.5zM727 690q0 47 37 85t84 38q39 0 39 -37q0 -51 -32 -85t-83 -34 q-16 0 -30.5 6.5t-14.5 26.5z" />
<glyph unicode="&#x152;" horiz-adv-x="1370" d="M202 348.5q9 104.5 31.5 206.5t56.5 193.5t70 150.5q-4 14 -4 33.5t13 36.5q33 47 78 98t103 89t131 55t163 -3q66 -14 100 -75q59 8 135 11t158 2t162 -4t147.5 -7.5t116.5 -7.5t70 -5q41 -4 36.5 -21.5t-45.5 -21.5q-31 -4 -76.5 -4h-103t-122 -1t-130.5 -3 q-88 -4 -160.5 -20.5t-152.5 -30.5q10 -80 -3 -180.5t-44 -206.5q31 4 60.5 8t58.5 8q23 35 41 67t34 62q39 70 59.5 125t35.5 88q8 18 17 19.5t9 -21.5q-4 -53 -47 -143t-102 -193q78 8 157.5 7t171.5 -7q78 -4 62 -20.5t-96 -20.5t-169 -17t-177 -34q-45 -78 -89.5 -151.5 t-78 -134t-53 -102.5t-13.5 -54q53 25 126 54.5t157 35.5q25 2 82 4t114.5 4t102.5 3l45 1q14 -16 10 -29.5t-20.5 -23.5t-43 -17.5t-55.5 -11.5q-63 -10 -112.5 -11t-93.5 -6t-89 -17.5t-100 -45.5q-98 -59 -159.5 -69t-67.5 12q-8 29 14 85t63 129t94.5 158t108.5 173 q-25 -4 -47 -9.5t-45 -9.5q-45 -121 -107.5 -234.5t-133 -198.5t-145.5 -130t-149 -31q-70 14 -107.5 75t-49.5 148t-3 191.5zM262 135q2 -78 27.5 -122t87.5 -29q47 10 97 50t99.5 100.5t95.5 137t87 160.5q14 31 28.5 61.5t28.5 67.5t29.5 82t31.5 105q6 23 15.5 60.5 t17.5 82.5t10.5 91t-4 85t-24.5 67.5t-53 36.5q-68 14 -134.5 -13.5t-119 -72.5t-85 -95t-32.5 -77q14 -10 18 -27.5t-6 -33.5t-23.5 -34.5t-23.5 -33.5q-25 -33 -54.5 -109.5t-56 -170.5t-43 -192.5t-14.5 -176.5z" />
<glyph unicode="&#x153;" horiz-adv-x="892" d="M130 138q3 46 15.5 91t26.5 70q-6 4 -9 28.5t13 49.5q18 31 55 69.5t84 75.5q66 51 149 89t167 26q88 -12 108 -94q41 43 94.5 74.5t114.5 31.5q39 0 63.5 -19.5t34 -50t2 -69.5t-33.5 -76q-27 -37 -64 -62.5t-80 -42t-88 -24.5t-88 -10q-14 -29 -32 -59 q-16 -35 -28.5 -78t-8.5 -78q6 -47 33.5 -61.5t64.5 -13.5t76 13.5t65 18.5q16 4 17.5 -10.5t-17.5 -26.5q-70 -33 -148.5 -32t-125.5 48q-29 29 -33 86q-37 -37 -81 -66.5t-92 -47t-98.5 -17.5t-101.5 25q-35 16 -46 56t-8 86zM188 123q-8 -37 1.5 -68.5t46.5 -46.5 q45 -16 93 6.5t91 61.5t77.5 86t55.5 80q33 53 56.5 107t33.5 102.5t5 85t-32 53.5q-33 20 -76.5 5t-86.5 -47t-79 -71.5t-50 -66.5q4 -31 -19.5 -63t-40.5 -54q-16 -23 -40.5 -72t-35.5 -98zM719 324q88 0 155.5 33.5t105.5 78.5t43 89.5t-32 64.5q-35 18 -78 -12.5 t-82.5 -78.5t-70.5 -99.5t-41 -75.5z" />
<glyph unicode="&#x178;" horiz-adv-x="763" d="M210.5 709.5q10.5 68.5 36 140.5t62.5 139.5t68 120.5q43 70 75.5 94.5t55.5 26.5q47 2 50 -11.5t-13 -29.5q-12 -10 -26.5 -16.5t-29.5 -16.5q-39 -27 -80.5 -77t-76.5 -113.5t-57.5 -132t-24.5 -132t20.5 -113.5t79.5 -77q74 -35 146.5 -15.5t141.5 73t133.5 131 t121.5 159.5t107.5 159t93.5 128q27 33 59.5 50t54 16t22.5 -19t-32 -57q-98 -115 -193.5 -235t-171 -259t-126 -307t-58.5 -377q-2 -41 -22.5 -64.5t-43 -26.5t-41 15.5t-16.5 65.5q2 33 10.5 83t20.5 108.5t27.5 118.5t30 112.5t27.5 90.5t24 54q-45 -33 -111 -49 t-131.5 -10t-120.5 36.5t-80 94.5q-23 53 -12.5 121.5zM606 1214q0 47 38 85t85 38q33 0 33 -37q0 -51 -30 -84.5t-83 -33.5q-16 0 -29.5 6t-13.5 26zM954 1214q0 47 37 85t84 38q37 0 37 -37q0 -51 -31.5 -84.5t-83.5 -33.5q-16 0 -29.5 6t-13.5 26z" />
<glyph unicode="&#x2c6;" horiz-adv-x="598" d="M143 674q2 25 40 58.5t88.5 64t98.5 51t72 20.5q23 0 52.5 -21.5t56.5 -50t45 -60t18 -52.5q0 -18 -22 -18q-18 0 -36.5 13t-38 29.5t-41 30t-48.5 13.5q-39 0 -76 -13.5t-70.5 -30t-65.5 -30.5t-62 -14z" />
<glyph unicode="&#x2dc;" horiz-adv-x="667" d="M135 680q0 23 26.5 56.5t64.5 65.5t77 54.5t64 22.5q33 0 56 -16.5t42.5 -36t39 -36t42.5 -16.5q25 0 46 15.5t40.5 34t39 33.5t40.5 15q4 0 5 -5t1 -7q0 -27 -19.5 -59.5t-47 -62t-61.5 -49t-61 -19.5q-37 0 -57 16t-36.5 35.5t-34 36t-48.5 16.5q-41 0 -71.5 -17.5 t-54 -37t-43 -36.5t-35.5 -17q-14 0 -15 14z" />
<glyph unicode="&#x2000;" horiz-adv-x="745" />
<glyph unicode="&#x2001;" horiz-adv-x="1491" />
<glyph unicode="&#x2002;" horiz-adv-x="745" />
<glyph unicode="&#x2003;" horiz-adv-x="1491" />
<glyph unicode="&#x2004;" horiz-adv-x="497" />
<glyph unicode="&#x2005;" horiz-adv-x="372" />
<glyph unicode="&#x2006;" horiz-adv-x="248" />
<glyph unicode="&#x2007;" horiz-adv-x="248" />
<glyph unicode="&#x2008;" horiz-adv-x="186" />
<glyph unicode="&#x2009;" horiz-adv-x="298" />
<glyph unicode="&#x200a;" horiz-adv-x="82" />
<glyph unicode="&#x2010;" d="M246 328.5q-2 13.5 13 29t45 26.5t63 5q49 -8 73.5 -13t34.5 -7t15.5 -2t17.5 3t36.5 7t76.5 10q31 2 43 -6t12 -20.5t-9.5 -23.5t-23.5 -11q-84 -4 -123 -6.5t-67.5 -3.5t-63 -1h-110.5q-31 0 -33 13.5z" />
<glyph unicode="&#x2011;" d="M246 328.5q-2 13.5 13 29t45 26.5t63 5q49 -8 73.5 -13t34.5 -7t15.5 -2t17.5 3t36.5 7t76.5 10q31 2 43 -6t12 -20.5t-9.5 -23.5t-23.5 -11q-84 -4 -123 -6.5t-67.5 -3.5t-63 -1h-110.5q-31 0 -33 13.5z" />
<glyph unicode="&#x2012;" d="M246 328.5q-2 13.5 13 29t45 26.5t63 5q49 -8 73.5 -13t34.5 -7t15.5 -2t17.5 3t36.5 7t76.5 10q31 2 43 -6t12 -20.5t-9.5 -23.5t-23.5 -11q-84 -4 -123 -6.5t-67.5 -3.5t-63 -1h-110.5q-31 0 -33 13.5z" />
<glyph unicode="&#x2013;" horiz-adv-x="962" d="M223.5 598q-8.5 16 15 35.5t69.5 34t106 8.5q86 -8 134 -14.5t76.5 -10.5t48 -4t49.5 1t79 4t139 10q51 2 79 -8.5t30 -25t-20.5 -25.5t-72.5 -11q-84 2 -143 2h-105h-85t-86.5 -2t-107.5 -4t-146 -4q-51 -2 -59.5 14z" />
<glyph unicode="&#x2014;" horiz-adv-x="1394" d="M221.5 596q-8.5 16 15 35.5t69.5 34t106 8.5q131 -12 248.5 -20.5t233.5 -11.5t235.5 0t254.5 11q55 2 81 -8t29 -24.5t-11.5 -25.5t-38.5 -11q-143 2 -291.5 4t-298 2t-294 -2t-279.5 -6q-51 -2 -59.5 14z" />
<glyph unicode="&#x2018;" horiz-adv-x="495" d="M334 944.5q8 36.5 29.5 71.5t51 63.5t54.5 42.5q2 2 9 5t14.5 4.5t14.5 1.5t9 -5q2 -4 -7 -16t-21.5 -28.5t-23.5 -34t-13 -29.5q20 -4 28 -19q8 -14 5 -32.5t-12 -37t-23.5 -35t-26.5 -22.5q-16 -10 -42 -15t-38 18q-16 31 -8 67.5z" />
<glyph unicode="&#x2019;" horiz-adv-x="604" d="M358 862q-2 2 7.5 15.5t21.5 30t23.5 33.5t13.5 30q-20 4 -29 18q-8 14 -5 32.5t12.5 37t24 35t26.5 22.5q16 10 41.5 15.5t37.5 -17.5q16 -31 8 -67.5t-29.5 -71.5t-50 -63.5t-52.5 -43.5q-4 -2 -11.5 -5t-14.5 -4t-14.5 -1t-9.5 4z" />
<glyph unicode="&#x201a;" horiz-adv-x="350" d="M156 0q6 12 23.5 28.5t34.5 34t29.5 37t8.5 41.5q-16 4 -26.5 12.5t-10.5 24.5q0 20 11.5 42t27.5 38t38 26.5t42 10.5q27 0 34 -18.5t7 -40.5q0 -29 -14.5 -68t-40 -76t-63.5 -65.5t-85 -34.5q-4 0 -10 1t-6 7z" />
<glyph unicode="&#x201c;" horiz-adv-x="833" d="M258 944.5q8 36.5 29.5 71.5t51.5 63.5t54 42.5q2 2 9.5 5t14.5 4.5t14 1.5t9 -5q2 -4 -7 -16t-21.5 -28.5t-23.5 -34t-13 -29.5q20 -4 28 -19q8 -14 5.5 -32.5t-12 -37t-24 -35t-26.5 -22.5q-16 -10 -41.5 -15t-38.5 18q-16 31 -8 67.5zM473 944.5q8 36.5 29.5 71.5 t51.5 63.5t54 42.5q2 2 9.5 5t14.5 4.5t14 1.5t9 -5q2 -4 -7 -16t-21.5 -28.5t-23.5 -34t-13 -29.5q20 -4 28 -19q8 -14 5.5 -32.5t-12 -37t-24 -35t-26.5 -22.5q-16 -10 -41.5 -15t-38.5 18q-16 31 -8 67.5z" />
<glyph unicode="&#x201d;" horiz-adv-x="811" d="M285 862q-2 2 7 15.5t21.5 30t23.5 33.5t13 30q-23 4 -31 18t-5 32.5t12.5 37t24 35t26.5 22.5q16 10 41.5 15.5t38.5 -17.5q16 -31 8 -67.5t-29.5 -71.5t-50.5 -63.5t-53 -43.5q-4 -2 -10.5 -5t-14.5 -4t-14 -1t-8 4zM500 862q-2 2 7 15.5t21.5 30t23.5 33.5t13 30 q-23 4 -30 18q-8 14 -5.5 32.5t12 37t24 35t26.5 22.5q16 10 41.5 15.5t38.5 -17.5q16 -31 8 -67.5t-29.5 -71.5t-50.5 -63.5t-53 -43.5q-4 -2 -10.5 -5t-14.5 -4t-14 -1t-8 4z" />
<glyph unicode="&#x201e;" horiz-adv-x="675" d="M176 0q6 12 23.5 28.5t35 34t29.5 37t8 41.5q-16 4 -26 12.5t-10 24.5q0 20 11 42t27.5 38t38 26.5t41.5 10.5q27 0 34 -18.5t7 -40.5q0 -29 -14 -68t-40 -76t-63.5 -65.5t-84.5 -34.5q-4 0 -10.5 1t-6.5 7zM401 0q6 12 23.5 28.5t35 34t30 37t8.5 41.5q-16 4 -26.5 12.5 t-10.5 24.5q0 20 11 42t27.5 38t38.5 26.5t42 10.5q27 0 34 -18.5t7 -40.5q0 -29 -14.5 -68t-40 -76t-63.5 -65.5t-85 -34.5q-4 0 -10.5 1t-6.5 7z" />
<glyph unicode="&#x2022;" horiz-adv-x="407" d="M227.5 558q12.5 40 50.5 77t89 43q45 6 58 -23.5t2 -68.5t-42 -75t-72 -42q-61 -10 -79.5 19.5t-6 69.5z" />
<glyph unicode="&#x2026;" horiz-adv-x="952" d="M260 47q8 27 32.5 50.5t57.5 27.5q29 4 37 -15.5t1 -45t-26.5 -48t-46.5 -26.5q-41 -6 -52 12t-3 45zM561 47q8 27 32.5 50.5t57.5 27.5q29 4 37 -15.5t1 -45t-26.5 -48t-46.5 -26.5q-39 -6 -51 12t-4 45zM846 47q8 27 32.5 50.5t57.5 27.5q29 4 37 -15.5t1 -45 t-26.5 -48t-46.5 -26.5q-41 -6 -52 12t-3 45z" />
<glyph unicode="&#x202f;" horiz-adv-x="298" />
<glyph unicode="&#x2039;" horiz-adv-x="430" d="M164 244q0 23 22.5 60.5t57.5 79.5t76.5 84t82.5 76t76 55.5t53 21.5q12 0 13 -11q0 -37 -38 -81t-83 -94t-83 -105.5t-38 -116.5q0 -20 7 -40.5t16.5 -41t16.5 -42t7 -42.5q0 -12 -6 -31.5t-22 -19.5q-18 0 -45 31.5t-51.5 73.5t-43 83t-18.5 60z" />
<glyph unicode="&#x203a;" horiz-adv-x="430" d="M104 6q0 37 38 81t84 94t85 103.5t39 108.5q0 20 -8 43t-17.5 45.5t-17.5 45t-8 44.5q0 12 9 32t26 20q14 0 40.5 -34t51.5 -77t43 -85t18 -58q0 -23 -22.5 -60t-57 -78t-77.5 -83t-84 -75.5t-76 -55t-53 -21.5q-12 0 -13 10z" />
<glyph unicode="&#x205f;" horiz-adv-x="372" />
<glyph unicode="&#x2122;" horiz-adv-x="1179" d="M273.5 1128.5q0.5 12.5 19.5 22.5q25 10 78 10q61 -2 115.5 0t102.5 5t94 5.5t93 2.5q31 0 45.5 -12.5t13.5 -28t-17.5 -31t-45.5 -23.5q-10 -2 -36.5 -1t-56.5 3t-58.5 5.5t-42.5 3.5q-9 0 -21 4q-27 -39 -45 -90.5t-32.5 -105.5t-27 -108.5t-26.5 -99.5 q-23 -74 -57 -121q-23 -29 -40.5 -19.5t-23.5 30.5q-4 14 -3 31.5t7 31.5q2 6 11.5 30.5t23.5 59.5t30.5 77t33.5 85q20 49 40.5 98t40.5 99q6 6 7 6h4h-13h-41h-34.5h-47t-46 2t-29.5 6q-16 10 -15.5 22.5zM762 631q8 35 20.5 80t28.5 94t32.5 97t26.5 89q10 33 6 66t1 65 q4 23 16 35t26.5 14.5t24.5 -7t10 -29.5q0 -29 -4 -55.5t-8 -55.5l-43 14q10 18 14.5 37t12.5 37q10 29 31.5 50.5t58.5 11.5q27 -8 37 -31t13 -46.5t6 -44t18 -22.5q33 -6 51 18.5t33 47.5q16 25 33.5 50t43.5 36q35 14 50.5 -3.5t17.5 -41.5q2 -29 -4 -66t-17.5 -77 t-24.5 -77.5t-22 -64.5q-16 -45 -27.5 -88t-15.5 -90q-2 -37 -17 -65.5t-32 -43.5q-6 -4 -20.5 -10t-28.5 6q-10 10 -11 25.5t1 29.5q4 18 11 42t17 53q23 61 47.5 121.5t47.5 121.5q12 33 19 61.5t11 45.5q-4 -4 -11 -11.5t-17 -15.5q-23 -25 -59 -44t-91 -9 q-43 6 -61.5 31.5t-26.5 46.5v6q-10 -6 -21.5 -23.5t-22.5 -38t-19.5 -41t-12.5 -32.5q-31 -80 -39 -164t-24 -168q-6 -29 -21.5 -37t-32 -2t-26.5 24.5t-6 47.5z" />
<glyph unicode="&#xe000;" horiz-adv-x="716" d="M0 0v717h717v-717h-717z" />
</font>
</defs>
</svg>
